<svg width="28" height="28" viewBox="0 0 28 28" fill="none" xmlns="http://www.w3.org/2000/svg">
<path fill-rule="evenodd" clip-rule="evenodd" d="M22.8078 2.33334C24.5475 2.33334 25.9578 3.74365 25.9578 5.48335V13.6958C25.9578 15.3216 24.7263 16.6596 23.1453 16.828V18.3083C23.1453 18.6282 22.9518 18.9163 22.6557 19.0373C22.3597 19.1583 22.0198 19.0882 21.7958 18.86L19.8192 16.8458H16.5078V16.5084C16.5078 14.1162 14.5686 12.1771 12.1766 12.1771H8.63281V5.48335C8.63281 3.74365 10.0431 2.33334 11.7828 2.33334H22.8078ZM17.6891 13.7521C17.6891 14.187 17.3365 14.5396 16.9016 14.5396C16.4666 14.5396 16.1141 14.187 16.1141 13.7521C16.1141 13.3172 16.4666 12.9646 16.9016 12.9646C17.3365 12.9646 17.6891 13.3172 17.6891 13.7521ZM15.7203 7.39961C15.7203 6.55876 16.402 5.8771 17.2428 5.8771H17.2953C18.1614 5.8771 18.8703 6.58719 18.8703 7.4608C18.8703 8.3441 18.1536 9.0621 17.2778 9.0621H16.9016C16.4666 9.0621 16.1141 9.41467 16.1141 9.8496V11.3896C16.1141 11.8245 16.4666 12.1771 16.9016 12.1771C17.3365 12.1771 17.6891 11.8245 17.6891 11.3896V10.6105C19.2469 10.4076 20.4453 9.06758 20.4453 7.4608C20.4453 5.72491 19.0388 4.3021 17.2953 4.3021H17.2428C15.5321 4.3021 14.1453 5.68888 14.1453 7.39961C14.1453 7.83451 14.4979 8.18711 14.9328 8.18711C15.3677 8.18711 15.7203 7.83451 15.7203 7.39961Z" fill="url(#paint0_linear_8938_4043)"/>
<path fill-rule="evenodd" clip-rule="evenodd" d="M2.33301 21.163C2.33301 22.512 3.18042 23.6621 4.37213 24.1113V25.1708C4.37213 25.4907 4.56561 25.7788 4.86169 25.8998C5.15778 26.0208 5.49766 25.9507 5.7217 25.7224L7.10479 24.313H12.1768C13.9165 24.313 15.3268 22.9027 15.3268 21.163V16.5083C15.3268 14.7686 13.9165 13.3583 12.1768 13.3583H5.48301C3.74331 13.3583 2.33301 14.7686 2.33301 16.5083V21.163ZM5.87676 19.6583C6.31169 19.6583 6.66426 19.3058 6.66426 18.8708C6.66426 18.4359 6.31169 18.0833 5.87676 18.0833C5.44183 18.0833 5.08926 18.4359 5.08926 18.8708C5.08926 19.3058 5.44183 19.6583 5.87676 19.6583ZM9.02676 19.6583C9.46169 19.6583 9.81426 19.3058 9.81426 18.8708C9.81426 18.4359 9.46169 18.0833 9.02676 18.0833C8.59182 18.0833 8.23926 18.4359 8.23926 18.8708C8.23926 19.3058 8.59182 19.6583 9.02676 19.6583ZM12.9643 18.8708C12.9643 19.3058 12.6117 19.6583 12.1768 19.6583C11.7418 19.6583 11.3893 19.3058 11.3893 18.8708C11.3893 18.4359 11.7418 18.0833 12.1768 18.0833C12.6117 18.0833 12.9643 18.4359 12.9643 18.8708Z" fill="url(#paint1_linear_8938_4043)"/>
<defs>
<linearGradient id="paint0_linear_8938_4043" x1="32.5114" y1="30.7318" x2="11.5564" y2="6.21692" gradientUnits="userSpaceOnUse">
<stop offset="0.00265844" stop-color="#FF37DF"/>
<stop offset="1" stop-color="#6E00FF"/>
</linearGradient>
<linearGradient id="paint1_linear_8938_4043" x1="32.5116" y1="30.7318" x2="11.5566" y2="6.21691" gradientUnits="userSpaceOnUse">
<stop offset="0.00265844" stop-color="#FF37DF"/>
<stop offset="1" stop-color="#6E00FF"/>
</linearGradient>
</defs>
</svg>
