<svg width="20" height="20" viewBox="0 0 20 20" fill="none" xmlns="http://www.w3.org/2000/svg">
<path d="M5 1.875H6.875V18.125H5C4.75368 18.1253 4.50971 18.0771 4.28208 17.9829C4.05445 17.8888 3.84762 17.7507 3.67344 17.5766C3.49927 17.4024 3.36117 17.1956 3.26706 16.9679C3.17295 16.7403 3.12467 16.4963 3.125 16.25V3.75C3.12467 3.50368 3.17295 3.25971 3.26706 3.03208C3.36117 2.80445 3.49927 2.59762 3.67344 2.42344C3.84762 2.24927 4.05445 2.11117 4.28208 2.01706C4.50971 1.92295 4.75368 1.87467 5 1.875ZM15 18.125H8.125V1.875H15C15.2463 1.87467 15.4903 1.92295 15.7179 2.01706C15.9456 2.11117 16.1524 2.24927 16.3266 2.42344C16.5007 2.59762 16.6388 2.80445 16.7329 3.03208C16.8271 3.25971 16.8753 3.50368 16.875 3.75V16.25C16.8753 16.4963 16.8271 16.7403 16.7329 16.9679C16.6388 17.1956 16.5007 17.4024 16.3266 17.5766C16.1524 17.7507 15.9456 17.8888 15.7179 17.9829C15.4903 18.0771 15.2463 18.1253 15 18.125ZM10 6.25C9.99918 6.3323 10.0148 6.41395 10.0459 6.49014C10.077 6.56634 10.123 6.63557 10.1812 6.69377C10.2394 6.75197 10.3087 6.79797 10.3849 6.82909C10.4611 6.86021 10.5427 6.87582 10.625 6.875H14.375C14.5408 6.875 14.6997 6.80915 14.8169 6.69194C14.9342 6.57473 15 6.41576 15 6.25C15 6.08424 14.9342 5.92527 14.8169 5.80806C14.6997 5.69085 14.5408 5.625 14.375 5.625H10.625C10.5427 5.62418 10.4611 5.63979 10.3849 5.67091C10.3087 5.70203 10.2394 5.74803 10.1812 5.80624C10.123 5.86444 10.077 5.93366 10.0459 6.00986C10.0148 6.08606 9.99918 6.1677 10 6.25ZM15 8.75C15.0008 8.6677 14.9852 8.58606 14.9541 8.50986C14.923 8.43366 14.877 8.36444 14.8188 8.30623C14.7606 8.24803 14.6913 8.20203 14.6151 8.17091C14.5389 8.13979 14.4573 8.12418 14.375 8.125H10.625C10.4592 8.125 10.3003 8.19085 10.1831 8.30806C10.0658 8.42527 10 8.58424 10 8.75C10 8.91576 10.0658 9.07473 10.1831 9.19194C10.3003 9.30915 10.4592 9.375 10.625 9.375H14.375C14.4573 9.37582 14.5389 9.36021 14.6151 9.32909C14.6913 9.29797 14.7606 9.25197 14.8188 9.19377C14.877 9.13557 14.923 9.06634 14.9541 8.99014C14.9852 8.91395 15.0008 8.8323 15 8.75Z" fill="url(#paint0_linear_6544_103691)"/>
<defs>
<linearGradient id="paint0_linear_6544_103691" x1="3.04875" y1="3.04875" x2="16.9513" y2="16.9513" gradientUnits="userSpaceOnUse">
<stop stop-color="#1283FF"/>
<stop offset="1" stop-color="#D21AFF"/>
</linearGradient>
</defs>
</svg>
