<svg width="28" height="28" viewBox="0 0 28 28" fill="none" xmlns="http://www.w3.org/2000/svg">
<path d="M6.625 3H9.25V25.75H6.625C6.28015 25.7505 5.9386 25.6829 5.61991 25.5511C5.30123 25.4194 5.01167 25.226 4.76782 24.9822C4.52397 24.7383 4.33064 24.4488 4.19888 24.1301C4.06712 23.8114 3.99954 23.4699 4 23.125V5.625C3.99954 5.28015 4.06712 4.9386 4.19888 4.61991C4.33064 4.30123 4.52397 4.01167 4.76782 3.76782C5.01167 3.52397 5.30123 3.33064 5.61991 3.19888C5.9386 3.06712 6.28015 2.99954 6.625 3ZM20.625 25.75H11V3H20.625C20.9699 2.99954 21.3114 3.06712 21.6301 3.19888C21.9488 3.33064 22.2383 3.52397 22.4822 3.76782C22.726 4.01167 22.9194 4.30123 23.0511 4.61991C23.1829 4.9386 23.2505 5.28015 23.25 5.625V23.125C23.2505 23.4699 23.1829 23.8114 23.0511 24.1301C22.9194 24.4488 22.726 24.7383 22.4822 24.9822C22.2383 25.226 21.9488 25.4194 21.6301 25.5511C21.3114 25.6829 20.9699 25.7505 20.625 25.75ZM13.625 9.125C13.6239 9.24023 13.6457 9.35453 13.6893 9.4612C13.7328 9.56788 13.7972 9.66479 13.8787 9.74628C13.9602 9.82776 14.0571 9.89217 14.1638 9.93573C14.2705 9.9793 14.3848 10.0011 14.5 10H19.75C19.9821 10 20.2046 9.90782 20.3687 9.74372C20.5328 9.57963 20.625 9.35707 20.625 9.125C20.625 8.89294 20.5328 8.67038 20.3687 8.50628C20.2046 8.34219 19.9821 8.25 19.75 8.25H14.5C14.3848 8.24886 14.2705 8.27071 14.1638 8.31427C14.0571 8.35784 13.9602 8.42225 13.8787 8.50373C13.7972 8.58521 13.7328 8.68213 13.6893 8.7888C13.6457 8.89548 13.6239 9.00978 13.625 9.125ZM20.625 12.625C20.6261 12.5098 20.6043 12.3955 20.5607 12.2888C20.5172 12.1821 20.4528 12.0852 20.3713 12.0037C20.2898 11.9222 20.1929 11.8578 20.0862 11.8143C19.9795 11.7707 19.8652 11.7489 19.75 11.75H14.5C14.2679 11.75 14.0454 11.8422 13.8813 12.0063C13.7172 12.1704 13.625 12.3929 13.625 12.625C13.625 12.8571 13.7172 13.0796 13.8813 13.2437C14.0454 13.4078 14.2679 13.5 14.5 13.5H19.75C19.8652 13.5012 19.9795 13.4793 20.0862 13.4357C20.1929 13.3922 20.2898 13.3278 20.3713 13.2463C20.4528 13.1648 20.5172 13.0679 20.5607 12.9612C20.6043 12.8545 20.6261 12.7402 20.625 12.625Z" fill="url(#paint0_linear_8938_4022)"/>
<defs>
<linearGradient id="paint0_linear_8938_4022" x1="3.89325" y1="4.64325" x2="23.3568" y2="24.1068" gradientUnits="userSpaceOnUse">
<stop stop-color="#1283FF"/>
<stop offset="1" stop-color="#D21AFF"/>
</linearGradient>
</defs>
</svg>
