<svg width="20" height="20" viewBox="0 0 20 20" fill="none" xmlns="http://www.w3.org/2000/svg">
<path d="M5.83332 1.6667V3.43614H3.50701C2.4977 3.43614 1.66666 4.26713 1.66666 5.2765V16.4907C1.66666 17.5001 2.4977 18.331 3.50701 18.331H16.493C17.5023 18.331 18.3333 17.5001 18.3333 16.4907V5.2765C18.3333 4.26713 17.5023 3.43614 16.493 3.43614H14.1667V1.6667H12.9762V3.43614H7.0238V1.6667H5.83332ZM3.50701 4.62662H5.83332V6.42512H7.0238V4.62662H12.9762V6.42512H14.1667V4.62662H16.493C16.8627 4.62662 17.1428 4.90537 17.1428 5.2765V7.62141H2.85713V5.2765C2.85713 4.90537 3.13732 4.62662 3.50701 4.62662ZM12.6774 10L13.5935 10.7592L9.9593 15.1444C9.90385 15.2113 9.83444 15.2652 9.75595 15.3024C9.67746 15.3395 9.59178 15.3591 9.50493 15.3596C9.41808 15.3602 9.33216 15.3417 9.2532 15.3056C9.17423 15.2694 9.10414 15.2164 9.04784 15.1503L6.40647 12.0485L7.31212 11.2766L9.49427 13.8389L12.6774 10Z" fill="url(#paint0_linear_6544_104094)"/>
<defs>
<linearGradient id="paint0_linear_6544_104094" x1="1.66666" y1="1.66554" x2="18.3036" y2="18.3024" gradientUnits="userSpaceOnUse">
<stop stop-color="#FFFF00"/>
<stop offset="1" stop-color="#D40000"/>
</linearGradient>
</defs>
</svg>
