<svg width="28" height="28" viewBox="0 0 28 28" fill="none" xmlns="http://www.w3.org/2000/svg">
<path d="M8.16634 2.33337V4.81059H4.90951C3.49647 4.81059 2.33301 5.97397 2.33301 7.38709V23.087C2.33301 24.5001 3.49647 25.6635 4.90951 25.6635H23.0898C24.5029 25.6635 25.6663 24.5001 25.6663 23.087V7.38709C25.6663 5.97397 24.5029 4.81059 23.0898 4.81059H19.833V2.33337H18.1663V4.81059H9.83301V2.33337H8.16634ZM4.90951 6.47725H8.16634V8.99516H9.83301V6.47725H18.1663V8.99516H19.833V6.47725H23.0898C23.6074 6.47725 23.9997 6.8675 23.9997 7.38709V10.67H3.99967V7.38709C3.99967 6.8675 4.39194 6.47725 4.90951 6.47725ZM17.748 14L19.0306 15.0629L13.9427 21.2022C13.8651 21.2958 13.7679 21.3712 13.658 21.4233C13.5481 21.4753 13.4282 21.5027 13.3066 21.5035C13.185 21.5043 13.0647 21.4784 12.9542 21.4278C12.8436 21.3772 12.7455 21.3029 12.6667 21.2104L8.96875 16.8679L10.2367 15.7872L13.2917 19.3744L17.748 14Z" fill="url(#paint0_linear_8938_4032)"/>
<defs>
<linearGradient id="paint0_linear_8938_4032" x1="2.33301" y1="2.33175" x2="25.6247" y2="25.6234" gradientUnits="userSpaceOnUse">
<stop stop-color="#FFFF00"/>
<stop offset="1" stop-color="#D40000"/>
</linearGradient>
</defs>
</svg>
