<svg width="20" height="20" viewBox="0 0 20 20" fill="none" xmlns="http://www.w3.org/2000/svg">
<path d="M7.84062 10.573C7.56055 10.4725 7.28047 10.3728 7.02031 10.2483C7.00273 10.2403 6.98594 10.2304 6.96836 10.2224C6.87656 10.1725 6.79688 10.1103 6.7293 10.0369C6.65859 9.96112 6.60195 9.87297 6.56094 9.77564C6.55859 9.77005 6.55547 9.76327 6.55195 9.75769C6.53203 9.70583 6.51523 9.65158 6.5043 9.59494C6.49219 9.53391 6.48555 9.46729 6.48555 9.39469V9.21838C6.94062 8.86656 7.2707 8.35438 7.39336 7.76641H7.67812C7.90195 7.76641 8.10664 7.67267 8.25391 7.52229C8.40117 7.3719 8.49297 7.16368 8.49297 6.93551V6.22189C8.49297 6.06473 8.44961 5.91754 8.37461 5.79109L8.37578 5.70732C8.40234 4.30082 8.41992 3.29202 6.77461 3.11571L7.00703 2.77984C7.06016 2.70285 7.08906 2.61709 7.0957 2.52774C7.10117 2.43958 7.08359 2.35023 7.04141 2.26766C6.99922 2.18389 6.9375 2.11727 6.86328 2.0722C6.78789 2.02473 6.70156 2 6.60977 2H4.59688C3.78984 2 3.00586 2.27803 2.43984 2.78821C1.91562 3.2617 1.5793 3.92905 1.5793 4.75316V5.7867C1.50195 5.91315 1.45742 6.06273 1.45742 6.22189V6.93551C1.45742 7.16408 1.54922 7.3719 1.69648 7.52229C1.84492 7.67267 2.04844 7.76641 2.27227 7.76641H2.55703C2.65547 8.24029 2.88906 8.66551 3.21484 8.9966C3.29688 9.08036 3.38555 9.15815 3.47852 9.22955V9.39469C3.47852 9.46609 3.47305 9.53271 3.46094 9.59374C3.44883 9.65357 3.43008 9.71461 3.40352 9.77564C3.36367 9.87297 3.30625 9.96112 3.23633 10.0369C3.16875 10.1103 3.08789 10.1725 2.99609 10.2224C2.9793 10.2304 2.96289 10.2403 2.94531 10.2483C2.68516 10.3728 2.40391 10.4721 2.12383 10.573C1.05742 10.9552 0 11.3341 0 12.7055V16.5058C0 16.777 0.217969 17 0.485937 17H2.02969V14.8029C2.02969 14.6242 2.17266 14.4782 2.34766 14.4782C2.52383 14.4782 2.66562 14.6242 2.66562 14.8029V17H4.1625L4.04414 16.0187L4.64766 13.2632C4.65547 13.2317 4.68203 13.2101 4.71289 13.2101H5.25312C5.28516 13.2101 5.31172 13.2317 5.31836 13.2632L5.91953 16.0187L5.80117 17H7.29805V14.8029C7.29805 14.6242 7.44102 14.4782 7.61602 14.4782C7.79219 14.4782 7.93398 14.6242 7.93398 14.8029V17H9.47852C9.74531 17 9.96367 16.7774 9.96367 16.5058V12.7055C9.96328 11.3341 8.90586 10.9552 7.84062 10.573ZM7.44648 5.93389H7.67773C7.75508 5.93389 7.82617 5.9666 7.87695 6.01885C7.92773 6.07191 7.96016 6.14331 7.96016 6.22229V6.93591C7.96016 7.01489 7.92812 7.08749 7.87695 7.13935C7.82617 7.1912 7.75508 7.22431 7.67773 7.22431H7.44648V5.93389ZM2.50352 7.22391H2.27227C2.19492 7.22391 2.125 7.1912 2.07305 7.13895C2.02227 7.08709 1.98984 7.01449 1.98984 6.93551V6.22189C1.98984 6.14291 2.02187 6.07151 2.07305 6.01846C2.125 5.9666 2.19492 5.93349 2.27227 5.93349H2.50352V7.22391ZM3.04844 7.47242C3.04844 7.46804 3.04727 7.46325 3.04727 7.45766C3.03945 7.39225 3.03633 7.32443 3.03633 7.25622V5.75359C3.03633 5.73564 3.0375 5.71849 3.03945 5.70054L3.04062 5.69615C3.05273 5.60361 3.09609 5.52104 3.15781 5.45761C3.23203 5.38062 3.33516 5.33316 3.44922 5.33316H3.62656C3.74727 5.33316 3.86367 5.316 3.97773 5.2813C4.08945 5.24739 4.19492 5.19554 4.29648 5.12533L4.60117 4.91831C4.71641 4.83933 4.8457 4.80063 4.97539 4.80063C5.10508 4.80063 5.23438 4.83893 5.34961 4.91831L5.6543 5.12533C5.75625 5.19554 5.86133 5.24739 5.97422 5.2813C6.08711 5.3164 6.20352 5.33316 6.32422 5.33316H6.50234C6.61523 5.33316 6.71836 5.38062 6.79375 5.45761C6.85586 5.52104 6.89766 5.60361 6.91016 5.69615L6.91133 5.70054C6.91367 5.71849 6.91445 5.73564 6.91445 5.75359V7.25622C6.91445 7.32403 6.91133 7.39185 6.90352 7.45966C6.90352 7.46205 6.90352 7.46405 6.90234 7.46764C6.84023 8.03965 6.5293 8.53946 6.08203 8.84821C6.07539 8.8514 6.06992 8.85619 6.06445 8.85938C5.76641 9.06082 5.41016 9.17809 5.02812 9.17809H4.92422C4.54648 9.17809 4.19453 9.06281 3.89883 8.86616C3.89453 8.86297 3.88867 8.86057 3.88438 8.85698C3.7793 8.78558 3.68047 8.70421 3.59219 8.61286C3.29648 8.31289 3.09844 7.9148 3.04844 7.47242ZM6.01172 9.81433L5.05742 10.8171L4.90781 10.8183L3.95352 9.81553C3.96367 9.77723 3.97227 9.73854 3.98008 9.69905C3.99102 9.6448 3.99883 9.58935 4.0043 9.5351C4.28789 9.65477 4.59766 9.72059 4.92344 9.72059H5.02734C5.35742 9.72059 5.67305 9.65278 5.95977 9.52952C5.96523 9.58616 5.97305 9.6436 5.98398 9.70144C5.9918 9.73973 6.00156 9.77683 6.01172 9.81433ZM3.6418 11.8204C3.62305 11.8383 3.59766 11.8431 3.57305 11.8339C3.54883 11.8259 3.5332 11.8044 3.52969 11.7785L3.39336 10.6524C3.38984 10.6277 3.4 10.6037 3.41992 10.589C3.49297 10.5347 3.56055 10.4749 3.62148 10.4079C3.63906 10.3899 3.65586 10.3704 3.67148 10.3512C3.67812 10.3433 3.68711 10.3389 3.6957 10.3389C3.70586 10.3389 3.71445 10.3421 3.72109 10.3488L4.36875 11.0294C4.38086 11.0429 4.3875 11.0601 4.3875 11.0792C4.38633 11.0972 4.37969 11.1143 4.36641 11.1267L3.6418 11.8204ZM5.64062 11.9696L5.38164 12.6241C5.37148 12.6513 5.34727 12.6672 5.31953 12.6672H4.64414C4.61641 12.6672 4.59336 12.6513 4.58203 12.6241L4.32305 11.9696C4.31328 11.9436 4.31992 11.9141 4.33984 11.895L4.9 11.3588L5.06484 11.36L5.62383 11.895C5.64492 11.9141 5.65156 11.9436 5.64062 11.9696ZM6.5707 10.6524L6.43437 11.7785C6.43086 11.8044 6.41445 11.8259 6.39023 11.8339C6.36602 11.8431 6.34141 11.8383 6.32266 11.8204L5.59727 11.1271C5.58398 11.1135 5.57617 11.0976 5.57617 11.0796C5.575 11.0605 5.58164 11.0433 5.59492 11.0298L6.24258 10.3492C6.24922 10.3425 6.25703 10.3393 6.2668 10.3393C6.27656 10.3393 6.28438 10.3437 6.29102 10.3516C6.30781 10.3708 6.32422 10.3899 6.34102 10.4083C6.40313 10.4749 6.46953 10.5347 6.54375 10.5894C6.56406 10.6037 6.57422 10.6273 6.5707 10.6524ZM18.3469 8.13618C18.4918 8.28417 18.5816 8.49 18.5816 8.71617C18.5816 8.94354 18.4918 9.14818 18.3469 9.29617C18.202 9.44535 18.0004 9.5371 17.7789 9.5371C17.5563 9.5371 17.3559 9.44535 17.2098 9.29617C17.0648 9.14818 16.975 8.94354 16.975 8.71617C16.975 8.49 17.0648 8.28417 17.2098 8.13618C17.3559 7.98819 17.5563 7.89525 17.7789 7.89525C18 7.89565 18.2016 7.98819 18.3469 8.13618ZM19.2746 6.08986H11.4504C11.0508 6.08986 10.7238 6.42333 10.7238 6.8306V7.64355C10.7238 7.77798 10.652 7.89326 10.5312 7.9499L9.53906 8.41022C9.41836 8.46567 9.34648 8.58215 9.34648 8.71657C9.34648 8.8522 9.41836 8.96748 9.53906 9.02292L10.5312 9.48325C10.652 9.53989 10.7238 9.65517 10.7238 9.79079V10.6025C10.7238 11.0094 11.0504 11.3433 11.4504 11.3433H19.2746C19.673 11.3433 20 11.0098 20 10.6025V6.8306C20 6.42333 19.673 6.08986 19.2746 6.08986ZM12.3785 9.29656C12.5234 9.44575 12.725 9.5375 12.9465 9.5375C13.0352 9.5375 13.1203 9.52274 13.1988 9.49681C13.2828 9.46849 13.3594 9.4278 13.4258 9.37714C13.5664 9.27104 13.7645 9.30015 13.8688 9.44376C13.9727 9.58736 13.9441 9.7896 13.8035 9.8961C13.6805 9.98984 13.5434 10.0636 13.3984 10.1119C13.2555 10.1606 13.1039 10.1865 12.9465 10.1865C12.5488 10.1865 12.1902 10.0214 11.9289 9.75569C11.6687 9.49003 11.5082 9.12265 11.5082 8.71657C11.5082 8.3105 11.6687 7.94312 11.9289 7.67745C12.1902 7.41179 12.5488 7.24785 12.9465 7.24785C13.1039 7.24785 13.2555 7.27377 13.3984 7.32124C13.5434 7.3711 13.6809 7.4445 13.8035 7.53704C13.9441 7.64315 13.973 7.84579 13.8688 7.98939C13.7648 8.13299 13.5664 8.16251 13.4258 8.05601C13.3594 8.00495 13.2828 7.96426 13.1988 7.93713C13.1203 7.91001 13.0348 7.89525 12.9465 7.89525C12.725 7.89525 12.5234 7.98779 12.3785 8.13618C12.2336 8.28457 12.1426 8.49 12.1426 8.71617C12.1426 8.94354 12.2332 9.14818 12.3785 9.29656ZM15.6516 8.39187C15.8266 8.39187 15.9684 8.53787 15.9684 8.71657C15.9684 8.89647 15.8266 9.04127 15.6516 9.04127H14.9297V9.5375H15.8652C16.0414 9.5375 16.1832 9.68229 16.1832 9.8622C16.1832 10.0409 16.0414 10.1869 15.8652 10.1869H14.6117C14.4367 10.1869 14.2949 10.0409 14.2949 9.8622V7.57135C14.2949 7.39264 14.4367 7.24785 14.6117 7.24785H15.8652C16.0414 7.24785 16.1832 7.39264 16.1832 7.57135C16.1832 7.75125 16.0414 7.89605 15.8652 7.89605H14.9297V8.39227H15.6516V8.39187ZM18.7953 9.75569C18.5352 10.0214 18.1754 10.1865 17.7789 10.1865C17.3813 10.1865 17.0215 10.0214 16.7613 9.75569C16.5012 9.49003 16.3395 9.12265 16.3395 8.71657C16.3395 8.3105 16.5012 7.94312 16.7613 7.67745C17.0215 7.41179 17.3813 7.24785 17.7789 7.24785C18.1754 7.24785 18.5352 7.41179 18.7953 7.67745C19.0566 7.94312 19.2172 8.3105 19.2172 8.71657C19.2172 9.12265 19.0566 9.49003 18.7953 9.75569Z" fill="url(#paint0_linear_6544_104069)"/>
<defs>
<linearGradient id="paint0_linear_6544_104069" x1="0.000117188" y1="9.5" x2="19.9999" y2="9.5" gradientUnits="userSpaceOnUse">
<stop stop-color="#4D62FF"/>
<stop offset="0.193" stop-color="#466AFF"/>
<stop offset="0.492" stop-color="#3480FF"/>
<stop offset="0.8579" stop-color="#17A3FF"/>
<stop offset="1" stop-color="#0AB3FF"/>
</linearGradient>
</defs>
</svg>
