<svg width="12" height="12" viewBox="0 0 12 12" fill="none" xmlns="http://www.w3.org/2000/svg">
<path d="M3.81343 4.92857C3.46777 4.92857 3.18851 5.24777 3.18851 5.64286C3.18851 6.03795 3.46777 6.35714 3.81343 6.35714C4.15909 6.35714 4.43835 6.03795 4.43835 5.64286C4.43835 5.24777 4.15909 4.92857 3.81343 4.92857ZM6.00065 4.92857C5.65499 4.92857 5.37573 5.24777 5.37573 5.64286C5.37573 6.03795 5.65499 6.35714 6.00065 6.35714C6.34631 6.35714 6.62557 6.03795 6.62557 5.64286C6.62557 5.24777 6.34631 4.92857 6.00065 4.92857ZM8.18786 4.92857C7.84221 4.92857 7.56295 5.24777 7.56295 5.64286C7.56295 6.03795 7.84221 6.35714 8.18786 6.35714C8.53352 6.35714 8.81278 6.03795 8.81278 5.64286C8.81278 5.24777 8.53352 4.92857 8.18786 4.92857ZM6.00065 1C3.23929 1 1.0013 3.07812 1.0013 5.64286C1.0013 6.70536 1.38992 7.67857 2.03437 8.46205C1.74339 9.34152 1.138 10.0871 1.12823 10.096C0.999343 10.2522 0.964192 10.4799 1.0384 10.6763C1.11261 10.8728 1.28251 11 1.46999 11C2.671 11 3.61814 10.4263 4.18643 9.96652C4.75081 10.1696 5.36011 10.2857 6.00065 10.2857C8.76201 10.2857 11 8.20759 11 5.64286C11 3.07812 8.76201 1 6.00065 1ZM6.00065 9.21429C5.47923 9.21429 4.96367 9.12277 4.4696 8.9442L4.02629 8.78348L3.64548 9.09152C3.36622 9.31696 2.98346 9.5692 2.52258 9.73884C2.66514 9.46875 2.8038 9.16518 2.9112 8.84152L3.11821 8.21429L2.71592 7.72768C2.36245 7.29688 1.93867 6.58482 1.93867 5.64286C1.93867 3.67411 3.7607 2.07143 6.00065 2.07143C8.24059 2.07143 10.0626 3.67411 10.0626 5.64286C10.0626 7.61161 8.24059 9.21429 6.00065 9.21429Z" fill="#4284F3"/>
</svg>
