<svg width="20" height="20" viewBox="0 0 20 20" fill="none" xmlns="http://www.w3.org/2000/svg">
<path d="M7.33333 3.66667H4.84444C3.84889 3.66667 3.35111 3.66667 2.97067 3.84833C2.63613 4.00807 2.36417 4.26304 2.19378 4.57667C2 4.93333 2 5.4 2 6.33333V14.3333C2 15.2667 2 15.7333 2.19378 16.09C2.36422 16.4036 2.63617 16.6585 2.97067 16.8183C3.35022 17 3.848 17 4.84178 17H13.3804C14.3742 17 14.8711 17 15.2507 16.8183C15.5858 16.6583 15.8578 16.4033 16.0284 16.09C16.2222 15.7333 16.2222 15.2675 16.2222 14.3358V12M12.6667 4.5L7.33333 9.5V12H10L15.3333 7M12.6667 4.5L15.3333 2L18 4.5L15.3333 7M12.6667 4.5L15.3333 7" stroke="#4284F3" stroke-width="1.5" stroke-linecap="round" stroke-linejoin="round"/>
</svg>
