<svg width="24" height="24" viewBox="0 0 24 24" fill="none" xmlns="http://www.w3.org/2000/svg">
<path d="M5.36558 3.1457L9.077 6.85713H2.64843C2.77961 6.06913 3.09377 5.32287 3.56566 4.6783C4.03755 4.03373 4.65403 3.50881 5.36558 3.1457ZM10.3541 2.57141H7.71415C7.55129 2.57141 7.38843 2.57998 7.22557 2.58855L11.4941 6.85713H14.6399L10.3541 2.57141ZM16.2856 2.57141H12.7884L17.0741 6.85713H21.3513C21.1505 5.6589 20.5313 4.57071 19.6038 3.786C18.6762 3.0013 17.5005 2.57093 16.2856 2.57141ZM10.6986 16.8223L14.9843 14.4651C15.1189 14.3913 15.2312 14.2826 15.3094 14.1505C15.3876 14.0185 15.4288 13.8678 15.4288 13.7143C15.4288 13.5608 15.3876 13.4101 15.3094 13.278C15.2312 13.1459 15.1189 13.0373 14.9843 12.9634L10.6986 10.6063C10.5681 10.5345 10.4212 10.498 10.2723 10.5003C10.1234 10.5026 9.97761 10.5437 9.8494 10.6195C9.72119 10.6952 9.61494 10.8031 9.54112 10.9325C9.46731 11.0618 9.42847 11.2082 9.42843 11.3571V16.0714C9.42847 16.2203 9.46731 16.3667 9.54112 16.4961C9.61494 16.6254 9.72119 16.7333 9.8494 16.8091C9.97761 16.8849 10.1234 16.9259 10.2723 16.9283C10.4212 16.9306 10.5681 16.894 10.6986 16.8223ZM21.4284 8.57141V16.2857C21.4273 17.6493 20.8852 18.9568 19.9209 19.921C18.9567 20.8853 17.6492 21.4275 16.2856 21.4286H7.71415C6.35051 21.4275 5.04304 20.8853 4.0788 19.921C3.11456 18.9568 2.57238 17.6493 2.57129 16.2857V8.57141H21.4284Z" fill="#636363"/>
</svg>
