<svg width="20" height="20" viewBox="0 0 20 20" fill="none" xmlns="http://www.w3.org/2000/svg">
<path d="M5.00071 4.31028C4.80999 4.11956 4.50097 4.11956 4.31025 4.31028C4.11953 4.501 4.11953 4.81002 4.31025 5.00074L6.20198 6.89247C6.39273 7.08319 6.70172 7.08319 6.89244 6.89247C7.08316 6.70175 7.08316 6.39273 6.89244 6.20201L5.00071 4.31028ZM13.798 6.89247L15.6897 5.00074C15.8805 4.81002 15.8805 4.501 15.6897 4.31028C15.499 4.11956 15.19 4.11956 14.9993 4.31028L13.1075 6.20201C12.9168 6.39273 12.9168 6.70175 13.1075 6.89247C13.2983 7.08323 13.6073 7.08319 13.798 6.89247ZM13.798 13.1076C13.6073 12.9169 13.2983 12.9169 13.1075 13.1076C12.9168 13.2983 12.9168 13.6073 13.1075 13.798L14.9993 15.6898C15.19 15.8805 15.499 15.8805 15.6897 15.6898C15.8805 15.499 15.8805 15.19 15.6897 14.9993L13.798 13.1076ZM6.20198 13.1076L4.31025 14.9993C4.11953 15.19 4.11953 15.499 4.31025 15.6898C4.501 15.8805 4.80999 15.8805 5.00071 15.6898L6.89244 13.798C7.08316 13.6073 7.08316 13.2983 6.89244 13.1076C6.70172 12.9169 6.39273 12.9168 6.20198 13.1076ZM11.6174 9.14029C11.8291 8.82808 11.9531 8.45178 11.9531 8.0469C11.9531 6.96972 11.0767 6.09377 9.99999 6.09377C8.9233 6.09377 8.04687 6.96972 8.04687 8.0469C8.04687 8.45178 8.17086 8.82808 8.38258 9.14029C7.62128 9.40709 7.07031 10.1251 7.07031 10.9766V11.9532C7.07031 12.4915 7.50803 12.9297 8.04687 12.9297H11.9531C12.492 12.9297 12.9297 12.4915 12.9297 11.9532V10.9766C12.9297 10.1251 12.3787 9.40709 11.6174 9.14029Z" fill="url(#paint0_linear_6544_104059)"/>
<path d="M16.3802 5.57291C17.4574 5.57291 18.3333 4.69696 18.3333 3.61978C18.3333 2.5426 17.4574 1.66666 16.3802 1.66666C15.303 1.66666 14.4271 2.5426 14.4271 3.61978C14.4271 4.69696 15.303 5.57291 16.3802 5.57291ZM16.3802 14.4271C15.303 14.4271 14.4271 15.303 14.4271 16.3802C14.4271 17.4574 15.303 18.3333 16.3802 18.3333C17.4574 18.3333 18.3333 17.4574 18.3333 16.3802C18.3333 15.303 17.4574 14.4271 16.3802 14.4271ZM3.61978 5.57291C4.69696 5.57291 5.57291 4.69696 5.57291 3.61978C5.57291 2.5426 4.69696 1.66666 3.61978 1.66666C2.5426 1.66666 1.66666 2.5426 1.66666 3.61978C1.66666 4.69696 2.5426 5.57291 3.61978 5.57291ZM3.61978 14.4271C2.5426 14.4271 1.66666 15.303 1.66666 16.3802C1.66666 17.4574 2.5426 18.3333 3.61978 18.3333C4.69696 18.3333 5.57291 17.4574 5.57291 16.3802C5.57291 15.303 4.69696 14.4271 3.61978 14.4271ZM9.99999 4.6289C7.03837 4.6289 4.6289 7.03837 4.6289 9.99999C4.6289 12.9616 7.03837 15.3711 9.99999 15.3711C12.9616 15.3711 15.3711 12.9616 15.3711 9.99999C15.3711 7.03837 12.9616 4.6289 9.99999 4.6289ZM12.4414 11.9531C12.4414 12.223 12.223 12.4414 11.9531 12.4414H8.04687C7.77698 12.4414 7.55858 12.223 7.55858 11.9531V10.9766C7.55858 10.1688 8.21568 9.51171 9.02343 9.51171H9.99999C9.19224 9.51171 8.53515 8.85461 8.53515 8.04687C8.53515 7.23912 9.19224 6.58202 9.99999 6.58202C10.8077 6.58202 11.4648 7.23912 11.4648 8.04687C11.4648 8.85461 10.8077 9.51171 9.99999 9.51171H10.9766C11.7843 9.51171 12.4414 10.1688 12.4414 10.9766V11.9531Z" fill="url(#paint1_linear_6544_104059)"/>
<defs>
<linearGradient id="paint0_linear_6544_104059" x1="9.99999" y1="15.8328" x2="9.99999" y2="4.16721" gradientUnits="userSpaceOnUse">
<stop stop-color="#ADDCFF"/>
<stop offset="0.5028" stop-color="#EAF6FF"/>
<stop offset="1" stop-color="#EAF6FF"/>
</linearGradient>
<linearGradient id="paint1_linear_6544_104059" x1="9.99999" y1="18.3333" x2="9.99999" y2="1.66666" gradientUnits="userSpaceOnUse">
<stop stop-color="#5558FF"/>
<stop offset="1" stop-color="#00C0FF"/>
</linearGradient>
</defs>
</svg>
