<svg width="24" height="24" viewBox="0 0 24 24" fill="none" xmlns="http://www.w3.org/2000/svg">
<path fill-rule="evenodd" clip-rule="evenodd" d="M8.12833 2H6.03035C4.87133 2 3.93237 2.93896 3.93237 4.09798V5.72974H5.56413C5.95016 5.72974 6.26346 6.04303 6.26346 6.42906C6.26346 6.81509 5.95016 7.12839 5.56413 7.12839H3.93237V11.3243H5.56413C5.95016 11.3243 6.26346 11.6376 6.26346 12.0237C6.26346 12.4097 5.95016 12.723 5.56413 12.723H3.93237V16.9189H5.56413C5.95016 16.9189 6.26346 17.2322 6.26346 17.6183C6.26346 18.0043 5.95016 18.3176 5.56413 18.3176H3.93237V19.9494C3.93237 21.1084 4.87133 22.0473 6.03035 22.0473H8.12833V2ZM9.52698 2V22.0473H18.6182C19.5199 22.0473 20.25 21.3163 20.25 20.4156C20.25 17.2322 20.25 6.81509 20.25 3.63176C20.25 2.73103 19.5199 2 18.6182 2H9.52698ZM12.5574 12.723H14.4223C14.8083 12.723 15.1216 12.4097 15.1216 12.0237C15.1216 11.6376 14.8083 11.3243 14.4223 11.3243H12.5574C12.1714 11.3243 11.8581 11.6376 11.8581 12.0237C11.8581 12.4097 12.1714 12.723 12.5574 12.723ZM12.5574 9.94807H16.7533C17.1394 9.94807 17.4527 9.63477 17.4527 9.24874C17.4527 8.86271 17.1394 8.54942 16.7533 8.54942H12.5574C12.1714 8.54942 11.8581 8.86271 11.8581 9.24874C11.8581 9.63477 12.1714 9.94807 12.5574 9.94807ZM12.5574 7.12839H16.7533C17.1394 7.12839 17.4527 6.81509 17.4527 6.42906C17.4527 6.04303 17.1394 5.72974 16.7533 5.72974H12.5574C12.1714 5.72974 11.8581 6.04303 11.8581 6.42906C11.8581 6.81509 12.1714 7.12839 12.5574 7.12839Z" fill="#4284F3"/>
<path fill-rule="evenodd" clip-rule="evenodd" d="M3.93243 16.9189H3.69933C3.3133 16.9189 3 17.2322 3 17.6183C3 18.0043 3.3133 18.3176 3.69933 18.3176H3.93243V16.9189Z" fill="#4284F3"/>
<path fill-rule="evenodd" clip-rule="evenodd" d="M3.93243 11.3243H3.69933C3.3133 11.3243 3 11.6376 3 12.0237C3 12.4097 3.3133 12.723 3.69933 12.723H3.93243V11.3243Z" fill="#4284F3"/>
<path fill-rule="evenodd" clip-rule="evenodd" d="M3.93243 5.72974H3.69933C3.3133 5.72974 3 6.04303 3 6.42906C3 6.81509 3.3133 7.12839 3.69933 7.12839H3.93243V5.72974Z" fill="#4284F3"/>
</svg>
