<svg width="20" height="20" viewBox="0 0 20 20" fill="none" xmlns="http://www.w3.org/2000/svg">
<path d="M9.99984 18.3334C3.84734 18.3334 1.6665 16.1525 1.6665 10C1.6665 3.84752 3.84734 1.66669 9.99984 1.66669C10.3448 1.66669 10.6248 1.94669 10.6248 2.29169C10.6248 2.63669 10.3448 2.91669 9.99984 2.91669C4.5715 2.91669 2.9165 4.57169 2.9165 10C2.9165 15.4284 4.5715 17.0834 9.99984 17.0834C15.4282 17.0834 17.0832 15.4284 17.0832 10C17.0832 9.65502 17.3632 9.37502 17.7082 9.37502C18.0532 9.37502 18.3332 9.65502 18.3332 10C18.3332 16.1525 16.1523 18.3334 9.99984 18.3334Z" fill="#4284F3"/>
<path fill-rule="evenodd" clip-rule="evenodd" d="M16.0303 7.82164L16.9125 6.82552C17.8725 5.74135 17.7708 4.07885 16.6875 3.11802C16.1625 2.65302 15.4842 2.41969 14.7875 2.46302C14.0875 2.50552 13.4458 2.81885 12.9808 3.34385L8.0775 8.88385C6.5575 10.5989 7.5975 12.8664 7.6425 12.9622C7.71667 13.1197 7.85333 13.2397 8.01917 13.2914C8.06667 13.3072 8.62 13.4764 9.34917 13.4764C10.17 13.4764 11.2142 13.2605 12.0075 12.3639L15.8977 7.97134C15.9233 7.9503 15.9476 7.9269 15.9703 7.90117C15.9927 7.8759 16.0127 7.84929 16.0303 7.82164ZM8.67333 12.163C9.19583 12.258 10.3492 12.3514 11.0717 11.5355L14.6141 7.53574L12.5545 5.71168L9.01417 9.71302C8.27417 10.5472 8.51 11.6597 8.67333 12.163ZM13.3828 4.77555L15.4433 6.59941L15.9767 5.99719C16.4792 5.42885 16.4267 4.55718 15.8592 4.05469C15.5833 3.81135 15.2258 3.68719 14.8633 3.71052C14.4967 3.73385 14.1608 3.89719 13.9167 4.17219L13.3828 4.77555Z" fill="#4284F3"/>
</svg>
