<svg width="20" height="20" viewBox="0 0 20 20" fill="none" xmlns="http://www.w3.org/2000/svg">
<path d="M9 5.00006L9.5 4.00004L10.5 3.50003L9.5 3.00002L9 2L8.5 3.00002L7.5 3.50003L8.5 4.00004L9 5.00006ZM4.5 7.0001L5.33313 5.3335L7 4.50005L5.33313 3.6666L4.5 2L3.66688 3.6666L2 4.50005L3.66688 5.3335L4.5 7.0001ZM15.5 11.0002L14.6669 12.6668L13 13.5002L14.6669 14.3337L15.5 16.0003L16.3331 14.3337L18 13.5002L16.3331 12.6668L15.5 11.0002ZM17.7069 4.94475L15.0553 2.29313C14.8603 2.0975 14.6044 2 14.3484 2C14.0925 2 13.8366 2.0975 13.6412 2.29313L2.29313 13.6415C1.9025 14.0321 1.9025 14.6652 2.29313 15.0556L4.94469 17.7072C5.14 17.9025 5.39594 18 5.65156 18C5.9075 18 6.16344 17.9025 6.35875 17.7072L17.7069 6.35852C18.0975 5.96852 18.0975 5.33507 17.7069 4.94475ZM13.2328 8.35825L11.6419 6.76728L14.3481 4.06098L15.9391 5.65195L13.2328 8.35825Z" fill="#1F1F1F"/>
</svg>
