<svg width="28" height="28" viewBox="0 0 28 28" fill="none" xmlns="http://www.w3.org/2000/svg">
<path d="M5.24967 24.5C4.60538 24.5 4.08301 23.9776 4.08301 23.3333V4.66667C4.08301 4.02237 4.60538 3.5 5.24967 3.5C5.89397 3.5 6.41634 4.02237 6.41634 4.66667V23.3333C6.41634 23.9776 5.89397 24.5 5.24967 24.5Z" fill="url(#paint0_linear_8938_4114)"/>
<path d="M24.5002 6.41667V19.25C24.5002 19.5708 24.2377 19.8333 23.9168 19.8333H13.4168C13.2418 19.8333 13.0727 19.7517 12.9618 19.6117C12.8511 19.4775 12.8102 19.2967 12.8452 19.1217L15.7618 6.28833C15.826 6.02 16.0593 5.83333 16.3335 5.83333H23.9168C24.2377 5.83333 24.5002 6.09583 24.5002 6.41667Z" fill="url(#paint1_linear_8938_4114)"/>
<path d="M17.103 5.635L14.513 17.045C14.4547 17.3133 14.2213 17.5 13.9472 17.5H8.16634C7.84551 17.5 7.58301 17.2375 7.58301 16.9167V4.08333C7.58301 3.7625 7.84551 3.5 8.16634 3.5H15.3997C15.9305 3.5 16.4322 3.73917 16.7647 4.15917C17.0972 4.57333 17.2255 5.11583 17.103 5.635Z" fill="url(#paint2_linear_8938_4114)"/>
<defs>
<linearGradient id="paint0_linear_8938_4114" x1="5.24967" y1="24.5" x2="5.24967" y2="3.5" gradientUnits="userSpaceOnUse">
<stop stop-color="#1F7CF9"/>
<stop offset="0.9944" stop-color="#00B4FF"/>
</linearGradient>
<linearGradient id="paint1_linear_8938_4114" x1="12.8329" y1="12.8333" x2="24.5002" y2="12.8333" gradientUnits="userSpaceOnUse">
<stop stop-color="#E24429"/>
<stop offset="1" stop-color="#FF872F"/>
</linearGradient>
<linearGradient id="paint2_linear_8938_4114" x1="7.22251" y1="16.548" x2="15.0701" y2="4.16908" gradientUnits="userSpaceOnUse">
<stop stop-color="#E24429"/>
<stop offset="1" stop-color="#FF872F"/>
</linearGradient>
</defs>
</svg>
