<svg width="32" height="32" viewBox="0 0 32 32" fill="none" xmlns="http://www.w3.org/2000/svg">
<path d="M0 8C0 3.58172 3.58172 0 8 0H24C28.4183 0 32 3.58172 32 8V24C32 28.4183 28.4183 32 24 32H8C3.58172 32 0 28.4183 0 24V8Z" fill="white"/>
<path d="M13.0854 21.9243C13.1218 21.9243 13.1513 21.8947 13.1513 21.8583C13.1513 21.8297 13.1329 21.8042 13.1057 21.7955C12.7123 21.6695 12.2932 21.558 11.7012 20.8858C11.0442 20.1398 10.1819 20.2291 9.66741 20.3782C9.43211 20.8856 9.21379 21.4012 9.0127 21.9243H13.0854Z" fill="#E7ECF6"/>
<path d="M13.1057 21.7955C12.7124 21.6694 12.2933 21.558 11.7013 20.8858C11.0483 20.1444 10.1928 20.228 9.67725 20.3755C10.0485 20.4858 10.4212 20.7003 10.7539 21.0781C11.1271 21.5019 11.448 21.756 11.738 21.9243H13.0855C13.1219 21.9243 13.1514 21.8947 13.1514 21.8583C13.1514 21.8297 13.133 21.8042 13.1057 21.7955Z" fill="#D5DFF4"/>
<path d="M24.1607 7.00022C23.2873 7.06396 19.8575 7.39531 16.8405 8.8134C16.7633 8.84972 16.6994 8.90945 16.6571 8.98356L15.2752 11.4025C15.2387 11.4663 15.1417 11.4463 15.1341 11.3731C15.1051 11.0939 15.0741 10.5741 15.1411 9.92381C15.1477 9.86015 15.0776 9.81718 15.0244 9.85287C12.9998 11.2121 10.7339 12.868 9.45005 15.1396C9.41725 15.1976 9.40118 15.2635 9.40185 15.3301C9.40976 16.1196 9.49653 17.1414 9.84306 17.7884C9.86272 17.825 9.81627 17.8615 9.78477 17.8344L8.82747 17.0096C8.78321 16.9714 8.71437 16.9958 8.7033 17.0531C8.29208 19.1888 9.51281 20.5504 9.51281 20.5504L10.1415 20.2765L10.7352 20.3104L12.9804 19.8696C14.5431 19.5627 15.9539 18.8228 17.0771 17.7714C17.1276 17.7242 17.0941 17.6397 17.025 17.6396C15.6827 17.6373 14.7129 17.397 14.2829 17.2657C14.2095 17.2433 14.2126 17.1384 14.2872 17.1198L18.3452 16.1102C18.4226 16.091 18.4898 16.0423 18.5309 15.9739C18.8402 15.4588 19.0962 14.9061 19.2912 14.3228L19.7406 12.9782C20.2666 11.4045 21.1755 9.98608 22.3855 8.8506L24.2179 7.13107C24.2699 7.08224 24.2319 6.99505 24.1607 7.00022Z" fill="#F6F1F1"/>
<path d="M24.1604 7.00022C23.8031 7.02631 23.0179 7.09722 22.0084 7.26888L20.4589 8.72302C19.2317 9.87456 18.31 11.313 17.7765 12.909L17.3208 14.2726C17.123 14.8642 16.8634 15.4247 16.5497 15.9471C16.5081 16.0164 16.4399 16.0658 16.3614 16.0853L12.246 17.1092C12.1704 17.128 12.1672 17.2344 12.2417 17.2572C12.6777 17.3903 13.6612 17.634 15.0225 17.6363C15.0926 17.6364 15.1265 17.7221 15.0753 17.77C13.9362 18.8363 12.5055 19.5866 10.9207 19.8978L9.27393 20.2212C9.40966 20.4358 9.51236 20.5505 9.51236 20.5505L12.98 19.8696C14.5427 19.5627 15.9535 18.8228 17.0769 17.7713C17.1272 17.7241 17.0938 17.6398 17.0248 17.6396C15.6823 17.6373 14.7125 17.397 14.2825 17.2657C14.2091 17.2433 14.2122 17.1384 14.2868 17.1198L18.3448 16.1102C18.4222 16.091 18.4894 16.0423 18.5305 15.9739C18.8398 15.4588 19.0958 14.9061 19.2908 14.3228L19.7402 12.9782C20.2662 11.4045 21.1751 9.98608 22.3851 8.8506L24.2175 7.13111C24.2696 7.08224 24.2316 6.99505 24.1604 7.00022Z" fill="#E7ECF6"/>
<path d="M22.3852 8.85055L24.2175 7.13106C24.2531 7.0977 24.2466 7.04644 24.2162 7.01898L21.5843 8.32767C18.4468 9.88777 15.6673 12.0395 13.3864 14.6431C11.8376 16.411 10.5675 18.4001 9.5957 20.5341L10.1412 20.2765L10.7348 20.3104L12.9801 19.8695C14.5428 19.5627 15.9537 18.8228 17.077 17.7712C17.1274 17.7241 17.0939 17.6397 17.025 17.6396C15.6825 17.6373 14.7127 17.397 14.2827 17.2657C14.2092 17.2433 14.2124 17.1384 14.2869 17.1198L18.3449 16.1102C18.4223 16.0909 18.4896 16.0423 18.5306 15.9739C18.8399 15.4588 19.0959 14.9061 19.2909 14.3227L19.7403 12.9782C20.2663 11.4044 21.1752 9.98603 22.3852 8.85055Z" fill="#E7ECF6"/>
<path d="M24.2162 7.01898L21.5843 8.32771C21.0442 8.59627 20.5151 8.88276 19.9969 9.18566C18.9992 10.2506 18.2408 11.5201 17.7766 12.909L17.3209 14.2726C17.1231 14.8642 16.8634 15.4247 16.5498 15.9471C16.5082 16.0165 16.44 16.0658 16.3615 16.0853L12.2461 17.1092C12.1705 17.128 12.1673 17.2344 12.2418 17.2572C12.6778 17.3903 13.6613 17.634 15.0226 17.6363C15.0927 17.6365 15.1266 17.7222 15.0754 17.77C13.9363 18.8363 12.5056 19.5867 10.9208 19.8978L9.78906 20.1201C9.72339 20.2575 9.65888 20.3955 9.5957 20.5341L12.9801 19.8696C14.5428 19.5628 15.9536 18.8228 17.077 17.7713C17.1273 17.7242 17.0939 17.6398 17.0249 17.6397C15.6824 17.6374 14.7126 17.397 14.2826 17.2658C14.2092 17.2433 14.2123 17.1384 14.2868 17.1199L18.3449 16.1102C18.4223 16.091 18.4895 16.0423 18.5306 15.9739C18.8399 15.4588 19.0959 14.9061 19.2909 14.3228L19.7403 12.9782C20.2663 11.4045 21.1752 9.9861 22.3852 8.85062L24.2176 7.13113C24.2532 7.09773 24.2466 7.04647 24.2162 7.01898Z" fill="#D5DFF4"/>
<path d="M24.0224 24.9999H20.7128C20.2157 24.9999 19.7226 24.836 19.3244 24.5383C18.8476 24.1817 18.2215 24.0679 17.6496 24.2338L16.0885 24.6867C15.3525 24.9002 14.5598 24.7862 13.9138 24.3739L12.9513 23.7597C12.1496 23.248 11.1397 23.2251 10.3155 23.6997L8.17982 24.9298C8.05403 25.0023 7.89326 24.9591 7.82077 24.8332C7.74831 24.7074 7.79155 24.5467 7.91738 24.4742L10.0531 23.244C11.0477 22.6712 12.2667 22.699 13.2342 23.3164L14.1967 23.9307C14.7151 24.2616 15.3512 24.3531 15.942 24.1817L17.5031 23.7288C18.2325 23.5172 19.0311 23.6624 19.6393 24.1172C19.9471 24.3474 20.3284 24.4741 20.7128 24.4741H24.0223C24.1675 24.4741 24.2852 24.5918 24.2852 24.7371C24.2852 24.8823 24.1675 24.9999 24.0224 24.9999Z" fill="#335995"/>
<path d="M19.125 9.71593C19.0458 9.59426 18.8829 9.55984 18.7612 9.63901C16.8818 10.8626 15.1583 12.3194 13.6387 13.9691C13.552 14.0632 13.4655 14.1589 13.3794 14.255V13.4673C13.3794 13.3221 13.2617 13.2044 13.1165 13.2044C12.9713 13.2044 12.8536 13.3221 12.8536 13.4673V14.8612C11.0433 17.0197 9.62206 19.488 8.62594 22.2059L7.73146 24.6465C7.6815 24.7829 7.7515 24.9339 7.88783 24.9839C7.91772 24.9948 7.94823 25 7.97829 25C8.08545 25 8.18613 24.934 8.22516 24.8275L9.11964 22.3869C9.59692 21.0846 10.174 19.8411 10.8463 18.6631H12.1084C12.2536 18.6631 12.3713 18.5454 12.3713 18.4001C12.3713 18.2549 12.2536 18.1372 12.1084 18.1372H11.1551C11.8681 16.9588 12.6792 15.8495 13.5843 14.8164C13.7287 14.6515 13.8772 14.4862 14.0254 14.3253C14.6175 13.6826 15.2415 13.0703 15.8937 12.4898H17.2484C17.3936 12.4898 17.5114 12.3721 17.5114 12.2269C17.5114 12.0816 17.3937 11.9639 17.2484 11.9639H16.5028C17.3126 11.2861 18.1625 10.6562 19.0481 10.0796C19.1698 10.0005 19.2042 9.83761 19.125 9.71593Z" fill="#D5DFF4"/>
</svg>
