<svg width="40" height="40" viewBox="0 0 40 40" fill="none" xmlns="http://www.w3.org/2000/svg">
<rect width="40" height="40" rx="20" fill="black" fill-opacity="0.05"/>
<path d="M17 20.25H15C13.4756 20.2519 12.0141 20.8582 10.9362 21.9362C9.85825 23.0141 9.25185 24.4756 9.25 26C9.25053 26.7292 9.54043 27.4283 10.056 27.944C10.5717 28.4596 11.2708 28.7495 12 28.75H20C20.7292 28.7495 21.4283 28.4596 21.944 27.944C22.4596 27.4283 22.7495 26.7292 22.75 26C22.7481 24.4756 22.1418 23.0141 21.0638 21.9362C19.9859 20.8582 18.5244 20.2519 17 20.25Z" fill="#636363"/>
<path d="M16 19.75C18.6234 19.75 20.75 17.6234 20.75 15C20.75 12.3766 18.6234 10.25 16 10.25C13.3766 10.25 11.25 12.3766 11.25 15C11.25 17.6234 13.3766 19.75 16 19.75Z" fill="#636363"/>
<path d="M30.7498 24C30.7501 24.3612 30.6792 24.719 30.541 25.0527C30.4029 25.3865 30.2004 25.6897 29.945 25.9452C29.6896 26.2006 29.3863 26.4031 29.0525 26.5412C28.7188 26.6793 28.3611 26.7503 27.9998 26.75H23.6698C23.7222 26.5034 23.749 26.2521 23.7498 26C23.7506 24.9098 23.486 23.8358 22.9791 22.8706C22.4721 21.9055 21.7379 21.0781 20.8398 20.46C21.7059 19.6774 22.8326 19.246 23.9998 19.25H25.9998C27.2593 19.2511 28.4669 19.7519 29.3574 20.6424C30.248 21.533 30.7488 22.7406 30.7498 24Z" fill="#636363"/>
<path d="M28.7498 15C28.7488 15.8634 28.4501 16.7001 27.9041 17.369C27.3581 18.0378 26.5982 18.498 25.7525 18.6718C24.9067 18.8457 24.0269 18.7226 23.2613 18.3233C22.4958 17.9241 21.8913 17.273 21.5498 16.48C21.6827 15.9979 21.7499 15.5001 21.7498 15C21.7499 14.5032 21.6827 14.0087 21.5498 13.53C21.8886 12.7348 22.4917 12.081 23.257 11.6793C24.0224 11.2776 24.903 11.1526 25.75 11.3255C26.5969 11.4984 27.358 11.9586 27.9047 12.6282C28.4513 13.2978 28.7499 14.1356 28.7498 15Z" fill="#636363"/>
</svg>
