<svg width="40" height="40" viewBox="0 0 40 40" fill="none" xmlns="http://www.w3.org/2000/svg">
<rect width="40" height="40" rx="20" fill="black" fill-opacity="0.05"/>
<path d="M28.4411 24.3761C27.0803 23.2898 26.3 21.702 26.3 20.0198V17.65C26.3 14.6589 23.9474 12.1828 20.9 11.768V10.85C20.9 10.38 20.4968 10 20 10C19.5032 10 19.1 10.38 19.1 10.85V11.768C16.0517 12.1828 13.7 14.6589 13.7 17.65V20.0198C13.7 21.702 12.9197 23.2898 11.5508 24.3828C11.2007 24.6659 11 25.0773 11 25.5125C11 26.3328 11.7065 27 12.575 27H27.425C28.2935 27 29 26.3328 29 25.5125C29 25.0773 28.7993 24.6659 28.4411 24.3761Z" fill="#636363"/>
<path d="M20 30.4001C21.6299 30.4001 22.9934 29.3027 23.3066 27.8501H16.6934C17.0066 29.3027 18.3701 30.4001 20 30.4001Z" fill="#636363"/>
</svg>
