<svg width="40" height="40" viewBox="0 0 40 40" fill="none" xmlns="http://www.w3.org/2000/svg">
<rect width="40" height="40" rx="20" fill="black" fill-opacity="0.05"/>
<path d="M14.1667 10H10.8333C10.3733 10 10 10.3733 10 10.8333V14.1667C10 14.6267 10.3733 15 10.8333 15H14.1667C14.6267 15 15 14.6267 15 14.1667V10.8333C15 10.3733 14.6267 10 14.1667 10Z" fill="#636363"/>
<path d="M14.1667 17.5H10.8333C10.3733 17.5 10 17.8733 10 18.3333V21.6667C10 22.1267 10.3733 22.5 10.8333 22.5H14.1667C14.6267 22.5 15 22.1267 15 21.6667V18.3333C15 17.8733 14.6267 17.5 14.1667 17.5Z" fill="#636363"/>
<path d="M14.1667 25H10.8333C10.3733 25 10 25.3733 10 25.8333V29.1667C10 29.6267 10.3733 30 10.8333 30H14.1667C14.6267 30 15 29.6267 15 29.1667V25.8333C15 25.3733 14.6267 25 14.1667 25Z" fill="#636363"/>
<path d="M21.6667 10H18.3333C17.8733 10 17.5 10.3733 17.5 10.8333V14.1667C17.5 14.6267 17.8733 15 18.3333 15H21.6667C22.1267 15 22.5 14.6267 22.5 14.1667V10.8333C22.5 10.3733 22.1267 10 21.6667 10Z" fill="#636363"/>
<path d="M21.6667 17.5H18.3333C17.8733 17.5 17.5 17.8733 17.5 18.3333V21.6667C17.5 22.1267 17.8733 22.5 18.3333 22.5H21.6667C22.1267 22.5 22.5 22.1267 22.5 21.6667V18.3333C22.5 17.8733 22.1267 17.5 21.6667 17.5Z" fill="#636363"/>
<path d="M21.6667 25H18.3333C17.8733 25 17.5 25.3733 17.5 25.8333V29.1667C17.5 29.6267 17.8733 30 18.3333 30H21.6667C22.1267 30 22.5 29.6267 22.5 29.1667V25.8333C22.5 25.3733 22.1267 25 21.6667 25Z" fill="#636363"/>
<path d="M29.1667 10H25.8333C25.3733 10 25 10.3733 25 10.8333V14.1667C25 14.6267 25.3733 15 25.8333 15H29.1667C29.6267 15 30 14.6267 30 14.1667V10.8333C30 10.3733 29.6267 10 29.1667 10Z" fill="#636363"/>
<path d="M29.1667 17.5H25.8333C25.3733 17.5 25 17.8733 25 18.3333V21.6667C25 22.1267 25.3733 22.5 25.8333 22.5H29.1667C29.6267 22.5 30 22.1267 30 21.6667V18.3333C30 17.8733 29.6267 17.5 29.1667 17.5Z" fill="#636363"/>
<path d="M29.1667 25H25.8333C25.3733 25 25 25.3733 25 25.8333V29.1667C25 29.6267 25.3733 30 25.8333 30H29.1667C29.6267 30 30 29.6267 30 29.1667V25.8333C30 25.3733 29.6267 25 29.1667 25Z" fill="#636363"/>
</svg>
