<svg width="40" height="40" viewBox="0 0 40 40" fill="none" xmlns="http://www.w3.org/2000/svg">
<rect width="40" height="40" rx="20" fill="black" fill-opacity="0.05"/>
<path d="M21.19 14H14.79C14.53 14 14.28 14.01 14.04 14.04C11.35 14.27 10 15.86 10 18.79V22.79C10 26.79 11.6 27.58 14.79 27.58H15.19C15.41 27.58 15.7 27.73 15.83 27.9L17.03 29.5C17.56 30.21 18.42 30.21 18.95 29.5L20.15 27.9C20.3 27.7 20.54 27.58 20.79 27.58H21.19C24.12 27.58 25.71 26.24 25.94 23.54C25.97 23.3 25.98 23.05 25.98 22.79V18.79C25.98 15.6 24.38 14 21.19 14ZM14.5 22C13.94 22 13.5 21.55 13.5 21C13.5 20.45 13.95 20 14.5 20C15.05 20 15.5 20.45 15.5 21C15.5 21.55 15.05 22 14.5 22ZM17.99 22C17.43 22 16.99 21.55 16.99 21C16.99 20.45 17.44 20 17.99 20C18.54 20 18.99 20.45 18.99 21C18.99 21.55 18.55 22 17.99 22ZM21.49 22C20.93 22 20.49 21.55 20.49 21C20.49 20.45 20.94 20 21.49 20C22.04 20 22.49 20.45 22.49 21C22.49 21.55 22.04 22 21.49 22Z" fill="#636363"/>
<path d="M29.9802 14.79V18.79C29.9802 20.79 29.3602 22.15 28.1202 22.9C27.8202 23.08 27.4702 22.84 27.4702 22.49L27.4802 18.79C27.4802 14.79 25.1902 12.5 21.1902 12.5L15.1002 12.51C14.7502 12.51 14.5102 12.16 14.6902 11.86C15.4402 10.62 16.8002 10 18.7902 10H25.1902C28.3802 10 29.9802 11.6 29.9802 14.79Z" fill="#636363"/>
</svg>
