<svg width="20" height="20" viewBox="0 0 20 20" fill="none" xmlns="http://www.w3.org/2000/svg">
<path fill-rule="evenodd" clip-rule="evenodd" d="M1.66666 15.1396C1.66666 15.55 1.81421 15.9505 2.09025 16.2672C2.42532 16.6522 2.91489 16.8748 3.4305 16.8748H15.4321C16.2984 16.8748 17.0345 16.2547 17.1734 15.4153L18.3105 8.47094C18.3939 7.96747 18.2463 7.45394 17.9095 7.06593C17.6508 6.76836 17.3001 6.56784 16.9164 6.49215C16.7689 5.68296 16.0605 5.06943 15.2081 5.06943H10.144L8.50855 3.43508C8.44432 3.36997 8.35579 3.33334 8.26378 3.33334H3.40274C2.94268 3.33334 2.49997 3.51633 2.17532 3.84184C1.84893 4.16736 1.66666 4.60902 1.66666 5.06943V15.1396ZM16.1907 6.4583C16.0484 6.05379 15.6612 5.76386 15.2081 5.76386H9.99986C9.90785 5.76386 9.81932 5.72723 9.75509 5.66213L8.11967 4.02778H3.40274C3.1267 4.02778 2.86108 4.1375 2.66664 4.33281C2.47047 4.52829 2.36109 4.79322 2.36109 5.06943V10.7622L2.82635 7.91782C2.96524 7.07842 3.70134 6.4583 4.56765 6.4583H16.1907Z" fill="url(#paint0_linear_6544_104084)"/>
<defs>
<linearGradient id="paint0_linear_6544_104084" x1="9.99987" y1="16.9805" x2="9.99987" y2="3.33334" gradientUnits="userSpaceOnUse">
<stop stop-color="#0D7B9D"/>
<stop offset="0.5" stop-color="#16BCEF"/>
<stop offset="1" stop-color="#43F6C3"/>
</linearGradient>
</defs>
</svg>
