<svg width="24" height="24" viewBox="0 0 24 24" fill="none" xmlns="http://www.w3.org/2000/svg">
<path d="M9.21415 12.8571C9.72564 12.8571 10.2162 13.0603 10.5779 13.422C10.9395 13.7837 11.1427 14.2742 11.1427 14.7857V19.5C11.1427 20.0115 10.9395 20.502 10.5779 20.8637C10.2162 21.2254 9.72564 21.4286 9.21415 21.4286H4.49986C3.98837 21.4286 3.49783 21.2254 3.13615 20.8637C2.77448 20.502 2.57129 20.0115 2.57129 19.5V14.7857C2.57129 14.2742 2.77448 13.7837 3.13615 13.422C3.49783 13.0603 3.98837 12.8571 4.49986 12.8571H9.21415ZM19.4999 12.8571C20.0113 12.8571 20.5019 13.0603 20.8636 13.422C21.2252 13.7837 21.4284 14.2742 21.4284 14.7857V19.5C21.4284 20.0115 21.2252 20.502 20.8636 20.8637C20.5019 21.2254 20.0113 21.4286 19.4999 21.4286H14.7856C14.2741 21.4286 13.7835 21.2254 13.4219 20.8637C13.0602 20.502 12.857 20.0115 12.857 19.5V14.7857C12.857 14.2742 13.0602 13.7837 13.4219 13.422C13.7835 13.0603 14.2741 12.8571 14.7856 12.8571H19.4999ZM9.21415 2.57141C9.72564 2.57141 10.2162 2.7746 10.5779 3.13628C10.9395 3.49795 11.1427 3.98849 11.1427 4.49998V9.21427C11.1427 9.72576 10.9395 10.2163 10.5779 10.578C10.2162 10.9397 9.72564 11.1428 9.21415 11.1428H4.49986C3.98837 11.1428 3.49783 10.9397 3.13615 10.578C2.77448 10.2163 2.57129 9.72576 2.57129 9.21427V4.49998C2.57129 3.98849 2.77448 3.49795 3.13615 3.13628C3.49783 2.7746 3.98837 2.57141 4.49986 2.57141H9.21415ZM19.4999 2.57141C20.0113 2.57141 20.5019 2.7746 20.8636 3.13628C21.2252 3.49795 21.4284 3.98849 21.4284 4.49998V9.21427C21.4284 9.72576 21.2252 10.2163 20.8636 10.578C20.5019 10.9397 20.0113 11.1428 19.4999 11.1428H14.7856C14.2741 11.1428 13.7835 10.9397 13.4219 10.578C13.0602 10.2163 12.857 9.72576 12.857 9.21427V4.49998C12.857 3.98849 13.0602 3.49795 13.4219 3.13628C13.7835 2.7746 14.2741 2.57141 14.7856 2.57141H19.4999Z" fill="#636363"/>
</svg>
