<svg width="20" height="20" viewBox="0 0 20 20" fill="none" xmlns="http://www.w3.org/2000/svg">
<path d="M13.0497 2.29286L18.4069 7.47143C18.4587 7.52141 18.5 7.58132 18.5281 7.64759C18.5563 7.71386 18.5708 7.78514 18.5708 7.85715C18.5708 7.92916 18.5563 8.00043 18.5281 8.0667C18.5 8.13297 18.4587 8.19289 18.4069 8.24286L13.0497 13.4214C13.0008 13.4697 12.9427 13.5078 12.879 13.5335C12.8152 13.5593 12.747 13.5721 12.6783 13.5714C12.5362 13.5714 12.4 13.515 12.2995 13.4145C12.199 13.3141 12.1426 13.1778 12.1426 13.0357V10.3643C7.35686 10.5571 5.34258 13.2357 5.25686 13.35C5.18867 13.4398 5.09454 13.5064 4.98723 13.5409C4.87991 13.5754 4.76458 13.5761 4.65686 13.5429C4.54942 13.5082 4.45565 13.4406 4.38895 13.3495C4.32224 13.2584 4.28602 13.1486 4.28544 13.0357C4.28544 7.30715 8.99258 5.55 12.1426 5.37143V2.67857C12.1428 2.57322 12.1741 2.47027 12.2326 2.3826C12.291 2.29494 12.374 2.22646 12.4711 2.18572C12.5673 2.14423 12.6737 2.13226 12.7767 2.15134C12.8797 2.17042 12.9748 2.21967 13.0497 2.29286ZM5.53544 2.85715C4.63559 2.85715 3.77261 3.21461 3.13632 3.85089C2.50004 4.48718 2.14258 5.35016 2.14258 6.25V14.4643C2.14258 15.3641 2.50004 16.2271 3.13632 16.8634C3.77261 17.4997 4.63559 17.8571 5.53544 17.8571H13.7497C14.6496 17.8571 15.5125 17.4997 16.1488 16.8634C16.7851 16.2271 17.1426 15.3641 17.1426 14.4643V14.1071C17.1426 13.9651 17.0861 13.8288 16.9857 13.7283C16.8852 13.6279 16.7489 13.5714 16.6069 13.5714C16.4648 13.5714 16.3285 13.6279 16.2281 13.7283C16.1276 13.8288 16.0711 13.9651 16.0711 14.1071V14.4643C16.0711 15.08 15.8266 15.6704 15.3912 16.1058C14.9559 16.5411 14.3654 16.7857 13.7497 16.7857H5.53544C4.91975 16.7857 4.32929 16.5411 3.89394 16.1058C3.45859 15.6704 3.21401 15.08 3.21401 14.4643V6.25C3.21401 5.63432 3.45859 5.04386 3.89394 4.60851C4.32929 4.17315 4.91975 3.92857 5.53544 3.92857H8.74972C8.8918 3.92857 9.02806 3.87213 9.12853 3.77167C9.22899 3.6712 9.28544 3.53494 9.28544 3.39286C9.28544 3.25078 9.22899 3.11452 9.12853 3.01405C9.02806 2.91359 8.8918 2.85715 8.74972 2.85715H5.53544Z" fill="#1F1F1F"/>
</svg>
