<svg width="28" height="28" viewBox="0 0 28 28" fill="none" xmlns="http://www.w3.org/2000/svg">
<path d="M16.6426 10.3057V9.60892C16.6426 8.02868 17.7624 6.67864 19.1871 6.54799C19.9524 6.47333 20.6927 6.72841 21.2713 7.25101C21.8872 7.81715 22.2418 8.63216 22.2418 9.49071V10.4239C22.2418 11.2825 21.8872 12.0975 21.2713 12.6636C20.7612 13.1302 20.1203 13.3791 19.4422 13.3791C19.3613 13.3791 19.2742 13.3729 19.1871 13.3667C17.7624 13.236 16.6426 11.886 16.6426 10.3057Z" fill="url(#paint0_linear_8938_4091)"/>
<path d="M25.9741 18.9784V19.6005C25.9741 20.627 25.1343 21.4669 24.1077 21.4669H14.7756C13.7491 21.4669 12.9092 20.627 12.9092 19.6005V18.9784C12.9092 16.5769 14.8627 14.6234 17.2642 14.6234H21.6192C24.0206 14.6234 25.9741 16.5769 25.9741 18.9784Z" fill="url(#paint1_linear_8938_4091)"/>
<path d="M17.8865 20.2226V21.4669C17.8865 22.4935 17.0466 23.3333 16.0201 23.3333H4.19943C3.1729 23.3333 2.33301 22.4935 2.33301 21.4669V20.2226C2.33301 17.1368 4.84646 14.6234 7.93228 14.6234H12.2873C15.3731 14.6234 17.8865 17.1368 17.8865 20.2226Z" fill="url(#paint2_linear_8938_4091)"/>
<path d="M6.68848 9.48448V8.56371C6.68848 6.55419 8.18161 4.84953 10.0916 4.68155C11.1492 4.58823 12.1633 4.93663 12.941 5.65209C13.7125 6.35511 14.1542 7.35675 14.1542 8.40195V9.64623C14.1542 10.6914 13.7125 11.6931 12.941 12.3961C12.2442 13.0369 11.3608 13.3791 10.4275 13.3791C10.3156 13.3791 10.2036 13.3729 10.0916 13.3666C8.18161 13.1987 6.68848 11.494 6.68848 9.48448Z" fill="url(#paint3_linear_8938_4091)"/>
<defs>
<linearGradient id="paint0_linear_8938_4091" x1="16.6426" y1="9.95732" x2="22.2418" y2="9.95732" gradientUnits="userSpaceOnUse">
<stop stop-color="#0ABEB0"/>
<stop offset="1" stop-color="#0DDDAD"/>
</linearGradient>
<linearGradient id="paint1_linear_8938_4091" x1="12.9092" y1="18.0451" x2="25.9741" y2="18.0451" gradientUnits="userSpaceOnUse">
<stop stop-color="#0ABEB0"/>
<stop offset="1" stop-color="#0DDDAD"/>
</linearGradient>
<linearGradient id="paint2_linear_8938_4091" x1="10.1098" y1="23.3333" x2="10.1098" y2="5.84495" gradientUnits="userSpaceOnUse">
<stop stop-color="#1F7CF9"/>
<stop offset="0.9944" stop-color="#00B4FF"/>
</linearGradient>
<linearGradient id="paint3_linear_8938_4091" x1="10.4213" y1="22.7112" x2="10.4213" y2="5.22281" gradientUnits="userSpaceOnUse">
<stop stop-color="#1F7CF9"/>
<stop offset="0.9944" stop-color="#00B4FF"/>
</linearGradient>
</defs>
</svg>
