<svg width="24" height="24" viewBox="0 0 24 24" fill="none" xmlns="http://www.w3.org/2000/svg">
<circle cx="12" cy="12" r="12" fill="#3498DB" fill-opacity="0.2"/>
<path d="M12.3333 11.9667C12.6556 11.6111 12.9029 11.2056 13.0753 10.75C13.2473 10.2945 13.3333 9.82224 13.3333 9.33335C13.3333 8.84446 13.2473 8.37224 13.0753 7.91669C12.9029 7.46113 12.6556 7.05558 12.3333 6.70002C13 6.78891 13.5556 7.08335 14 7.58335C14.4444 8.08335 14.6667 8.66669 14.6667 9.33335C14.6667 10 14.4444 10.5834 14 11.0834C13.5556 11.5834 13 11.8778 12.3333 11.9667ZM16 17.3334V15.3334C16 14.9334 15.9111 14.5529 15.7333 14.192C15.5556 13.8307 15.3222 13.5111 15.0333 13.2334C15.6 13.4334 16.1251 13.6916 16.6087 14.008C17.0918 14.3249 17.3333 14.7667 17.3333 15.3334V17.3334H16ZM17.3333 12.6667V11.3334H16V10H17.3333V8.66669H18.6667V10H20V11.3334H18.6667V12.6667H17.3333ZM9.33333 12C8.6 12 7.97222 11.7389 7.45 11.2167C6.92778 10.6945 6.66667 10.0667 6.66667 9.33335C6.66667 8.60002 6.92778 7.97224 7.45 7.45002C7.97222 6.9278 8.6 6.66669 9.33333 6.66669C10.0667 6.66669 10.6944 6.9278 11.2167 7.45002C11.7389 7.97224 12 8.60002 12 9.33335C12 10.0667 11.7389 10.6945 11.2167 11.2167C10.6944 11.7389 10.0667 12 9.33333 12ZM4 17.3334V15.4667C4 15.0889 4.09733 14.7416 4.292 14.4247C4.48622 14.1082 4.74444 13.8667 5.06667 13.7C5.75556 13.3556 6.45556 13.0971 7.16667 12.9247C7.87778 12.7527 8.6 12.6667 9.33333 12.6667C10.0667 12.6667 10.7889 12.7527 11.5 12.9247C12.2111 13.0971 12.9111 13.3556 13.6 13.7C13.9222 13.8667 14.1804 14.1082 14.3747 14.4247C14.5693 14.7416 14.6667 15.0889 14.6667 15.4667V17.3334H4ZM9.33333 10.6667C9.7 10.6667 10.014 10.536 10.2753 10.2747C10.5362 10.0138 10.6667 9.70002 10.6667 9.33335C10.6667 8.96669 10.5362 8.65291 10.2753 8.39202C10.014 8.13069 9.7 8.00002 9.33333 8.00002C8.96667 8.00002 8.65289 8.13069 8.392 8.39202C8.13067 8.65291 8 8.96669 8 9.33335C8 9.70002 8.13067 10.0138 8.392 10.2747C8.65289 10.536 8.96667 10.6667 9.33333 10.6667ZM5.33333 16H13.3333V15.4667C13.3333 15.3445 13.3029 15.2334 13.242 15.1334C13.1807 15.0334 13.1 14.9556 13 14.9C12.4 14.6 11.7944 14.3749 11.1833 14.2247C10.5722 14.0749 9.95556 14 9.33333 14C8.71111 14 8.09444 14.0749 7.48333 14.2247C6.87222 14.3749 6.26667 14.6 5.66667 14.9C5.56667 14.9556 5.48622 15.0334 5.42533 15.1334C5.364 15.2334 5.33333 15.3445 5.33333 15.4667V16Z" fill="#3498DB"/>
</svg>
