<svg width="20" height="21" viewBox="0 0 20 21" fill="none" xmlns="http://www.w3.org/2000/svg">
<path fill-rule="evenodd" clip-rule="evenodd" d="M7.04685 12.8903C7.04685 11.4689 5.8904 10.3123 4.46881 10.3123C3.04723 10.3123 1.89062 11.4689 1.89062 12.8903C1.89062 14.3119 3.04723 15.4685 4.46881 15.4685C5.8904 15.4685 7.04685 14.3119 7.04685 12.8903Z" fill="#636363"/>
<path fill-rule="evenodd" clip-rule="evenodd" d="M4.46878 15.4685C2.00075 15.4685 0 17.4693 0 19.9373C0 20.2696 0.269368 20.539 0.601729 20.539H8.33598C8.66835 20.539 8.93771 20.2696 8.93771 19.9373C8.93771 17.4693 6.93696 15.4685 4.46878 15.4685Z" fill="#636363"/>
<path fill-rule="evenodd" clip-rule="evenodd" d="M14.7813 10.3123C13.3597 10.3123 12.2031 11.4689 12.2031 12.8903C12.2031 14.3119 13.3597 15.4685 14.7813 15.4685C16.2029 15.4685 17.3593 14.3119 17.3593 12.8903C17.3593 11.4689 16.2029 10.3123 14.7813 10.3123Z" fill="#636363"/>
<path fill-rule="evenodd" clip-rule="evenodd" d="M14.7814 15.4685C12.3134 15.4685 10.3125 17.4693 10.3125 19.9373C10.3125 20.2696 10.582 20.539 10.9142 20.539H18.6485C18.9808 20.539 19.2502 20.2696 19.2502 19.9373C19.2502 17.4693 17.2495 15.4685 14.7814 15.4685Z" fill="#636363"/>
<path fill-rule="evenodd" clip-rule="evenodd" d="M14.7813 8.93771C15.8238 8.93771 16.6721 8.08949 16.6721 7.04697V1.89075C16.6721 0.83725 15.8173 0 14.7813 0H4.46903C3.41475 0 2.57812 0.855427 2.57812 1.89075V7.04697C2.57812 8.08949 3.42634 8.93771 4.46903 8.93771H7.4866L9.08698 12.1383C9.18884 12.3422 9.39725 12.471 9.62509 12.471C9.85309 12.471 10.0613 12.3422 10.1634 12.1383L11.7636 8.93771H14.7813ZM10.9141 2.57803C11.2463 2.57803 11.5158 2.84771 11.5158 3.17976C11.5158 3.51197 11.2463 3.78149 10.9141 3.78149C10.5821 3.78149 10.3124 3.51197 10.3124 3.17976C10.3124 2.84771 10.5821 2.57803 10.9141 2.57803ZM8.33608 2.57803C8.66828 2.57803 8.93781 2.84771 8.93781 3.17976C8.93781 3.51197 8.66828 3.78149 8.33608 3.78149C8.00387 3.78149 7.73435 3.51197 7.73435 3.17976C7.73435 2.84771 8.00387 2.57803 8.33608 2.57803ZM9.62509 6.68186C8.67972 6.68186 7.77681 6.2304 7.21003 5.47432C7.01071 5.2084 7.06477 4.83123 7.33069 4.6319C7.59661 4.43258 7.97378 4.48649 8.17295 4.75241C8.51377 5.20699 9.05658 5.4784 9.62509 5.4784C10.1936 5.4784 10.7364 5.20699 11.0772 4.75241C11.2766 4.48649 11.6537 4.43242 11.9197 4.6319C12.1856 4.83123 12.2395 5.2084 12.0402 5.47432C11.4734 6.2304 10.5705 6.68186 9.62509 6.68186Z" fill="#636363"/>
</svg>
