<svg width="24" height="24" viewBox="0 0 24 24" fill="none" xmlns="http://www.w3.org/2000/svg">
<path d="M11.1385 6.09134C11.2473 6.21212 11.3803 6.30869 11.5288 6.3748C11.6774 6.4409 11.8381 6.47506 12.0007 6.47506C12.1633 6.47506 12.324 6.4409 12.4725 6.3748C12.6211 6.30869 12.754 6.21212 12.8628 6.09134L13.4238 5.47585C13.5845 5.29793 13.7964 5.17412 14.0304 5.12142C14.2643 5.06872 14.5088 5.0897 14.7303 5.1815C14.9518 5.27329 15.1395 5.4314 15.2676 5.63411C15.3957 5.83682 15.4579 6.07421 15.4457 6.31369L15.4036 7.14383C15.3955 7.30577 15.4214 7.46762 15.4796 7.61895C15.5378 7.77028 15.6271 7.90775 15.7416 8.02248C15.8562 8.13722 15.9935 8.22669 16.1448 8.28512C16.296 8.34355 16.4578 8.36966 16.6198 8.36175L17.4499 8.31965C17.6893 8.30785 17.9264 8.37036 18.1288 8.4986C18.3312 8.62684 18.489 8.81454 18.5806 9.03598C18.6721 9.25741 18.693 9.50175 18.6402 9.73549C18.5875 9.96924 18.4638 10.181 18.286 10.3416L17.6681 10.899C17.5475 11.008 17.4511 11.141 17.3851 11.2896C17.3191 11.4381 17.285 11.5989 17.285 11.7614C17.285 11.924 17.3191 12.0848 17.3851 12.2333C17.4511 12.3819 17.5475 12.5149 17.6681 12.6239L18.286 13.1813C18.4639 13.342 18.5877 13.5539 18.6404 13.7878C18.6931 14.0218 18.6721 14.2663 18.5803 14.4878C18.4885 14.7093 18.3304 14.897 18.1277 15.0251C17.925 15.1532 17.6876 15.2154 17.4481 15.2032L16.618 15.1611C16.4557 15.1528 16.2935 15.1786 16.1418 15.2369C15.9901 15.2952 15.8523 15.3847 15.7374 15.4997C15.6225 15.6146 15.533 15.7523 15.4747 15.904C15.4164 16.0557 15.3906 16.218 15.3989 16.3803L15.441 17.2104C15.4516 17.4487 15.3886 17.6844 15.2606 17.8857C15.1325 18.0869 14.9456 18.2438 14.7253 18.3352C14.505 18.4265 14.2619 18.4478 14.029 18.3961C13.7961 18.3445 13.5848 18.2224 13.4238 18.0464L12.8658 17.4292C12.7569 17.3086 12.6239 17.2121 12.4754 17.1461C12.3269 17.0801 12.1662 17.046 12.0037 17.046C11.8411 17.046 11.6804 17.0801 11.5319 17.1461C11.3834 17.2121 11.2504 17.3086 11.1415 17.4292L10.5812 18.0464C10.4204 18.2232 10.209 18.3461 9.97578 18.3983C9.74261 18.4505 9.499 18.4295 9.27817 18.3382C9.05735 18.247 8.87005 18.0898 8.74181 17.8882C8.61356 17.6865 8.55062 17.4503 8.56157 17.2116L8.60426 16.3814C8.61261 16.2191 8.58679 16.0569 8.52848 15.9052C8.47016 15.7535 8.38066 15.6158 8.26574 15.5008C8.15083 15.3859 8.01307 15.2964 7.86138 15.2381C7.70969 15.1798 7.54745 15.154 7.38515 15.1623L6.55501 15.2044C6.31563 15.2169 6.07825 15.155 5.87545 15.0272C5.67266 14.8994 5.5144 14.7119 5.4224 14.4906C5.33041 14.2692 5.30918 14.0248 5.36164 13.7909C5.4141 13.557 5.53767 13.3451 5.71539 13.1842L6.33266 12.6269C6.45329 12.5179 6.54972 12.3848 6.61573 12.2363C6.68173 12.0877 6.71583 11.927 6.71583 11.7644C6.71583 11.6019 6.68173 11.4411 6.61573 11.2925C6.54972 11.144 6.45329 11.0109 6.33266 10.902L5.71539 10.3416C5.53825 10.1809 5.41505 9.96945 5.36265 9.7361C5.31024 9.50274 5.33118 9.2589 5.42261 9.03789C5.51403 8.81689 5.67148 8.62951 5.87343 8.50138C6.07538 8.37324 6.31197 8.31061 6.55086 8.32202L7.381 8.36412C7.5436 8.37267 7.70619 8.34692 7.85819 8.28855C8.0102 8.23017 8.14822 8.14047 8.2633 8.02528C8.37838 7.91008 8.46795 7.77197 8.52618 7.61991C8.58441 7.46785 8.61 7.30524 8.60129 7.14264L8.56157 6.31191C8.55036 6.07311 8.61311 5.83667 8.74126 5.63485C8.8694 5.43303 9.05669 5.27566 9.27758 5.18422C9.49847 5.09277 9.74219 5.07171 9.97548 5.12391C10.2088 5.1761 10.4203 5.29901 10.5812 5.47585L11.1385 6.09134Z" stroke="#3498DB" stroke-linecap="round" stroke-linejoin="round"/>
<path d="M12.0003 14.43C13.474 14.43 14.6686 13.2354 14.6686 11.7617C14.6686 10.2881 13.474 9.09344 12.0003 9.09344C10.5267 9.09344 9.33203 10.2881 9.33203 11.7617C9.33203 13.2354 10.5267 14.43 12.0003 14.43Z" stroke="#3498DB" stroke-linecap="round" stroke-linejoin="round"/>
<circle cx="12" cy="12" r="12" fill="#3498DB" fill-opacity="0.2"/>
</svg>
