<svg width="20" height="20" viewBox="0 0 20 20" fill="none" xmlns="http://www.w3.org/2000/svg">
<path fill-rule="evenodd" clip-rule="evenodd" d="M16.1027 11.1252H13.3854L14.0869 8.50713H16.4114C16.7894 8.50713 17.152 8.35696 17.4193 8.08966C17.6866 7.82236 17.8367 7.45982 17.8367 7.0818C17.8367 6.70378 17.6866 6.34124 17.4193 6.07394C17.152 5.80664 16.7894 5.65647 16.4114 5.65647H14.8507L15.2424 4.19491C15.3389 3.83023 15.2868 3.44217 15.0977 3.11579C14.9086 2.7894 14.5977 2.5513 14.2334 2.45367C13.869 2.35604 13.4808 2.40684 13.1538 2.59494C12.8268 2.78304 12.5877 3.09309 12.4889 3.45716L11.8996 5.65647H9.43967L10.0279 3.46081C10.1257 3.09569 10.0745 2.70665 9.88549 2.37929C9.69649 2.05193 9.38518 1.81305 9.02005 1.71522C8.65492 1.61739 8.26589 1.66861 7.93853 1.85762C7.61116 2.04662 7.37229 2.35793 7.27446 2.72306L6.48842 5.65647H3.45415C3.07612 5.65647 2.71359 5.80664 2.44628 6.07394C2.17898 6.34124 2.02881 6.70378 2.02881 7.0818C2.02881 7.45982 2.17898 7.82236 2.44628 8.08966C2.71359 8.35696 3.07612 8.50713 3.45415 8.50713H5.72467L5.02314 11.1252H3.09208C2.71406 11.1252 2.35152 11.2753 2.08422 11.5426C1.81692 11.8099 1.66675 12.1725 1.66675 12.5505C1.66675 12.9285 1.81692 13.2911 2.08422 13.5584C2.35152 13.8257 2.71406 13.9758 3.09208 13.9758H4.2594L3.67594 16.1532C3.62747 16.334 3.61509 16.5226 3.6395 16.7081C3.66392 16.8937 3.72464 17.0727 3.81821 17.2348C3.91178 17.3969 4.03636 17.539 4.18484 17.6529C4.33332 17.7669 4.5028 17.8505 4.68359 17.8989C4.86438 17.9474 5.05295 17.9598 5.23852 17.9354C5.42409 17.911 5.60304 17.8502 5.76515 17.7567C5.92726 17.6631 6.06935 17.5385 6.18331 17.39C6.29727 17.2416 6.38087 17.0721 6.42933 16.8913L7.21052 13.9758H9.67044L8.89028 16.8873C8.79245 17.2524 8.84367 17.6415 9.03267 17.9688C9.22168 18.2962 9.53299 18.5351 9.89811 18.6329C10.2632 18.7307 10.6523 18.6795 10.9796 18.4905C11.307 18.3015 11.5459 17.9902 11.6437 17.6251L12.6216 13.9758H16.1027C16.4807 13.9758 16.8433 13.8256 17.1106 13.5583C17.3779 13.291 17.528 12.9285 17.528 12.5504C17.528 12.1724 17.3779 11.8099 17.1106 11.5426C16.8433 11.2753 16.4807 11.1251 16.1027 11.1251V11.1252ZM10.4342 11.1252H7.97433L8.67586 8.50713H11.1357L10.4342 11.1252Z" fill="url(#paint0_linear_6544_103695)"/>
<defs>
<linearGradient id="paint0_linear_6544_103695" x1="3.05479" y1="16.5398" x2="15.8249" y2="3.76971" gradientUnits="userSpaceOnUse">
<stop stop-color="#E81E25"/>
<stop offset="0.108" stop-color="#EA3522"/>
<stop offset="0.416" stop-color="#F1711C"/>
<stop offset="0.678" stop-color="#F59D17"/>
<stop offset="0.881" stop-color="#F8B814"/>
<stop offset="1" stop-color="#F9C213"/>
</linearGradient>
</defs>
</svg>
