<svg width="24" height="24" viewBox="0 0 24 24" fill="none" xmlns="http://www.w3.org/2000/svg">
<path d="M12.375 2C11.8809 2.0014 11.3876 2.03687 10.8984 2.10616C10.7086 2.13509 10.5378 2.23713 10.4223 2.39045C10.3069 2.54377 10.2561 2.73618 10.2807 2.92651C10.3086 3.09854 10.3967 3.25507 10.5293 3.36819C10.6618 3.48132 10.8303 3.54369 11.0045 3.54419C11.037 3.54577 11.0695 3.54251 11.101 3.53453C11.5232 3.47647 11.9489 3.44745 12.375 3.44767C12.567 3.44767 12.7511 3.37141 12.8868 3.23567C13.0226 3.09992 13.0988 2.91581 13.0988 2.72384C13.0988 2.53186 13.0226 2.34775 12.8868 2.21201C12.7511 2.07626 12.567 2 12.375 2ZM8.89093 3.34151C8.80757 3.16878 8.65979 3.03563 8.47934 2.97067C8.29888 2.90571 8.10014 2.91411 7.92581 2.99407C7.30372 3.293 6.71221 3.65179 6.15965 4.06535C6.00607 4.18053 5.90454 4.35201 5.87739 4.54205C5.85024 4.7321 5.8997 4.92514 6.01488 5.07872C6.081 5.17 6.16816 5.24398 6.26897 5.29438C6.36978 5.34478 6.48126 5.37013 6.59395 5.36826C6.75021 5.36607 6.90194 5.31549 7.02826 5.22349C7.50271 4.86483 8.01386 4.55749 8.55314 4.30663C8.7254 4.22289 8.85758 4.07444 8.92085 3.89366C8.98413 3.71287 8.97337 3.5144 8.89093 3.34151ZM4.99186 6.12105C4.91556 6.06364 4.82857 6.02205 4.73599 5.99871C4.6434 5.97537 4.54709 5.97076 4.4527 5.98515C4.35831 5.99953 4.26774 6.03262 4.18631 6.08247C4.10488 6.13233 4.03422 6.19794 3.97849 6.27547C3.57397 6.83541 3.22489 7.43339 2.93616 8.06093C2.85634 8.23637 2.84907 8.43625 2.91596 8.61703C2.98285 8.7978 3.11846 8.94481 3.29326 9.02605C3.38799 9.06674 3.48941 9.08965 3.59244 9.09361C3.73114 9.09366 3.86689 9.0536 3.98333 8.97825C4.09977 8.90291 4.19194 8.79549 4.24872 8.66895C4.49824 8.12493 4.80219 7.60756 5.15593 7.12477C5.21158 7.04828 5.2515 6.96151 5.27339 6.86949C5.29527 6.77746 5.29869 6.68201 5.28343 6.58866C5.26817 6.4953 5.23454 6.40591 5.18449 6.32564C5.13444 6.24537 5.06897 6.17583 4.99186 6.12105ZM3.52488 11.2265C3.5492 11.0358 3.49677 10.8433 3.37912 10.6912C3.26148 10.5392 3.08825 10.4401 2.89756 10.4158C2.70686 10.3915 2.51432 10.4439 2.36229 10.5616C2.21025 10.6792 2.11118 10.8524 2.08686 11.0431C2.02911 11.4847 2.00009 11.9296 2 12.375C2 12.6259 2.00965 12.8672 2.02895 13.1181C2.04165 13.2989 2.12241 13.4681 2.25494 13.5917C2.38748 13.7153 2.56193 13.784 2.74314 13.7841H2.80105C2.99155 13.7695 3.16854 13.6801 3.29332 13.5354C3.41811 13.3908 3.48054 13.2026 3.46698 13.012C3.45733 12.7997 3.44767 12.5873 3.44767 12.375C3.44937 11.9909 3.47515 11.6074 3.52488 11.2265ZM4.86639 17.2006C4.54125 16.703 4.26952 16.1724 4.0557 15.6178C3.98659 15.4386 3.84913 15.2942 3.67357 15.2164C3.498 15.1386 3.29871 15.1337 3.11953 15.2028C2.94036 15.2719 2.79598 15.4094 2.71815 15.5849C2.64032 15.7605 2.63542 15.9598 2.70453 16.139C2.95559 16.7843 3.27254 17.402 3.65035 17.9823C3.70021 18.0631 3.76573 18.1331 3.84306 18.1881C3.92038 18.2432 4.00795 18.2822 4.10059 18.3029C4.19323 18.3236 4.28907 18.3255 4.38247 18.3086C4.47587 18.2916 4.56493 18.2562 4.64442 18.2043C4.80598 18.0998 4.91987 17.9359 4.96142 17.748C5.00296 17.5601 4.96883 17.3635 4.86639 17.2006ZM8.09953 20.2117C7.57751 19.9233 7.0832 19.5873 6.62291 19.208C6.47701 19.0852 6.28828 19.0253 6.09823 19.0416C5.90819 19.0579 5.7324 19.149 5.60953 19.2949C5.48667 19.4408 5.4268 19.6295 5.44309 19.8196C5.45938 20.0096 5.5505 20.1854 5.6964 20.3083C6.22563 20.7561 6.79783 21.1505 7.40465 21.4857C7.48767 21.5307 7.57873 21.5589 7.67265 21.5687C7.76656 21.5785 7.86149 21.5697 7.952 21.5428C8.04252 21.5159 8.12685 21.4715 8.20019 21.412C8.27352 21.3525 8.33443 21.2792 8.37942 21.1962C8.4728 21.0285 8.49578 20.8306 8.44329 20.646C8.39081 20.4614 8.26716 20.3052 8.09953 20.2117ZM12.375 21.3023C11.7788 21.3029 11.184 21.2447 10.5992 21.1286C10.506 21.1102 10.4102 21.1104 10.3171 21.129C10.224 21.1477 10.1355 21.1845 10.0566 21.2374C9.97774 21.2903 9.91006 21.3582 9.85743 21.4372C9.80481 21.5162 9.76826 21.6049 9.74988 21.698C9.73151 21.7912 9.73166 21.887 9.75033 21.9801C9.769 22.0732 9.80582 22.1617 9.8587 22.2406C9.91157 22.3195 9.97946 22.3871 10.0585 22.4398C10.1375 22.4924 10.2261 22.5289 10.3193 22.5473C10.9961 22.683 11.6847 22.7509 12.375 22.75C12.567 22.75 12.7511 22.6737 12.8868 22.538C13.0226 22.4022 13.0988 22.2181 13.0988 22.0262C13.0988 21.8342 13.0226 21.6501 12.8868 21.5143C12.7511 21.3786 12.567 21.3023 12.375 21.3023Z" fill="#636363"/>
<path d="M12.3752 22.75C12.1832 22.75 11.9991 22.6737 11.8634 22.538C11.7276 22.4022 11.6514 22.2181 11.6514 22.0262C11.6514 21.8342 11.7276 21.6501 11.8634 21.5143C11.9991 21.3786 12.1832 21.3023 12.3752 21.3023C14.7429 21.3023 17.0136 20.3618 18.6878 18.6876C20.362 17.0134 21.3025 14.7427 21.3025 12.375C21.3025 10.0073 20.362 7.73663 18.6878 6.06243C17.0136 4.38823 14.7429 3.44767 12.3752 3.44767C12.1832 3.44767 11.9991 3.37141 11.8634 3.23567C11.7276 3.09992 11.6514 2.91581 11.6514 2.72384C11.6514 2.53186 11.7276 2.34775 11.8634 2.21201C11.9991 2.07626 12.1832 2 12.3752 2C15.1268 2 17.7657 3.09308 19.7114 5.03877C21.6571 6.98446 22.7502 9.62338 22.7502 12.375C22.7502 15.1266 21.6571 17.7655 19.7114 19.7112C17.7657 21.6569 15.1268 22.75 12.3752 22.75Z" fill="#636363"/>
<path d="M12.3752 4.65405C10.8482 4.65405 9.35541 5.10688 8.08571 5.95526C6.81601 6.80365 5.8264 8.0095 5.24202 9.42031C4.65764 10.8311 4.50474 12.3835 4.80266 13.8813C5.10057 15.379 5.83592 16.7547 6.91571 17.8345C7.9955 18.9143 9.37124 19.6496 10.869 19.9476C12.3667 20.2455 13.9191 20.0926 15.3299 19.5082C16.7407 18.9238 17.9466 17.9342 18.7949 16.6645C19.6433 15.3948 20.0962 13.902 20.0962 12.375C20.0962 10.3273 19.2827 8.36342 17.8348 6.91546C16.3868 5.46751 14.4229 4.65405 12.3752 4.65405ZM14.9521 13.6682C14.8912 13.7873 14.7986 13.8873 14.6845 13.9571C14.5704 14.0269 14.4392 14.0639 14.3055 14.0639C14.1919 14.0614 14.0801 14.0351 13.9773 13.9867L12.0471 13.0216C11.9285 12.9601 11.829 12.8673 11.7592 12.7534C11.6895 12.6394 11.6522 12.5086 11.6514 12.375V8.51452C11.6514 8.32254 11.7277 8.13843 11.8634 8.00269C11.9991 7.86694 12.1833 7.79068 12.3752 7.79068C12.5672 7.79068 12.7513 7.86694 12.8871 8.00269C13.0228 8.13843 13.0991 8.32254 13.0991 8.51452V11.931L14.6336 12.6935C14.7191 12.7359 14.7953 12.795 14.8577 12.8672C14.9201 12.9394 14.9675 13.0234 14.9972 13.1141C15.0268 13.2048 15.0381 13.3006 15.0304 13.3957C15.0226 13.4908 14.996 13.5835 14.9521 13.6682Z" fill="#636363"/>
</svg>
