<svg width="40" height="40" viewBox="0 0 40 40" fill="none" xmlns="http://www.w3.org/2000/svg">
<path d="M20 10C14.4863 10 10 14.4863 10 20C10 25.5138 14.4863 30 20 30C25.5138 30 30 25.5138 30 20C30 14.4863 25.5138 10 20 10ZM20.635 13.2487L23.2062 11.8663C24.63 12.43 25.8725 13.3537 26.8175 14.5287L26.205 17.3563L24.2438 18.3175L20.635 15.6888V13.2487ZM16.815 11.8587L19.3862 13.2462V15.6888L15.78 18.3175L13.8087 17.355L13.1962 14.51C14.1437 13.3375 15.3888 12.4188 16.815 11.8587ZM12.7875 24.9425C11.9713 23.755 11.44 22.3588 11.2937 20.85L13.41 18.5513L15.34 19.495L16.7937 23.6238L15.565 25.0962L12.7875 24.9425ZM22.2288 28.4513C21.515 28.64 20.7712 28.75 20 28.75C19.0675 28.75 18.17 28.6 17.3263 28.3288L16.54 25.8813L17.7938 24.375H22.2113L23.4425 25.8325L22.2288 28.4513ZM24.4175 25.0538L23.2088 23.6225L24.6825 19.495L26.6038 18.5538L28.7075 20.8512C28.5812 22.1525 28.1625 23.3663 27.5262 24.44L24.4175 25.0538Z" fill="#636363"/>
</svg>
