<svg width="40" height="40" viewBox="0 0 40 40" fill="none" xmlns="http://www.w3.org/2000/svg">
<path fill-rule="evenodd" clip-rule="evenodd" d="M17.0468 22.8903C17.0468 21.4689 15.8904 20.3123 14.4688 20.3123C13.0472 20.3123 11.8906 21.4689 11.8906 22.8903C11.8906 24.3119 13.0472 25.4685 14.4688 25.4685C15.8904 25.4685 17.0468 24.3119 17.0468 22.8903Z" fill="#636363"/>
<path fill-rule="evenodd" clip-rule="evenodd" d="M14.4688 25.4685C12.0007 25.4685 10 27.4693 10 29.9373C10 30.2696 10.2694 30.539 10.6017 30.539H18.336C18.6683 30.539 18.9377 30.2696 18.9377 29.9373C18.9377 27.4693 16.937 25.4685 14.4688 25.4685Z" fill="#636363"/>
<path fill-rule="evenodd" clip-rule="evenodd" d="M24.7813 20.3123C23.3597 20.3123 22.2031 21.4689 22.2031 22.8903C22.2031 24.3119 23.3597 25.4685 24.7813 25.4685C26.2029 25.4685 27.3593 24.3119 27.3593 22.8903C27.3593 21.4689 26.2029 20.3123 24.7813 20.3123Z" fill="#636363"/>
<path fill-rule="evenodd" clip-rule="evenodd" d="M24.7814 25.4685C22.3134 25.4685 20.3125 27.4693 20.3125 29.9373C20.3125 30.2696 20.582 30.539 20.9142 30.539H28.6485C28.9808 30.539 29.2502 30.2696 29.2502 29.9373C29.2502 27.4693 27.2495 25.4685 24.7814 25.4685Z" fill="#636363"/>
<path fill-rule="evenodd" clip-rule="evenodd" d="M24.7813 18.9377C25.8238 18.9377 26.6721 18.0895 26.6721 17.047V11.8907C26.6721 10.8372 25.8173 10 24.7813 10H14.469C13.4147 10 12.5781 10.8554 12.5781 11.8907V17.047C12.5781 18.0895 13.4263 18.9377 14.469 18.9377H17.4866L19.087 22.1383C19.1888 22.3422 19.3973 22.471 19.6251 22.471C19.8531 22.471 20.0613 22.3422 20.1634 22.1383L21.7636 18.9377H24.7813ZM20.9141 12.578C21.2463 12.578 21.5158 12.8477 21.5158 13.1798C21.5158 13.512 21.2463 13.7815 20.9141 13.7815C20.5821 13.7815 20.3124 13.512 20.3124 13.1798C20.3124 12.8477 20.5821 12.578 20.9141 12.578ZM18.3361 12.578C18.6683 12.578 18.9378 12.8477 18.9378 13.1798C18.9378 13.512 18.6683 13.7815 18.3361 13.7815C18.0039 13.7815 17.7343 13.512 17.7343 13.1798C17.7343 12.8477 18.0039 12.578 18.3361 12.578ZM19.6251 16.6819C18.6797 16.6819 17.7768 16.2304 17.21 15.4743C17.0107 15.2084 17.0648 14.8312 17.3307 14.6319C17.5966 14.4326 17.9738 14.4865 18.173 14.7524C18.5138 15.207 19.0566 15.4784 19.6251 15.4784C20.1936 15.4784 20.7364 15.207 21.0772 14.7524C21.2766 14.4865 21.6537 14.4324 21.9197 14.6319C22.1856 14.8312 22.2395 15.2084 22.0402 15.4743C21.4734 16.2304 20.5705 16.6819 19.6251 16.6819Z" fill="#636363"/>
</svg>
