<svg width="40" height="40" viewBox="0 0 40 40" fill="none" xmlns="http://www.w3.org/2000/svg">
<path d="M13.3656 11.1457L17.077 14.8571H10.6484C10.7796 14.0691 11.0938 13.3229 11.5657 12.6783C12.0375 12.0337 12.654 11.5088 13.3656 11.1457ZM18.3541 10.5714H15.7141C15.5513 10.5714 15.3884 10.58 15.2256 10.5886L19.4941 14.8571H22.6399L18.3541 10.5714ZM24.2856 10.5714H20.7884L25.0741 14.8571H29.3513C29.1505 13.6589 28.5313 12.5707 27.6038 11.786C26.6762 11.0013 25.5005 10.5709 24.2856 10.5714ZM18.6986 24.8223L22.9843 22.4651C23.1189 22.3913 23.2312 22.2826 23.3094 22.1505C23.3876 22.0185 23.4288 21.8678 23.4288 21.7143C23.4288 21.5608 23.3876 21.4101 23.3094 21.278C23.2312 21.1459 23.1189 21.0373 22.9843 20.9634L18.6986 18.6063C18.5681 18.5345 18.4212 18.498 18.2723 18.5003C18.1234 18.5026 17.9776 18.5437 17.8494 18.6195C17.7212 18.6952 17.6149 18.8031 17.5411 18.9325C17.4673 19.0618 17.4285 19.2082 17.4284 19.3571V24.0714C17.4285 24.2203 17.4673 24.3667 17.5411 24.4961C17.6149 24.6254 17.7212 24.7333 17.8494 24.8091C17.9776 24.8849 18.1234 24.9259 18.2723 24.9283C18.4212 24.9306 18.5681 24.894 18.6986 24.8223ZM29.4284 16.5714V24.2857C29.4273 25.6493 28.8852 26.9568 27.9209 27.921C26.9567 28.8853 25.6492 29.4275 24.2856 29.4286H15.7141C14.3505 29.4275 13.043 28.8853 12.0788 27.921C11.1146 26.9568 10.5724 25.6493 10.5713 24.2857V16.5714H29.4284Z" fill="#636363"/>
</svg>
