<svg width="40" height="40" viewBox="0 0 40 40" fill="none" xmlns="http://www.w3.org/2000/svg">
<path d="M0 8C0 3.58172 3.58172 0 8 0H32C36.4183 0 40 3.58172 40 8V32C40 36.4183 36.4183 40 32 40H8C3.58172 40 0 36.4183 0 32V8Z" fill="#3498DB" fill-opacity="0.2"/>
<path fill-rule="evenodd" clip-rule="evenodd" d="M16.1286 10H14.0306C12.8716 10 11.9326 10.939 11.9326 12.098V13.7297H13.5644C13.9504 13.7297 14.2637 14.043 14.2637 14.4291C14.2637 14.8151 13.9504 15.1284 13.5644 15.1284H11.9326V19.3243H13.5644C13.9504 19.3243 14.2637 19.6376 14.2637 20.0237C14.2637 20.4097 13.9504 20.723 13.5644 20.723H11.9326V24.9189H13.5644C13.9504 24.9189 14.2637 25.2322 14.2637 25.6183C14.2637 26.0043 13.9504 26.3176 13.5644 26.3176H11.9326V27.9494C11.9326 29.1084 12.8716 30.0473 14.0306 30.0473H16.1286V10ZM17.5272 10V30.0473H26.6185C27.5201 30.0473 28.2502 29.3163 28.2502 28.4156C28.2502 25.2322 28.2502 14.8151 28.2502 11.6318C28.2502 10.731 27.5201 10 26.6185 10H17.5272ZM20.5576 20.723H22.4225C22.8085 20.723 23.1218 20.4097 23.1218 20.0237C23.1218 19.6376 22.8085 19.3243 22.4225 19.3243H20.5576C20.1716 19.3243 19.8583 19.6376 19.8583 20.0237C19.8583 20.4097 20.1716 20.723 20.5576 20.723ZM20.5576 17.9481H24.7536C25.1396 17.9481 25.4529 17.6348 25.4529 17.2487C25.4529 16.8627 25.1396 16.5494 24.7536 16.5494H20.5576C20.1716 16.5494 19.8583 16.8627 19.8583 17.2487C19.8583 17.6348 20.1716 17.9481 20.5576 17.9481ZM20.5576 15.1284H24.7536C25.1396 15.1284 25.4529 14.8151 25.4529 14.4291C25.4529 14.043 25.1396 13.7297 24.7536 13.7297H20.5576C20.1716 13.7297 19.8583 14.043 19.8583 14.4291C19.8583 14.8151 20.1716 15.1284 20.5576 15.1284Z" fill="#4284F3"/>
<path fill-rule="evenodd" clip-rule="evenodd" d="M11.9324 24.9189H11.6993C11.3133 24.9189 11 25.2322 11 25.6183C11 26.0043 11.3133 26.3176 11.6993 26.3176H11.9324V24.9189Z" fill="#4284F3"/>
<path fill-rule="evenodd" clip-rule="evenodd" d="M11.9324 19.3243H11.6993C11.3133 19.3243 11 19.6376 11 20.0237C11 20.4097 11.3133 20.723 11.6993 20.723H11.9324V19.3243Z" fill="#4284F3"/>
<path fill-rule="evenodd" clip-rule="evenodd" d="M11.9324 13.7297H11.6993C11.3133 13.7297 11 14.043 11 14.4291C11 14.8151 11.3133 15.1284 11.6993 15.1284H11.9324V13.7297Z" fill="#4284F3"/>
</svg>
