<svg width="40" height="40" viewBox="0 0 40 40" fill="none" xmlns="http://www.w3.org/2000/svg">
<path d="M29.0754 13.5991C30.0693 13.5991 30.875 12.7934 30.875 11.7996C30.875 10.8057 30.0693 10 29.0754 10C28.0816 10 27.2759 10.8057 27.2759 11.7996C27.2759 12.7934 28.0816 13.5991 29.0754 13.5991Z" fill="#636363"/>
<path d="M29.0754 30.875C30.0693 30.875 30.875 30.0693 30.875 29.0754C30.875 28.0816 30.0693 27.2759 29.0754 27.2759C28.0816 27.2759 27.2759 28.0816 27.2759 29.0754C27.2759 30.0693 28.0816 30.875 29.0754 30.875Z" fill="#636363"/>
<path d="M11.7996 13.5991C12.7934 13.5991 13.5991 12.7934 13.5991 11.7996C13.5991 10.8057 12.7934 10 11.7996 10C10.8057 10 10 10.8057 10 11.7996C10 12.7934 10.8057 13.5991 11.7996 13.5991Z" fill="#636363"/>
<path d="M20.4377 13.959C21.2328 13.959 21.8774 13.3145 21.8774 12.5194C21.8774 11.7243 21.2328 11.0797 20.4377 11.0797C19.6426 11.0797 18.998 11.7243 18.998 12.5194C18.998 13.3145 19.6426 13.959 20.4377 13.959Z" fill="#636363"/>
<path d="M11.7996 30.875C12.7934 30.875 13.5991 30.0693 13.5991 29.0754C13.5991 28.0816 12.7934 27.2759 11.7996 27.2759C10.8057 27.2759 10 28.0816 10 29.0754C10 30.0693 10.8057 30.875 11.7996 30.875Z" fill="#636363"/>
<path d="M20.4377 29.7953C21.2328 29.7953 21.8774 29.1507 21.8774 28.3556C21.8774 27.5605 21.2328 26.916 20.4377 26.916C19.6426 26.916 18.998 27.5605 18.998 28.3556C18.998 29.1507 19.6426 29.7953 20.4377 29.7953Z" fill="#636363"/>
<path d="M12.5192 21.8772C13.3143 21.8772 13.9589 21.2326 13.9589 20.4375C13.9589 19.6424 13.3143 18.9979 12.5192 18.9979C11.7241 18.9979 11.0796 19.6424 11.0796 20.4375C11.0796 21.2326 11.7241 21.8772 12.5192 21.8772Z" fill="#636363"/>
<path d="M28.3557 21.8772C29.1508 21.8772 29.7953 21.2326 29.7953 20.4375C29.7953 19.6424 29.1508 18.9979 28.3557 18.9979C27.5606 18.9979 26.916 19.6424 26.916 20.4375C26.916 21.2326 27.5606 21.8772 28.3557 21.8772Z" fill="#636363"/>
<path d="M25.0026 16.3814L27.5695 13.8145C27.3765 13.6698 27.2053 13.4986 27.0606 13.3055L24.4937 15.8725C24.6731 16.0321 24.843 16.202 25.0026 16.3814Z" fill="#636363"/>
<path d="M24.4937 25.0025L27.0606 27.5694C27.2053 27.3764 27.3765 27.2052 27.5695 27.0605L25.0026 24.4935C24.843 24.673 24.6731 24.8429 24.4937 25.0025Z" fill="#636363"/>
<path d="M16.3815 15.8725L13.8146 13.3055C13.6699 13.4986 13.4987 13.6698 13.3057 13.8145L15.8726 16.3814C16.0322 16.202 16.2021 16.0321 16.3815 15.8725Z" fill="#636363"/>
<path d="M15.8726 24.4935L13.3057 27.0605C13.4987 27.2051 13.6699 27.3764 13.8146 27.5694L16.3815 25.0025C16.2021 24.8429 16.0322 24.673 15.8726 24.4935Z" fill="#636363"/>
<path d="M19.3574 21.9614L21.8972 20.4375L19.3574 18.9137V21.9614Z" fill="#636363"/>
<path d="M20.4373 15.0388C17.4604 15.0388 15.0386 17.4607 15.0386 20.4375C15.0386 23.4144 17.4604 25.8362 20.4373 25.8362C23.4143 25.8362 25.836 23.4144 25.836 20.4375C25.836 17.4607 23.4143 15.0388 20.4373 15.0388ZM22.782 20.7461L19.1829 22.9056C19.1259 22.9399 19.0618 22.9569 18.9976 22.9569C18.9365 22.9569 18.8753 22.9415 18.8203 22.9102C18.7075 22.8464 18.6377 22.7267 18.6377 22.597V18.278C18.6377 18.1483 18.7075 18.0287 18.8203 17.9649C18.9331 17.9007 19.0714 17.9025 19.1829 17.9694L22.782 20.1289C22.8902 20.194 22.9567 20.3112 22.9567 20.4375C22.9567 20.5639 22.8902 20.6811 22.782 20.7461Z" fill="#636363"/>
</svg>
