<svg width="40" height="40" viewBox="0 0 40 40" fill="none" xmlns="http://www.w3.org/2000/svg">
<path d="M20.375 10C19.8809 10.0014 19.3876 10.0369 18.8984 10.1062C18.7086 10.1351 18.5378 10.2371 18.4223 10.3904C18.3069 10.5438 18.2561 10.7362 18.2807 10.9265C18.3086 11.0985 18.3967 11.2551 18.5293 11.3682C18.6618 11.4813 18.8303 11.5437 19.0045 11.5442C19.037 11.5458 19.0695 11.5425 19.101 11.5345C19.5232 11.4765 19.9489 11.4474 20.375 11.4477C20.567 11.4477 20.7511 11.3714 20.8868 11.2357C21.0226 11.0999 21.0988 10.9158 21.0988 10.7238C21.0988 10.5319 21.0226 10.3478 20.8868 10.212C20.7511 10.0763 20.567 10 20.375 10ZM16.8909 11.3415C16.8076 11.1688 16.6598 11.0356 16.4793 10.9707C16.2989 10.9057 16.1001 10.9141 15.9258 10.9941C15.3037 11.293 14.7122 11.6518 14.1597 12.0653C14.0061 12.1805 13.9045 12.352 13.8774 12.5421C13.8502 12.7321 13.8997 12.9251 14.0149 13.0787C14.081 13.17 14.1682 13.244 14.269 13.2944C14.3698 13.3448 14.4813 13.3701 14.594 13.3683C14.7502 13.3661 14.9019 13.3155 15.0283 13.2235C15.5027 12.8648 16.0139 12.5575 16.5531 12.3066C16.7254 12.2229 16.8576 12.0744 16.9209 11.8937C16.9841 11.7129 16.9734 11.5144 16.8909 11.3415ZM12.9919 14.121C12.9156 14.0636 12.8286 14.022 12.736 13.9987C12.6434 13.9754 12.5471 13.9708 12.4527 13.9851C12.3583 13.9995 12.2677 14.0326 12.1863 14.0825C12.1049 14.1323 12.0342 14.1979 11.9785 14.2755C11.574 14.8354 11.2249 15.4334 10.9362 16.0609C10.8563 16.2364 10.8491 16.4363 10.916 16.617C10.9828 16.7978 11.1185 16.9448 11.2933 17.026C11.388 17.0667 11.4894 17.0896 11.5924 17.0936C11.7311 17.0937 11.8669 17.0536 11.9833 16.9783C12.0998 16.9029 12.1919 16.7955 12.2487 16.669C12.4982 16.1249 12.8022 15.6076 13.1559 15.1248C13.2116 15.0483 13.2515 14.9615 13.2734 14.8695C13.2953 14.7775 13.2987 14.682 13.2834 14.5887C13.2682 14.4953 13.2345 14.4059 13.1845 14.3256C13.1344 14.2454 13.069 14.1758 12.9919 14.121ZM11.5249 19.2265C11.5492 19.0358 11.4968 18.8433 11.3791 18.6912C11.2615 18.5392 11.0883 18.4401 10.8976 18.4158C10.7069 18.3915 10.5143 18.4439 10.3623 18.5616C10.2103 18.6792 10.1112 18.8524 10.0869 19.0431C10.0291 19.4847 10.0001 19.9296 10 20.375C10 20.6259 10.0097 20.8672 10.029 21.1181C10.0417 21.2989 10.1224 21.4681 10.2549 21.5917C10.3875 21.7153 10.5619 21.784 10.7431 21.7841H10.801C10.9915 21.7695 11.1685 21.6801 11.2933 21.5354C11.4181 21.3908 11.4805 21.2026 11.467 21.012C11.4573 20.7997 11.4477 20.5873 11.4477 20.375C11.4494 19.9909 11.4752 19.6074 11.5249 19.2265ZM12.8664 25.2006C12.5413 24.703 12.2695 24.1724 12.0557 23.6178C11.9866 23.4386 11.8491 23.2942 11.6736 23.2164C11.498 23.1386 11.2987 23.1337 11.1195 23.2028C10.9404 23.2719 10.796 23.4094 10.7181 23.5849C10.6403 23.7605 10.6354 23.9598 10.7045 24.139C10.9556 24.7843 11.2725 25.402 11.6503 25.9823C11.7002 26.0631 11.7657 26.1331 11.8431 26.1881C11.9204 26.2432 12.0079 26.2822 12.1006 26.3029C12.1932 26.3236 12.2891 26.3255 12.3825 26.3086C12.4759 26.2916 12.5649 26.2562 12.6444 26.2043C12.806 26.0998 12.9199 25.9359 12.9614 25.748C13.003 25.5601 12.9688 25.3635 12.8664 25.2006ZM16.0995 28.2117C15.5775 27.9233 15.0832 27.5873 14.6229 27.208C14.477 27.0852 14.2883 27.0253 14.0982 27.0416C13.9082 27.0579 13.7324 27.149 13.6095 27.2949C13.4867 27.4408 13.4268 27.6295 13.4431 27.8196C13.4594 28.0096 13.5505 28.1854 13.6964 28.3083C14.2256 28.7561 14.7978 29.1505 15.4047 29.4857C15.4877 29.5307 15.5787 29.5589 15.6726 29.5687C15.7666 29.5785 15.8615 29.5697 15.952 29.5428C16.0425 29.5159 16.1269 29.4715 16.2002 29.412C16.2735 29.3525 16.3344 29.2792 16.3794 29.1962C16.4728 29.0285 16.4958 28.8306 16.4433 28.646C16.3908 28.4614 16.2672 28.3052 16.0995 28.2117ZM20.375 29.3023C19.7788 29.3029 19.184 29.2447 18.5992 29.1286C18.506 29.1102 18.4102 29.1104 18.3171 29.129C18.224 29.1477 18.1355 29.1845 18.0566 29.2374C17.9777 29.2903 17.9101 29.3582 17.8574 29.4372C17.8048 29.5162 17.7683 29.6049 17.7499 29.698C17.7315 29.7912 17.7317 29.887 17.7503 29.9801C17.769 30.0732 17.8058 30.1617 17.8587 30.2406C17.9116 30.3195 17.9795 30.3871 18.0585 30.4398C18.1375 30.4924 18.2261 30.5289 18.3193 30.5473C18.9961 30.683 19.6847 30.7509 20.375 30.75C20.567 30.75 20.7511 30.6737 20.8868 30.538C21.0226 30.4022 21.0988 30.2181 21.0988 30.0262C21.0988 29.8342 21.0226 29.6501 20.8868 29.5143C20.7511 29.3786 20.567 29.3023 20.375 29.3023Z" fill="#636363"/>
<path d="M20.3752 30.75C20.1832 30.75 19.9991 30.6737 19.8634 30.538C19.7276 30.4022 19.6514 30.2181 19.6514 30.0262C19.6514 29.8342 19.7276 29.6501 19.8634 29.5143C19.9991 29.3786 20.1832 29.3023 20.3752 29.3023C22.7429 29.3023 25.0136 28.3618 26.6878 26.6876C28.362 25.0134 29.3025 22.7427 29.3025 20.375C29.3025 18.0073 28.362 15.7366 26.6878 14.0624C25.0136 12.3882 22.7429 11.4477 20.3752 11.4477C20.1832 11.4477 19.9991 11.3714 19.8634 11.2357C19.7276 11.0999 19.6514 10.9158 19.6514 10.7238C19.6514 10.5319 19.7276 10.3478 19.8634 10.212C19.9991 10.0763 20.1832 10 20.3752 10C23.1268 10 25.7657 11.0931 27.7114 13.0388C29.6571 14.9845 30.7502 17.6234 30.7502 20.375C30.7502 23.1266 29.6571 25.7655 27.7114 27.7112C25.7657 29.6569 23.1268 30.75 20.3752 30.75Z" fill="#636363"/>
<path d="M20.3752 12.6541C18.8482 12.6541 17.3554 13.1069 16.0857 13.9553C14.816 14.8037 13.8264 16.0095 13.242 17.4203C12.6576 18.8311 12.5047 20.3835 12.8027 21.8813C13.1006 23.379 13.8359 24.7547 14.9157 25.8345C15.9955 26.9143 17.3712 27.6496 18.869 27.9476C20.3667 28.2455 21.9191 28.0926 23.3299 27.5082C24.7407 26.9238 25.9466 25.9342 26.7949 24.6645C27.6433 23.3948 28.0962 21.902 28.0962 20.375C28.0962 18.3273 27.2827 16.3634 25.8348 14.9155C24.3868 13.4675 22.4229 12.6541 20.3752 12.6541ZM22.9521 21.6682C22.8912 21.7873 22.7986 21.8873 22.6845 21.9571C22.5704 22.0269 22.4392 22.0639 22.3055 22.0639C22.1919 22.0614 22.0801 22.0351 21.9773 21.9867L20.0471 21.0216C19.9285 20.9601 19.829 20.8673 19.7592 20.7534C19.6895 20.6394 19.6522 20.5086 19.6514 20.375V16.5145C19.6514 16.3225 19.7277 16.1384 19.8634 16.0027C19.9991 15.8669 20.1833 15.7907 20.3752 15.7907C20.5672 15.7907 20.7513 15.8669 20.8871 16.0027C21.0228 16.1384 21.0991 16.3225 21.0991 16.5145V19.931L22.6336 20.6935C22.7191 20.7359 22.7953 20.795 22.8577 20.8672C22.9201 20.9394 22.9675 21.0234 22.9972 21.1141C23.0268 21.2048 23.0381 21.3006 23.0304 21.3957C23.0226 21.4908 22.996 21.5835 22.9521 21.6682Z" fill="#636363"/>
</svg>
