<svg width="40" height="40" viewBox="0 0 40 40" fill="none" xmlns="http://www.w3.org/2000/svg">
<path d="M23.0376 10.9766C22.7482 10.7973 22.4172 10.6964 22.077 10.6837C21.7368 10.6711 21.3992 10.7471 21.0972 10.9043C19.3794 11.7886 17.5796 12.5035 15.7232 13.0391C14.7794 13.3105 13.8087 13.5391 12.8394 13.7168C12.0389 13.8663 11.3162 14.2919 10.7974 14.9196C10.2785 15.5472 9.99632 16.337 10 17.1514V18.8486C9.9963 19.6629 10.2784 20.4527 10.7972 21.0803C11.3159 21.7079 12.0385 22.1336 12.8389 22.2832C13.8086 22.4609 14.7793 22.6894 15.7232 22.9609C17.5797 23.4966 19.3797 24.2115 21.0977 25.0957C21.3996 25.2528 21.7371 25.3287 22.0772 25.316C22.4173 25.3033 22.7483 25.2025 23.0376 25.0234C23.3324 24.8456 23.576 24.5945 23.7447 24.2944C23.9133 23.9944 24.0013 23.6557 24 23.3115V12.6885C24.0013 12.3443 23.9133 12.0056 23.7447 11.7056C23.576 11.4055 23.3324 11.1543 23.0376 10.9766Z" fill="#636363"/>
<path d="M18.18 29.16C17.8622 29.5187 17.4478 29.7783 16.9863 29.9076C16.5249 30.0369 16.036 30.0305 15.5781 29.8891C15.1202 29.7477 14.7127 29.4773 14.4045 29.1104C14.0963 28.7435 13.9003 28.2954 13.8401 27.82L13.29 23.4C14.01 23.54 14.74 23.72 15.4499 23.92C16.4897 24.2216 17.5113 24.5822 18.51 25L18.78 27.2C18.824 27.5506 18.7933 27.9065 18.6899 28.2443C18.5865 28.5821 18.4127 28.8942 18.18 29.16Z" fill="#636363"/>
<path d="M29 19H27C26.7348 19 26.4804 18.8946 26.2929 18.7071C26.1054 18.5196 26 18.2652 26 18C26 17.7348 26.1054 17.4804 26.2929 17.2929C26.4804 17.1054 26.7348 17 27 17H29C29.2652 17 29.5196 17.1054 29.7071 17.2929C29.8946 17.4804 30 17.7348 30 18C30 18.2652 29.8946 18.5196 29.7071 18.7071C29.5196 18.8946 29.2652 19 29 19Z" fill="#636363"/>
<path d="M27.0011 15C26.7839 15.0003 26.5725 14.9298 26.3988 14.7993C26.2252 14.6687 26.0988 14.4851 26.0389 14.2763C25.9789 14.0675 25.9885 13.8449 26.0664 13.6421C26.1443 13.4393 26.2861 13.2673 26.4704 13.1523L28.4704 11.9023C28.5817 11.8327 28.7056 11.7858 28.8351 11.7641C28.9645 11.7424 29.097 11.7464 29.2249 11.776C29.3528 11.8055 29.4737 11.8599 29.5805 11.9361C29.6874 12.0123 29.7782 12.1089 29.8478 12.2202C29.9174 12.3315 29.9643 12.4554 29.986 12.5849C30.0077 12.7144 30.0037 12.8468 29.9742 12.9747C29.9446 13.1026 29.8902 13.2235 29.814 13.3304C29.7378 13.4372 29.6413 13.5281 29.5299 13.5976L27.5299 14.8476C27.3716 14.9474 27.1883 15.0002 27.0011 15Z" fill="#636363"/>
<path d="M28.9991 24.25C28.812 24.2502 28.6286 24.1974 28.4703 24.0976L26.4703 22.8476C26.359 22.7781 26.2625 22.6872 26.1862 22.5804C26.11 22.4735 26.0556 22.3526 26.0261 22.2247C25.9966 22.0968 25.9925 21.9644 26.0142 21.8349C26.0359 21.7054 26.0829 21.5815 26.1524 21.4702C26.222 21.3589 26.3128 21.2623 26.4197 21.1861C26.5266 21.1099 26.6474 21.0555 26.7753 21.026C26.9032 20.9964 27.0357 20.9924 27.1652 21.0141C27.2946 21.0358 27.4186 21.0827 27.5299 21.1523L29.5299 22.4023C29.7142 22.5173 29.856 22.6893 29.9338 22.8921C30.0117 23.0949 30.0214 23.3175 29.9614 23.5263C29.9014 23.7351 29.775 23.9187 29.6014 24.0493C29.4278 24.1798 29.2164 24.2503 28.9991 24.25Z" fill="#636363"/>
</svg>
