<svg width="32" height="32" viewBox="0 0 32 32" fill="none" xmlns="http://www.w3.org/2000/svg">
<path d="M0 8C0 3.58172 3.58172 0 8 0H24C28.4183 0 32 3.58172 32 8V24C32 28.4183 28.4183 32 24 32H8C3.58172 32 0 28.4183 0 24V8Z" fill="white"/>
<path d="M24.3797 16.4658L22.828 13.983H9.17282L7.62109 16.4658H24.3797Z" fill="#F29C1F"/>
<path d="M9.17285 19.7646V9.32766C9.17285 8.98628 9.45216 8.70697 9.79354 8.70697H22.2073C22.5487 8.70697 22.828 8.98628 22.828 9.32766V19.7646H9.17285Z" fill="#ECF0F1"/>
<path d="M10.4137 7.46552H21.5861C21.9287 7.46552 22.2068 7.74358 22.2068 8.0862V8.70689H9.79297V8.0862C9.79297 7.74358 10.071 7.46552 10.4137 7.46552Z" fill="#D1D4D1"/>
<path d="M25 17.0862V23.2931C25 23.9787 24.4442 24.5345 23.7586 24.5345H8.24138C7.55583 24.5345 7 23.9787 7 23.2931V17.0862C7 16.7433 7.27776 16.4655 7.62069 16.4655H10.5072C10.8343 16.4655 11.1372 16.6371 11.3054 16.9177L12.2634 18.5144C12.656 19.1686 13.3633 19.5693 14.1261 19.5693H17.8729C18.6361 19.5693 19.343 19.1689 19.7356 18.5144L20.6937 16.9177C20.8619 16.6371 21.1651 16.4655 21.4919 16.4655H24.3784C24.7213 16.4655 24.9991 16.7433 24.9991 17.0862H25Z" fill="#F0C419"/>
<path d="M20.6552 20.8104H11.3448C11.002 20.8104 10.7241 21.0883 10.7241 21.4311V22.6724C10.7241 23.0152 11.002 23.2931 11.3448 23.2931H20.6552C20.998 23.2931 21.2758 23.0152 21.2758 22.6724V21.4311C21.2758 21.0883 20.998 20.8104 20.6552 20.8104Z" fill="#F9EAB0"/>
<path d="M18.3906 13.9826H17.5517V17.086C17.5517 17.429 17.2739 17.7067 16.931 17.7067H15.0689C14.726 17.7067 14.4483 17.429 14.4483 17.086V13.9826H13.6094C13.0154 13.9826 12.7181 13.2644 13.138 12.8445L15.5286 10.454C15.7889 10.1936 16.211 10.1936 16.4714 10.454L18.862 12.8445C19.2819 13.2644 18.9846 13.9826 18.3906 13.9826Z" fill="#2FA8CC"/>
</svg>
