<svg width="20" height="20" viewBox="0 0 20 20" fill="none" xmlns="http://www.w3.org/2000/svg">
<path d="M17.2917 14.5833C17.2917 16.6 14.1583 18.125 10 18.125C5.84168 18.125 2.70834 16.6 2.70834 14.5833C2.70834 13.4167 3.76668 12.4 5.51668 11.7667L7.70834 14.825C7.94998 15.2092 8.28429 15.5265 8.68054 15.7477C9.0768 15.969 9.5223 16.0871 9.97613 16.0912C10.4299 16.0954 10.8775 15.9854 11.2778 15.7714C11.678 15.5575 12.0181 15.2464 12.2667 14.8667L14.4833 11.7667C16.2333 12.4 17.2917 13.4167 17.2917 14.5833ZM5.70001 9.87501C5.2228 9.09583 4.95243 8.20771 4.91451 7.2948C4.8766 6.38188 5.07239 5.47441 5.48334 4.65834C5.84747 3.89899 6.40178 3.24671 7.09244 2.76486C7.78311 2.283 8.58664 1.98794 9.42501 1.90834C9.80721 1.86669 10.1928 1.86669 10.575 1.90834C11.4134 1.98794 12.2169 2.283 12.9076 2.76486C13.5982 3.24671 14.1525 3.89899 14.5167 4.65834C14.9251 5.46636 15.1225 6.36459 15.0905 7.26941C15.0584 8.17424 14.7979 9.05625 14.3333 9.83334L11.225 14.1667C11.0945 14.3729 10.9134 14.5424 10.6991 14.659C10.4847 14.7757 10.2441 14.8357 10 14.8333C9.75203 14.8384 9.5069 14.7798 9.28805 14.6631C9.0692 14.5463 8.88395 14.3754 8.75001 14.1667L5.70001 9.87501ZM7.70834 6.66667C7.70834 7.11992 7.84275 7.56299 8.09456 7.93985C8.34637 8.31672 8.70428 8.61045 9.12303 8.7839C9.54177 8.95735 10.0026 9.00273 10.4471 8.91431C10.8916 8.82588 11.3 8.60762 11.6205 8.28713C11.941 7.96663 12.1592 7.55829 12.2476 7.11375C12.3361 6.66921 12.2907 6.20844 12.1172 5.78969C11.9438 5.37094 11.6501 5.01303 11.2732 4.76122C10.8963 4.50941 10.4533 4.37501 10 4.37501C9.39222 4.37501 8.80933 4.61645 8.37956 5.04622C7.94979 5.47599 7.70834 6.05889 7.70834 6.66667Z" fill="url(#paint0_linear_6544_104089)"/>
<defs>
<linearGradient id="paint0_linear_6544_104089" x1="4.25834" y1="17" x2="15.7417" y2="5.50834" gradientUnits="userSpaceOnUse">
<stop stop-color="#6D03A8"/>
<stop offset="1" stop-color="#FD60C4"/>
</linearGradient>
</defs>
</svg>
