<svg width="28" height="28" viewBox="0 0 28 28" fill="none" xmlns="http://www.w3.org/2000/svg">
<path d="M24.2087 20.4167C24.2087 23.24 19.822 25.375 14.0003 25.375C8.17866 25.375 3.79199 23.24 3.79199 20.4167C3.79199 18.7833 5.27366 17.36 7.72366 16.4733L10.792 20.755C11.1303 21.2928 11.5983 21.737 12.1531 22.0468C12.7078 22.3565 13.3315 22.5219 13.9669 22.5277C14.6022 22.5335 15.2289 22.3796 15.7892 22.08C16.3495 21.7804 16.8256 21.3449 17.1737 20.8133L20.277 16.4733C22.727 17.36 24.2087 18.7833 24.2087 20.4167ZM7.98033 13.825C7.31223 12.7341 6.93371 11.4908 6.88063 10.2127C6.82755 8.93462 7.10166 7.66415 7.67699 6.52166C8.18677 5.45857 8.96281 4.54538 9.92973 3.87078C10.8967 3.19618 12.0216 2.7831 13.1953 2.67166C13.7304 2.61335 14.2702 2.61335 14.8053 2.67166C15.979 2.7831 17.104 3.19618 18.0709 3.87078C19.0378 4.54538 19.8139 5.45857 20.3237 6.52166C20.8955 7.65289 21.1718 8.91041 21.1269 10.1772C21.0821 11.4439 20.7174 12.6787 20.067 13.7667L15.7153 19.8333C15.5326 20.122 15.2791 20.3593 14.979 20.5226C14.6789 20.686 14.342 20.77 14.0003 20.7667C13.6532 20.7737 13.31 20.6917 13.0036 20.5283C12.6972 20.3648 12.4378 20.1256 12.2503 19.8333L7.98033 13.825ZM10.792 9.33332C10.792 9.96787 10.9802 10.5882 11.3327 11.1158C11.6852 11.6434 12.1863 12.0546 12.7725 12.2974C13.3588 12.5403 14.0039 12.6038 14.6262 12.48C15.2486 12.3562 15.8203 12.0507 16.269 11.602C16.7177 11.1533 17.0232 10.5816 17.147 9.95924C17.2708 9.33688 17.2073 8.69179 16.9644 8.10555C16.7216 7.5193 16.3104 7.01823 15.7828 6.66569C15.2552 6.31316 14.6349 6.12499 14.0003 6.12499C13.1494 6.12499 12.3334 6.46301 11.7317 7.06469C11.13 7.66637 10.792 8.48242 10.792 9.33332Z" fill="url(#paint0_linear_8938_4038)"/>
<defs>
<linearGradient id="paint0_linear_8938_4038" x1="5.96199" y1="23.8" x2="22.0387" y2="7.71166" gradientUnits="userSpaceOnUse">
<stop stop-color="#6D03A8"/>
<stop offset="1" stop-color="#FD60C4"/>
</linearGradient>
</defs>
</svg>
