<svg width="20" height="20" viewBox="0 0 20 20" fill="none" xmlns="http://www.w3.org/2000/svg">
<g clip-path="url(#clip0_6724_126211)">
<path d="M12.8605 5.11207C12.6972 5.11207 12.5649 4.97977 12.5649 4.81652V1.05531C12.5649 0.89207 12.6972 0.759766 12.8605 0.759766C13.0237 0.759766 13.156 0.89207 13.156 1.05531V4.81652C13.156 4.97977 13.0237 5.11207 12.8605 5.11207Z" fill="#DDDAEC"/>
<path d="M15.8454 5.11207C15.6821 5.11207 15.5498 4.97977 15.5498 4.81652V1.05531C15.5498 0.89207 15.6821 0.759766 15.8454 0.759766C16.0086 0.759766 16.1409 0.89207 16.1409 1.05531V4.81652C16.1409 4.97977 16.0086 5.11207 15.8454 5.11207Z" fill="#DDDAEC"/>
<path d="M18.047 18.2248H10.6592C9.58051 18.2248 8.70605 17.3504 8.70605 16.2717V6.2944C8.70605 5.21573 9.58051 4.34128 10.6592 4.34128H18.047C19.1256 4.34128 20.0001 5.21573 20.0001 6.2944V16.2717C20.0001 17.3504 19.1256 18.2248 18.047 18.2248Z" fill="#FC636F"/>
<path d="M18.6147 4.42543C18.6693 4.6052 18.6989 4.79578 18.6989 4.99336V14.9707C18.6989 16.0493 17.8244 16.9238 16.7457 16.9238H9.35797C9.16039 16.9238 8.96977 16.8942 8.79004 16.8396C9.03332 17.6412 9.77789 18.2248 10.659 18.2248H18.0468C19.1254 18.2248 19.9999 17.3504 19.9999 16.2717V6.29441C19.9999 5.41332 19.4163 4.66875 18.6147 4.42543Z" fill="#DD636E"/>
<path d="M16.493 1.40875H12.2129C12.0754 1.40875 11.9639 1.29726 11.9639 1.15972V0.321167C11.9639 0.183628 12.0754 0.0721436 12.2129 0.0721436H16.493C16.6305 0.0721436 16.742 0.183628 16.742 0.321167V1.15972C16.742 1.29726 16.6305 1.40875 16.493 1.40875Z" fill="#4A80AA"/>
<path d="M16.493 0.0721436H16.0837V0.50148C16.0837 0.639019 15.9723 0.750503 15.8347 0.750503H11.9639V1.15972C11.9639 1.29726 12.0754 1.40875 12.2129 1.40875H16.493C16.6305 1.40875 16.742 1.29726 16.742 1.15972V0.321167C16.742 0.183628 16.6305 0.0721436 16.493 0.0721436Z" fill="#407093"/>
<path d="M7.71831 4.59405C7.6753 4.59405 7.63163 4.58464 7.59026 4.56471C7.44323 4.49389 7.38135 4.31725 7.45217 4.17018L8.50339 1.98679C8.63581 1.71179 8.86741 1.50479 9.15549 1.40393C9.44354 1.30311 9.7537 1.3205 10.0287 1.45288C10.5964 1.72624 10.8359 2.41046 10.5626 2.97819L10.349 3.42198C10.2781 3.56901 10.1014 3.63077 9.95444 3.56007C9.80741 3.48925 9.74553 3.31261 9.81635 3.16554L10.03 2.72179C10.162 2.44772 10.0464 2.11745 9.77229 1.9855C9.63956 1.92155 9.48987 1.91315 9.35077 1.96186C9.21171 2.01054 9.09995 2.11046 9.036 2.24323L7.98479 4.42663C7.93393 4.53237 7.82831 4.59405 7.71831 4.59405Z" fill="#DDDAEC"/>
<path d="M8.29447 4.18249L8.12904 3.86487C8.06381 3.73963 7.92393 3.67229 7.78533 3.6994L7.43389 3.76815C7.29529 3.79526 7.15541 3.72791 7.09018 3.60268L6.84197 3.1262C6.81022 3.06522 6.75959 3.01616 6.69764 2.98631C6.48959 2.88616 6.2474 3.0337 6.241 3.26452L6.12061 7.59674L9.43209 4.80092C9.60854 4.65198 9.57283 4.37061 9.36479 4.27045C9.30283 4.24061 9.23291 4.23163 9.16545 4.24483L8.63818 4.34795C8.49959 4.37506 8.35971 4.30772 8.29447 4.18249Z" fill="#707DD3"/>
<path d="M9.36479 4.27041C9.30283 4.24057 9.23291 4.23159 9.16545 4.24479L8.63818 4.34791C8.5426 4.36663 8.44697 4.33955 8.37506 4.28038C8.37229 4.28288 8.36994 4.28565 8.36705 4.28807L6.1608 6.15077L6.12061 7.5967L9.43209 4.80088C9.60854 4.65194 9.57283 4.37061 9.36479 4.27041Z" fill="#5766CB"/>
<path d="M0.295388 19.9278C0.251638 19.9278 0.207224 19.9181 0.165271 19.8975C0.0187475 19.8255 -0.0416041 19.6484 0.030349 19.5019L1.53718 16.4353C1.60914 16.2888 1.78621 16.2284 1.93281 16.3004C2.07933 16.3724 2.13968 16.5495 2.06773 16.696L0.560896 19.7626C0.509529 19.8671 0.404529 19.9278 0.295388 19.9278Z" fill="#DDDAEC"/>
<path d="M2.00407 17.0816L6.2484 10.763C6.40977 10.5228 6.53024 10.2575 6.60501 9.97795L7.55215 6.43678L6.13469 5.75432L3.95719 8.70311C3.78532 8.93588 3.65309 9.19549 3.56594 9.47143L1.27348 16.7299C1.21211 16.9241 1.30286 17.1339 1.48637 17.2223C1.66993 17.3106 1.89051 17.2507 2.00407 17.0816Z" fill="#707DD3"/>
<path d="M6.60503 9.978L7.55218 6.43682L6.41608 5.88983L5.46893 9.431C5.39417 9.71054 5.27366 9.97577 5.11233 10.216L1.74972 15.2219L1.27347 16.7299C1.21214 16.9241 1.30284 17.1339 1.48636 17.2223C1.66987 17.3106 1.89046 17.2507 2.00405 17.0816L6.24839 10.763C6.40975 10.5228 6.53022 10.2575 6.60503 9.978Z" fill="#5766CB"/>
<path d="M7.74327 6.78784C7.70026 6.78784 7.65655 6.77842 7.61522 6.7585L5.85393 5.91046C5.7069 5.83964 5.64503 5.66299 5.71585 5.51592C5.78667 5.36885 5.96339 5.30706 6.11038 5.37784L7.87167 6.22589C8.0187 6.29671 8.08057 6.47335 8.00975 6.62042C7.95885 6.72616 7.85327 6.78784 7.74327 6.78784Z" fill="#365E7D"/>
<path d="M17.8791 11.0305H16.4126C16.3034 11.0305 16.2148 10.942 16.2148 10.8328V9.36633C16.2148 9.25711 16.3034 9.16859 16.4126 9.16859H17.8791C17.9883 9.16859 18.0768 9.25715 18.0768 9.36633V10.8328C18.0768 10.942 17.9883 11.0305 17.8791 11.0305Z" fill="#707DD3"/>
<path d="M13.2047 13.0914C11.7877 13.6077 10.2354 13.6161 8.81297 13.1151L8.66602 13.0634C7.84527 12.7743 6.98141 12.6266 6.11125 12.6266H4.92219C4.04074 12.6266 3.32617 13.3411 3.32617 14.2226V18.1461C3.32617 19.0275 4.04074 19.7421 4.92219 19.7421H5.28793L6.08594 19.308L6.88394 19.7421H14.997L15.7641 19.2421L16.593 19.7421H16.9588C17.8402 19.7421 18.5548 19.0275 18.5548 18.1461V14.2226C18.5548 13.3411 17.8402 12.6266 16.9588 12.6266H15.8378C14.9396 12.6266 14.0485 12.7839 13.2047 13.0914Z" fill="#FFE07D"/>
<path d="M10.9404 17.2426C10.2168 17.2426 9.55666 16.8757 9.17451 16.2612L8.59068 15.3223C8.36873 14.9653 8.25146 14.5546 8.25146 14.1344V12.8303C8.25146 12.6671 8.38377 12.5348 8.54701 12.5348C8.71025 12.5348 8.84256 12.6671 8.84256 12.8303V14.1344C8.84256 14.4442 8.92904 14.747 9.09268 15.0102L9.6765 15.9491C9.95002 16.3889 10.4225 16.6515 10.9404 16.6515C11.4584 16.6515 11.9309 16.3889 12.2044 15.9491L12.7883 15.0102C12.9519 14.7471 13.0383 14.4442 13.0383 14.1344V12.8162C13.0383 12.653 13.1706 12.5207 13.3339 12.5207C13.4971 12.5207 13.6294 12.653 13.6294 12.8162V14.1344C13.6294 14.5546 13.5121 14.9654 13.2903 15.3223L12.7064 16.2612C12.3242 16.8757 11.664 17.2426 10.9404 17.2426Z" fill="#4A80AA"/>
<path d="M11.8963 17.4725H9.9851C9.83342 17.4725 9.71045 17.3495 9.71045 17.1978V16.3678C9.71045 16.2162 9.83342 16.0932 9.9851 16.0932H11.8963C12.048 16.0932 12.171 16.2162 12.171 16.3678V17.1978C12.171 17.3495 12.048 17.4725 11.8963 17.4725Z" fill="#407093"/>
<path d="M11.8963 16.0932H11.6554V16.6823C11.6554 16.834 11.5325 16.957 11.3808 16.957H9.71045V17.1978C9.71045 17.3495 9.83342 17.4725 9.9851 17.4725H11.8963C12.048 17.4725 12.1709 17.3495 12.1709 17.1978V16.3678C12.171 16.2162 12.048 16.0932 11.8963 16.0932Z" fill="#365E7D"/>
<path d="M16.0057 7.97514C16.7098 7.27104 16.9864 6.40603 16.6234 6.0431C16.2605 5.68016 15.3955 5.95673 14.6914 6.66084C13.9873 7.36494 13.7107 8.22995 14.0737 8.59288C14.4366 8.95582 15.3016 8.67924 16.0057 7.97514Z" fill="#F9F6F6"/>
<path d="M17.0276 12.6283C17.0286 12.6511 17.0293 12.6739 17.0293 12.6969V16.6204C17.0293 17.5018 16.3148 18.2164 15.4333 18.2164H3.39672C3.37371 18.2164 3.3509 18.2156 3.32812 18.2147C3.3641 19.0643 4.06395 19.7421 4.92238 19.7421H5.28812L6.08613 19.308L6.88414 19.7421H14.9972L15.7952 19.3446L16.5932 19.7421H16.9589C17.8404 19.7421 18.555 19.0275 18.555 18.1461V14.2226C18.555 13.3641 17.8771 12.6643 17.0276 12.6283Z" fill="#FFD064"/>
<path d="M5.28809 12.6266V19.7421H6.8841V12.6658C6.62773 12.6399 6.36984 12.6266 6.11141 12.6266H5.28809Z" fill="#4A80AA"/>
<path d="M5.28809 18.2164H6.8841V19.7421H5.28809V18.2164Z" fill="#407093"/>
<path d="M14.9971 19.7421H16.5931V12.6266H15.8379C15.5565 12.6266 15.2759 12.642 14.9971 12.6727V19.7421H14.9971Z" fill="#4A80AA"/>
<path d="M15.4332 18.2164H14.9971V19.7421H16.5931V17.716C16.3021 18.0239 15.8903 18.2164 15.4332 18.2164Z" fill="#407093"/>
</g>
<defs>
<clipPath id="clip0_6724_126211">
<rect width="20" height="20" fill="white"/>
</clipPath>
</defs>
</svg>
