<svg width="32" height="32" viewBox="0 0 32 32" fill="none" xmlns="http://www.w3.org/2000/svg">
<path d="M0 8C0 3.58172 3.58172 0 8 0H24C28.4183 0 32 3.58172 32 8V24C32 28.4183 28.4183 32 24 32H8C3.58172 32 0 28.4183 0 24V8Z" fill="white"/>
<path d="M17.0082 21.472L17.2331 21.4245C17.5299 21.3619 17.5299 20.9204 17.2331 20.8578L17.0082 20.8104C16.4415 20.6908 15.9986 20.23 15.8837 19.6404L15.8381 19.4063C15.7779 19.0975 15.3536 19.0975 15.2934 19.4063L15.2478 19.6404C15.1329 20.23 14.69 20.6908 14.1234 20.8104L13.8984 20.8578C13.6016 20.9204 13.6016 21.3619 13.8984 21.4245L14.1234 21.472C14.69 21.5915 15.1329 22.0523 15.2478 22.642L15.2934 22.876C15.3536 23.1849 15.7779 23.1849 15.8381 22.876L15.8837 22.642C15.9986 22.0523 16.4415 21.5915 17.0082 21.472Z" fill="#F9D366"/>
<path d="M20.964 22.9397C20.814 22.9397 20.6924 22.8132 20.6924 22.6571V21.8919C20.6924 21.7358 20.814 21.6093 20.964 21.6093C21.114 21.6093 21.2356 21.7358 21.2356 21.8919V22.6571C21.2356 22.8132 21.114 22.9397 20.964 22.9397Z" fill="#DD8833"/>
<path d="M20.964 25C20.814 25 20.6924 24.8735 20.6924 24.7174V23.9522C20.6924 23.7961 20.814 23.6696 20.964 23.6696C21.114 23.6696 21.2356 23.7961 21.2356 23.9522V24.7174C21.2356 24.8735 21.114 25 20.964 25Z" fill="#DD8833"/>
<path d="M22.322 23.5873H21.5866C21.4365 23.5873 21.3149 23.4608 21.3149 23.3047C21.3149 23.1486 21.4365 23.0221 21.5866 23.0221H22.322C22.472 23.0221 22.5936 23.1486 22.5936 23.3047C22.5936 23.4608 22.472 23.5873 22.322 23.5873Z" fill="#DD8833"/>
<path d="M20.3416 23.5873H19.6061C19.4561 23.5873 19.3345 23.4608 19.3345 23.3047C19.3345 23.1486 19.4561 23.0221 19.6061 23.0221H20.3416C20.4916 23.0221 20.6132 23.1486 20.6132 23.3047C20.6132 23.4608 20.4916 23.5873 20.3416 23.5873Z" fill="#DD8833"/>
<path d="M8.62953 19.379C8.47952 19.379 8.35791 19.2525 8.35791 19.0964V18.3312C8.35791 18.1751 8.47952 18.0486 8.62953 18.0486C8.77954 18.0486 8.90114 18.1751 8.90114 18.3312V19.0964C8.90114 19.2525 8.77954 19.379 8.62953 19.379Z" fill="#DD8833"/>
<path d="M8.62953 21.439C8.47952 21.439 8.35791 21.3125 8.35791 21.1564V20.3911C8.35791 20.235 8.47952 20.1085 8.62953 20.1085C8.77954 20.1085 8.90114 20.235 8.90114 20.3911V21.1564C8.90114 21.3125 8.77954 21.439 8.62953 21.439Z" fill="#DD8833"/>
<path d="M9.98706 20.0263H9.2516C9.10159 20.0263 8.97998 19.8998 8.97998 19.7437C8.97998 19.5876 9.10159 19.4611 9.2516 19.4611H9.98706C10.1371 19.4611 10.2587 19.5876 10.2587 19.7437C10.2587 19.8998 10.1371 20.0263 9.98706 20.0263Z" fill="#DD8833"/>
<path d="M8.00708 20.0263H7.27162C7.1216 20.0263 7 19.8998 7 19.7437C7 19.5876 7.1216 19.4611 7.27162 19.4611H8.00708C8.15709 19.4611 8.2787 19.5876 8.2787 19.7437C8.2787 19.8998 8.15709 20.0263 8.00708 20.0263Z" fill="#DD8833"/>
<path d="M20.9992 8.33052C20.8491 8.33052 20.7275 8.20399 20.7275 8.04791V7.28267C20.7275 7.12659 20.8491 7.00006 20.9992 7.00006C21.1492 7.00006 21.2708 7.12659 21.2708 7.28267V8.04791C21.2708 8.20396 21.1492 8.33052 20.9992 8.33052Z" fill="#DD8833"/>
<path d="M20.9992 10.3908C20.8491 10.3908 20.7275 10.2643 20.7275 10.1082V9.34298C20.7275 9.18689 20.8491 9.06036 20.9992 9.06036C21.1492 9.06036 21.2708 9.18689 21.2708 9.34298V10.1082C21.2708 10.2643 21.1492 10.3908 20.9992 10.3908Z" fill="#DD8833"/>
<path d="M22.3572 8.97813H21.6217C21.4717 8.97813 21.3501 8.8516 21.3501 8.69551C21.3501 8.53943 21.4717 8.4129 21.6217 8.4129H22.3572C22.5072 8.4129 22.6288 8.53943 22.6288 8.69551C22.6288 8.8516 22.5072 8.97813 22.3572 8.97813Z" fill="#DD8833"/>
<path d="M20.3767 8.97813H19.6412C19.4912 8.97813 19.3696 8.8516 19.3696 8.69551C19.3696 8.53943 19.4912 8.4129 19.6412 8.4129H20.3767C20.5267 8.4129 20.6483 8.53943 20.6483 8.69551C20.6483 8.8516 20.5267 8.97813 20.3767 8.97813Z" fill="#DD8833"/>
<path d="M16.2243 12.3511L17.301 12.124C17.8093 12.0168 17.8093 11.2609 17.301 11.1537L16.2243 10.9266C15.1633 10.7027 14.3341 9.83994 14.1189 8.73598L13.9007 7.6157C13.7976 7.08684 13.0711 7.08684 12.9681 7.6157L12.7498 8.73598C12.5347 9.83994 11.7054 10.7027 10.6444 10.9266L9.56774 11.1537C9.05945 11.2609 9.05945 12.0168 9.56774 12.124L10.6444 12.3511C11.7054 12.575 12.5347 13.4378 12.7498 14.5417L12.9681 15.662C13.0711 16.1909 13.7976 16.1909 13.9007 15.662L14.1189 14.5417C14.334 13.4378 15.1633 12.575 16.2243 12.3511Z" fill="#F9D366"/>
<path d="M23.8804 16.2495L24.7073 16.0751C25.0977 15.9928 25.0977 15.4122 24.7073 15.3299L23.8804 15.1555C23.0656 14.9835 22.4288 14.321 22.2636 13.4731L22.0959 12.6128C22.0168 12.2066 21.4589 12.2066 21.3798 12.6128L21.2121 13.4731C21.0469 14.321 20.4101 14.9836 19.5952 15.1555L18.7684 15.3299C18.378 15.4122 18.378 15.9928 18.7684 16.0751L19.5952 16.2495C20.4101 16.4215 21.0469 17.084 21.2121 17.9319L21.3798 18.7922C21.4589 19.1984 22.0168 19.1984 22.0959 18.7922L22.2636 17.9319C22.4288 17.0841 23.0657 16.4214 23.8804 16.2495Z" fill="#F9D366"/>
</svg>
