<svg width="32" height="32" viewBox="0 0 32 32" fill="none" xmlns="http://www.w3.org/2000/svg">
<path d="M0 8C0 3.58172 3.58172 0 8 0H24C28.4183 0 32 3.58172 32 8V24C32 28.4183 28.4183 32 24 32H8C3.58172 32 0 28.4183 0 24V8Z" fill="white"/>
<path d="M17.805 22.7359C17.3799 23.6622 16.7784 24.4043 16.3887 24.8292C16.1798 25.0569 15.82 25.0569 15.6111 24.8292C15.2215 24.4043 14.6199 23.6622 14.1948 22.7359L15.9999 20.4904L17.805 22.7359Z" fill="#9FE066"/>
<path d="M16.3888 24.8292C16.7784 24.4043 17.38 23.6622 17.8051 22.7359L16 20.4904V25C16.1422 25 16.2843 24.9431 16.3888 24.8292Z" fill="#4ACA7B"/>
<path d="M17.805 9.26412C17.805 9.26412 16.0837 11.2865 15.9999 11.5097C15.9161 11.2865 14.1948 9.26412 14.1948 9.26412C14.6199 8.33785 15.2215 7.59567 15.6111 7.17081C15.82 6.94306 16.1798 6.94306 16.3887 7.17081C16.7784 7.59567 17.3799 8.33785 17.805 9.26412Z" fill="#9FE066"/>
<path d="M17.8051 9.26413C17.38 8.33787 16.7785 7.59569 16.3888 7.17082C16.2843 7.05695 16.1422 7 16 7V11.5097C16.0838 11.2866 17.8051 9.26413 17.8051 9.26413Z" fill="#4ACA7B"/>
<path d="M13.6948 12.0076L11.0692 11.0693C10.974 10.0545 11.1237 9.11102 11.2487 8.54823C11.3157 8.24652 11.6273 8.06663 11.9221 8.15944C12.4719 8.33255 13.3637 8.67452 14.1949 9.26416L13.6948 12.0076Z" fill="#FFDB6C"/>
<path d="M12.0074 13.6948L9.26397 14.1949C8.67433 13.3637 8.33237 12.4719 8.15926 11.9221C8.06645 11.6273 8.24634 11.3157 8.54805 11.2487C9.11083 11.1237 10.0543 10.974 11.0691 11.0692L12.0074 13.6948Z" fill="#9FE066"/>
<path d="M11.5097 16L9.26412 17.8051C8.33785 17.38 7.59567 16.7785 7.17081 16.3888C6.94306 16.1799 6.94306 15.8201 7.17081 15.6113C7.59567 15.2216 8.33785 14.6201 9.26412 14.1949L11.5097 16Z" fill="#FFDB6C"/>
<path d="M12.0074 18.3052L11.0691 20.9308C10.0543 21.026 9.11083 20.8763 8.54805 20.7513C8.24634 20.6842 8.06645 20.3727 8.15926 20.0779C8.33237 19.5281 8.67433 18.6363 9.26397 17.8051L12.0074 18.3052Z" fill="#9FE066"/>
<path d="M14.1949 22.7358C13.3637 23.3255 12.4719 23.6675 11.9221 23.8406C11.6273 23.9334 11.3157 23.7535 11.2487 23.4518C11.1237 22.889 10.974 21.9455 11.0692 20.9308L13.6948 19.9924L14.1949 22.7358Z" fill="#FFDB6C"/>
<path d="M20.078 23.8406C19.5282 23.6675 18.6364 23.3255 17.8052 22.7358L18.3053 19.9928V19.9924L20.9309 20.9308C21.0261 21.9455 20.8764 22.889 20.7514 23.4518C20.6844 23.7535 20.3728 23.9334 20.078 23.8406Z" fill="#FCC100"/>
<path d="M23.4515 20.7513C22.8887 20.8763 21.9453 21.026 20.9305 20.9308L19.9922 18.3052H19.9926L22.7356 17.8051C23.3252 18.6363 23.6672 19.5281 23.8403 20.0779C23.9331 20.3727 23.7532 20.6842 23.4515 20.7513Z" fill="#4ACA7B"/>
<path d="M24.8291 16.3887C24.4042 16.7784 23.662 17.3799 22.7358 17.805L20.4902 16L22.7358 14.1949C23.662 14.62 24.4042 15.2215 24.8291 15.6112C25.0569 15.8201 25.0569 16.1799 24.8291 16.3887Z" fill="#FCC100"/>
<path d="M23.8403 11.9221C23.6672 12.4719 23.3252 13.3637 22.7356 14.1949L19.9926 13.6948H19.9922L20.9305 11.0692C21.9453 10.974 22.8887 11.1237 23.4515 11.2487C23.7532 11.3157 23.9331 11.6273 23.8403 11.9221Z" fill="#4ACA7B"/>
<path d="M20.9309 11.0693L18.3053 12.0076V12.0072L17.8052 9.26416C18.6364 8.67452 19.5282 8.33255 20.078 8.15944C20.3728 8.06663 20.6844 8.24652 20.7514 8.54823C20.8764 9.11102 21.0261 10.0545 20.9309 11.0693Z" fill="#FCC100"/>
<path d="M16 11.5097L16.5976 13.3633L16 16L14.2773 13.6948L13.6947 12.0076L13.6943 11.3888C13.6943 10.6223 13.9029 9.89982 14.1949 9.26416C14.7658 9.66867 15.3081 10.1902 15.6911 10.8538C15.814 11.0666 15.9161 11.2866 16 11.5097Z" fill="#223F75"/>
<path d="M18.3056 11.3888L18.3052 12.0072V12.0076L17.8809 13.6944L16 16V11.5097C16.0838 11.2866 16.186 11.0666 16.3088 10.8538C16.6919 10.1902 17.2341 9.66863 17.8051 9.26416C18.0971 9.89979 18.3056 10.6223 18.3056 11.3888Z" fill="#00204C"/>
<path d="M20.9308 11.0692C20.8657 11.7657 20.6855 12.4958 20.3024 13.1594L19.9924 13.6948L19.0059 14.8472L16 16L18.3052 12.0075L18.8406 11.6976C19.5042 11.3145 20.2343 11.1343 20.9308 11.0692Z" fill="#DE0062"/>
<path d="M22.7359 14.1949C22.3314 14.7659 21.8098 15.3081 21.1462 15.6912C20.9335 15.814 20.7134 15.9162 20.4903 16L18.5488 16.4395L16 16L19.9924 13.6948H19.9928L20.6112 13.6944C21.3777 13.6944 22.1002 13.9029 22.7359 14.1949Z" fill="#FF3344"/>
<path d="M22.7359 17.8051C22.1002 18.0971 21.3777 18.3057 20.6112 18.3057L19.9928 18.3053H19.9924L17.9863 17.8051L16 16H20.4903C20.7134 16.0838 20.9335 16.186 21.1462 16.3088C21.8098 16.6919 22.3314 17.2341 22.7359 17.8051Z" fill="#00204C"/>
<path d="M20.9308 20.9308C20.2343 20.8657 19.5042 20.6855 18.8406 20.3024L18.3052 19.9924L17.0371 18.6016L16 16L19.9924 18.3052L20.3024 18.8406C20.6855 19.5042 20.8657 20.2343 20.9308 20.9308Z" fill="#223F75"/>
<path d="M18.3056 20.6112C18.3056 21.3777 18.0971 22.1002 17.8051 22.7359C17.2341 22.3314 16.6919 21.8098 16.3088 21.1462C16.186 20.9335 16.0838 20.7134 16 20.4903L15.6133 18.7246L16 16L18.3052 19.9924V19.9928L18.3056 20.6112Z" fill="#FF3344"/>
<path d="M16 16V20.4903C15.9161 20.7134 15.814 20.9335 15.6911 21.1462C15.3081 21.8098 14.7658 22.3314 14.1949 22.7359C13.9029 22.1002 13.6943 21.3777 13.6943 20.6112L13.6947 19.9924L14.33 18.1621L16 16Z" fill="#FC6658"/>
<path d="M16.0001 16L13.6949 19.9924L13.1595 20.3024C12.4959 20.6855 11.7658 20.8657 11.0693 20.9308C11.1344 20.2343 11.3146 19.5042 11.6977 18.8406L12.0077 18.3052L13.3634 16.9316L16.0001 16Z" fill="#223F75"/>
<path d="M16 16L12.0076 18.3052L11.3888 18.3056C10.6223 18.3056 9.89979 18.0971 9.26416 17.8051C9.66863 17.2341 10.1902 16.6919 10.8538 16.3088C11.0666 16.186 11.2866 16.0838 11.5097 16L12.9766 15.4902L16 16Z" fill="#2B5AAD"/>
<path d="M16 16H11.5097C11.2866 15.9162 11.0666 15.814 10.8538 15.6912C10.1902 15.3081 9.66863 14.7659 9.26416 14.195C9.89979 13.903 10.6223 13.6944 11.3888 13.6944L12.0076 13.6948L13.6944 14.0137L16 16Z" fill="#FC6658"/>
<path d="M16.0001 16L12.0077 13.6948L11.6977 13.1594C11.3146 12.4958 11.1344 11.7657 11.0693 11.0692C11.7658 11.1343 12.4959 11.3145 13.1595 11.6976L13.6949 12.0075L14.3495 13.1413L16.0001 16Z" fill="#FF3344"/>
</svg>
