<svg width="28" height="28" viewBox="0 0 28 28" fill="none" xmlns="http://www.w3.org/2000/svg">
<path d="M11.9242 20.7578C11.6025 20.4864 11.2696 20.2058 11.0046 20.0957C10.7139 19.9752 10.2823 19.9357 9.8254 19.8943C8.95759 19.8153 7.97417 19.7257 7.2605 19.0121C7.10708 18.8586 6.98376 18.692 6.88187 18.5173L4.71078 22.5204C4.6484 22.6353 4.65297 22.7747 4.72258 22.8853C4.79219 22.9956 4.9131 23.0606 5.04653 23.0537L8.37254 22.8872L10.0472 25.766C10.112 25.8772 10.231 25.9456 10.3594 25.9456H10.3647C10.4952 25.9437 10.6147 25.8715 10.6768 25.7566L12.9647 21.5382C12.5758 21.3062 12.2318 21.0172 11.9242 20.7578Z" fill="url(#paint0_linear_8938_4084)"/>
<path d="M21.9549 18.5174C21.8531 18.692 21.7297 18.8584 21.5763 19.0121C20.8627 19.7258 19.8792 19.8154 19.0117 19.8944C18.5547 19.936 18.1231 19.9753 17.8324 20.0957C17.5675 20.2056 17.2346 20.4864 16.9128 20.7579C16.6052 21.0173 16.2613 21.3063 15.8721 21.538L18.16 25.7561C18.2221 25.871 18.3416 25.943 18.4721 25.9452H18.4774C18.6061 25.9452 18.725 25.8768 18.7896 25.7655L20.4643 22.8868L23.7903 23.0532C23.9235 23.0605 24.0446 22.9954 24.1142 22.8849C24.1838 22.7743 24.1884 22.6349 24.126 22.52L21.9549 18.5174Z" fill="url(#paint1_linear_8938_4084)"/>
<path d="M16.5249 20.2975C16.8982 19.9827 17.2508 19.6852 17.602 19.5398C17.9773 19.3842 18.4532 19.3408 18.9571 19.2948C19.7604 19.2216 20.5911 19.146 21.1506 18.5864C21.7103 18.0269 21.786 17.1962 21.8592 16.3927C21.905 15.8888 21.9485 15.4129 22.1041 15.0376C22.2496 14.6865 22.5471 14.3338 22.8621 13.9603C23.367 13.3615 23.9395 12.683 23.9395 11.8542C23.9395 11.0254 23.3672 10.3467 22.8621 9.74791C22.5473 9.37458 22.2499 9.02196 22.1044 8.67079C21.9488 8.29553 21.9054 7.8196 21.8594 7.31572C21.7862 6.51246 21.7106 5.6815 21.1511 5.12198C20.5916 4.56223 19.7608 4.4866 18.9573 4.41338C18.4535 4.36762 17.9773 4.32402 17.6023 4.16843C17.2511 4.02295 16.8985 3.72549 16.5251 3.41069C15.9264 2.90561 15.2479 2.33333 14.4188 2.33333C13.5898 2.33333 12.9113 2.90561 12.3128 3.41069C11.9394 3.72549 11.5868 4.02295 11.2357 4.16843C10.8604 4.32402 10.3845 4.36738 9.88059 4.41338C9.07709 4.4866 8.24637 4.56223 7.68685 5.12174C7.12734 5.68126 7.05147 6.51198 6.97849 7.31548C6.93248 7.81936 6.88913 8.29553 6.73354 8.67055C6.58806 9.02172 6.2906 9.37434 5.9758 9.74767C5.47096 10.3464 4.89844 11.0249 4.89844 11.854C4.89844 12.683 5.47072 13.3613 5.9758 13.96C6.2906 14.3334 6.58806 14.686 6.73354 15.0372C6.88913 15.4124 6.93248 15.8883 6.97849 16.3922C7.05171 17.1955 7.12734 18.0264 7.68685 18.586C8.24637 19.1455 9.07709 19.2213 9.88035 19.2943C10.3842 19.3403 10.8604 19.3837 11.2357 19.5393C11.5868 19.6848 11.9394 19.9822 12.313 20.2973C12.9115 20.8021 13.5903 21.3744 14.4191 21.3744C15.2479 21.3744 15.9266 20.8021 16.5254 20.297L16.5249 20.2975ZM8.70159 11.854C8.70159 8.70162 11.2662 6.13696 14.4186 6.13696C17.5709 6.13696 20.1356 8.70162 20.1356 11.854C20.1356 15.0063 17.5709 17.571 14.4186 17.571C11.2662 17.571 8.70159 15.0063 8.70159 11.854ZM11.24 11.557C11.0447 11.3667 10.9758 11.0876 11.0601 10.8284C11.1444 10.569 11.3643 10.3838 11.634 10.3445L13.1235 10.128L13.7808 8.78447C13.9015 8.54 14.1459 8.38802 14.4184 8.38802C14.6908 8.38802 14.9352 8.53976 15.0557 8.78423L15.7219 10.1342L17.2027 10.3443C17.4724 10.3835 17.6923 10.5688 17.7766 10.8282C17.8609 11.0876 17.7918 11.3667 17.5967 11.5568L16.5186 12.6076L16.7766 14.0809C16.8226 14.3497 16.7142 14.6161 16.4938 14.7763C16.3693 14.8669 16.2233 14.9129 16.0767 14.9129C15.9637 14.9129 15.8503 14.8857 15.7452 14.8305L14.4128 14.1301L13.0912 14.8305C12.8499 14.9572 12.563 14.9367 12.3426 14.7763C12.122 14.6161 12.0139 14.3497 12.0599 14.0809L12.3145 12.5973L11.24 11.557Z" fill="url(#paint2_linear_8938_4084)"/>
<defs>
<linearGradient id="paint0_linear_8938_4084" x1="8.81572" y1="18.5173" x2="8.81572" y2="25.9452" gradientUnits="userSpaceOnUse">
<stop stop-color="#27D7FF"/>
<stop offset="0.044" stop-color="#29D2FF"/>
<stop offset="0.437" stop-color="#3DB3FF"/>
<stop offset="0.769" stop-color="#49A0FF"/>
<stop offset="1" stop-color="#4E9AFF"/>
</linearGradient>
<linearGradient id="paint1_linear_8938_4084" x1="20.0211" y1="18.5174" x2="20.0211" y2="25.9452" gradientUnits="userSpaceOnUse">
<stop stop-color="#27D7FF"/>
<stop offset="0.044" stop-color="#29D2FF"/>
<stop offset="0.437" stop-color="#3DB3FF"/>
<stop offset="0.769" stop-color="#49A0FF"/>
<stop offset="1" stop-color="#4E9AFF"/>
</linearGradient>
<linearGradient id="paint2_linear_8938_4084" x1="14.4186" y1="2.33309" x2="14.4186" y2="21.3746" gradientUnits="userSpaceOnUse">
<stop stop-color="#27D7FF"/>
<stop offset="0.044" stop-color="#29D2FF"/>
<stop offset="0.437" stop-color="#3DB3FF"/>
<stop offset="0.769" stop-color="#49A0FF"/>
<stop offset="1" stop-color="#4E9AFF"/>
</linearGradient>
</defs>
</svg>
