<svg width="24" height="24" viewBox="0 0 24 24" fill="none" xmlns="http://www.w3.org/2000/svg">
<path d="M15.0376 2.97656C14.7482 2.79731 14.4172 2.6964 14.077 2.68373C13.7368 2.67106 13.3992 2.74707 13.0972 2.9043C11.3794 3.78856 9.57956 4.50352 7.72321 5.03906C6.77937 5.31055 5.80866 5.53906 4.83943 5.7168C4.03891 5.86627 3.31624 6.29193 2.79736 6.91957C2.27849 7.54721 1.99632 8.33703 2.00004 9.15137V10.8486C1.9963 11.6629 2.2784 12.4527 2.79717 13.0803C3.31594 13.7079 4.03849 14.1336 4.83891 14.2832C5.80863 14.4609 6.77934 14.6894 7.72318 14.9609C9.57967 15.4966 11.3797 16.2115 13.0977 17.0957C13.3996 17.2528 13.7371 17.3287 14.0772 17.316C14.4173 17.3033 14.7483 17.2025 15.0376 17.0234C15.3324 16.8456 15.576 16.5945 15.7447 16.2944C15.9133 15.9944 16.0013 15.6557 16 15.3115V4.68848C16.0013 4.34427 15.9133 4.00561 15.7447 3.70557C15.576 3.40552 15.3324 3.15435 15.0376 2.97656Z" fill="#636363"/>
<path d="M10.18 21.16C9.86221 21.5187 9.44779 21.7783 8.98635 21.9076C8.5249 22.0369 8.03596 22.0305 7.57807 21.8891C7.12018 21.7477 6.71273 21.4773 6.40451 21.1104C6.09628 20.7435 5.90034 20.2954 5.84013 19.82L5.29004 15.4C6.01004 15.54 6.73999 15.72 7.44995 15.92C8.48965 16.2216 9.51134 16.5822 10.51 17L10.78 19.2C10.824 19.5506 10.7933 19.9065 10.6899 20.2443C10.5865 20.5821 10.4127 20.8942 10.18 21.16Z" fill="#636363"/>
<path d="M21 11H19C18.7348 11 18.4804 10.8946 18.2929 10.7071C18.1054 10.5196 18 10.2652 18 10C18 9.73478 18.1054 9.48043 18.2929 9.29289C18.4804 9.10536 18.7348 9 19 9H21C21.2652 9 21.5196 9.10536 21.7071 9.29289C21.8946 9.48043 22 9.73478 22 10C22 10.2652 21.8946 10.5196 21.7071 10.7071C21.5196 10.8946 21.2652 11 21 11Z" fill="#636363"/>
<path d="M19.0011 6.99997C18.7839 7.00029 18.5725 6.92984 18.3988 6.79927C18.2252 6.6687 18.0988 6.48513 18.0389 6.27633C17.9789 6.06753 17.9885 5.84488 18.0664 5.64207C18.1443 5.43926 18.2861 5.26733 18.4704 5.15231L20.4704 3.90231C20.5817 3.83274 20.7056 3.78577 20.8351 3.76409C20.9645 3.74241 21.097 3.74645 21.2249 3.77596C21.3528 3.80548 21.4737 3.8599 21.5805 3.93612C21.6874 4.01234 21.7782 4.10886 21.8478 4.22018C21.9174 4.33149 21.9643 4.45542 21.986 4.58489C22.0077 4.71436 22.0037 4.84683 21.9742 4.97474C21.9446 5.10264 21.8902 5.22349 21.814 5.33036C21.7378 5.43724 21.6413 5.52806 21.5299 5.59763L19.5299 6.84763C19.3716 6.9474 19.1883 7.00022 19.0011 6.99997Z" fill="#636363"/>
<path d="M20.9991 16.25C20.812 16.2502 20.6286 16.1974 20.4703 16.0976L18.4703 14.8476C18.359 14.7781 18.2625 14.6872 18.1862 14.5804C18.11 14.4735 18.0556 14.3526 18.0261 14.2247C17.9966 14.0968 17.9925 13.9644 18.0142 13.8349C18.0359 13.7054 18.0829 13.5815 18.1524 13.4702C18.222 13.3589 18.3128 13.2623 18.4197 13.1861C18.5266 13.1099 18.6474 13.0555 18.7753 13.026C18.9032 12.9964 19.0357 12.9924 19.1652 13.0141C19.2946 13.0358 19.4186 13.0827 19.5299 13.1523L21.5299 14.4023C21.7142 14.5173 21.856 14.6893 21.9338 14.8921C22.0117 15.0949 22.0214 15.3175 21.9614 15.5263C21.9014 15.7351 21.775 15.9187 21.6014 16.0493C21.4278 16.1798 21.2164 16.2503 20.9991 16.25Z" fill="#636363"/>
</svg>
