<svg width="24" height="24" viewBox="0 0 24 24" fill="none" xmlns="http://www.w3.org/2000/svg">
<g clip-path="url(#clip0_6544_103552)">
<path fill-rule="evenodd" clip-rule="evenodd" d="M18.8984 5.43268L5.78946 10.1726L10.1567 12.7003L14.0075 8.84836C14.2029 8.65316 14.4677 8.54355 14.7439 8.54364C15.0201 8.54374 15.2849 8.65354 15.4801 8.84888C15.6753 9.04423 15.7849 9.30911 15.7848 9.58527C15.7847 9.86143 15.6749 10.1262 15.4796 10.3214L11.6277 14.1733L14.1574 18.5395L18.8984 5.43268ZM19.2346 3.09656C20.4787 2.64578 21.6842 3.85132 21.2334 5.09537L15.7346 20.2999C15.2828 21.5471 13.5796 21.6991 12.9144 20.5508L9.56535 14.7647L3.77919 11.4156C2.63091 10.7504 2.7829 9.0472 4.03008 8.59539L19.2346 3.09656Z" fill="#636363"/>
</g>
<defs>
<clipPath id="clip0_6544_103552">
<rect width="24" height="24" fill="white"/>
</clipPath>
</defs>
</svg>
