<svg width="16" height="16" viewBox="0 0 16 16" fill="none" xmlns="http://www.w3.org/2000/svg">
<g clip-path="url(#clip0_6544_103675)">
<path d="M6.74259 2.99403C6.79325 2.46403 7.34659 2.02736 7.90459 2.34603C9.06459 3.02536 10.1593 3.79936 11.2179 4.62669C12.5246 5.65869 13.5733 6.63136 14.3159 7.40803C14.6379 7.74603 14.6079 8.28003 14.2999 8.60269C13.5645 9.3634 12.7866 10.0819 11.9699 10.7547C10.6779 11.8127 9.33992 12.838 7.88325 13.66C7.38925 13.9387 6.85392 13.62 6.75858 13.126L6.74725 13.0507L6.59592 10.668C5.38525 10.6934 4.21325 11.1094 3.27592 11.8834L3.09925 12.0314L3.01392 12.1007L2.84925 12.2287C2.82259 12.2487 2.79592 12.2687 2.76925 12.2874L2.61592 12.394C2.5683 12.4253 2.51984 12.4553 2.47059 12.484L2.33325 12.558C1.68925 12.876 1.33325 12.5947 1.33325 11.3334C1.33325 8.39736 3.49659 5.78469 6.42125 5.38869L6.59392 5.36803L6.74259 2.99403ZM8.01525 3.97669L7.88725 6.29136C7.88293 6.37049 7.85056 6.44548 7.79595 6.5029C7.74134 6.56032 7.66806 6.59641 7.58925 6.60469L6.68192 6.69936C4.63858 6.94336 3.01725 8.54069 2.71659 10.6287C3.71594 9.89185 4.90201 9.45022 6.13992 9.35403L6.40459 9.33869L7.54059 9.31469C7.62699 9.31283 7.71075 9.3446 7.77418 9.40331C7.83762 9.46202 7.87576 9.54306 7.88059 9.62936L8.01192 12.0267C9.08058 11.346 10.0993 10.5627 11.1213 9.72669C11.7813 9.17835 12.4168 8.60112 13.0259 7.99669L12.8539 7.82603L12.4833 7.47069C11.8128 6.84263 11.1157 6.24363 10.3939 5.67536C9.62838 5.07179 8.83459 4.50493 8.01525 3.97669Z" fill="#7000FF"/>
</g>
<defs>
<clipPath id="clip0_6544_103675">
<rect width="16" height="16" fill="white"/>
</clipPath>
</defs>
</svg>
