<svg width="16" height="16" viewBox="0 0 16 16" fill="none" xmlns="http://www.w3.org/2000/svg">
<rect width="16" height="16" rx="8" fill="white"/>
<path d="M8 7C7.80222 7 7.60888 7.05865 7.44443 7.16853C7.27998 7.27841 7.15181 7.43459 7.07612 7.61732C7.00043 7.80004 6.98063 8.00111 7.01922 8.19509C7.0578 8.38907 7.15304 8.56725 7.29289 8.70711C7.43275 8.84696 7.61093 8.9422 7.80491 8.98078C7.99889 9.01937 8.19996 8.99957 8.38268 8.92388C8.56541 8.84819 8.72159 8.72002 8.83147 8.55557C8.94135 8.39112 9 8.19778 9 8C9 7.73478 8.89464 7.48043 8.70711 7.29289C8.51957 7.10536 8.26522 7 8 7ZM4.5 7C4.30222 7 4.10888 7.05865 3.94443 7.16853C3.77998 7.27841 3.65181 7.43459 3.57612 7.61732C3.50043 7.80004 3.48063 8.00111 3.51922 8.19509C3.5578 8.38907 3.65304 8.56725 3.79289 8.70711C3.93275 8.84696 4.11093 8.9422 4.30491 8.98078C4.49889 9.01937 4.69996 8.99957 4.88268 8.92388C5.06541 8.84819 5.22159 8.72002 5.33147 8.55557C5.44135 8.39112 5.5 8.19778 5.5 8C5.5 7.73478 5.39464 7.48043 5.20711 7.29289C5.01957 7.10536 4.76522 7 4.5 7ZM11.5 7C11.3022 7 11.1089 7.05865 10.9444 7.16853C10.78 7.27841 10.6518 7.43459 10.5761 7.61732C10.5004 7.80004 10.4806 8.00111 10.5192 8.19509C10.5578 8.38907 10.653 8.56725 10.7929 8.70711C10.9327 8.84696 11.1109 8.9422 11.3049 8.98078C11.4989 9.01937 11.7 8.99957 11.8827 8.92388C12.0654 8.84819 12.2216 8.72002 12.3315 8.55557C12.4414 8.39112 12.5 8.19778 12.5 8C12.5 7.73478 12.3946 7.48043 12.2071 7.29289C12.0196 7.10536 11.7652 7 11.5 7Z" fill="#1F1F1F"/>
</svg>
