<svg width="28" height="28" viewBox="0 0 28 28" fill="none" xmlns="http://www.w3.org/2000/svg">
<path d="M7.802 4.38412C7.802 3.25327 6.88207 2.33334 5.75122 2.33334C4.62037 2.33334 3.70044 3.25327 3.70044 4.38412C3.70044 5.51496 4.62037 6.4349 5.75122 6.4349C6.88207 6.4349 7.802 5.51496 7.802 4.38412ZM3.01685 10.5365H8.4856C8.86344 10.5365 9.16919 10.2307 9.16919 9.85287C9.16919 7.96829 7.63644 6.4349 5.75122 6.4349C3.86601 6.4349 2.33325 7.96829 2.33325 9.85287C2.33325 10.2307 2.639 10.5365 3.01685 10.5365ZM7.802 19.5143C7.802 18.3835 6.88207 17.4635 5.75122 17.4635C4.62037 17.4635 3.70044 18.3835 3.70044 19.5143C3.70044 20.6452 4.62037 21.5651 5.75122 21.5651C6.88207 21.5651 7.802 20.6452 7.802 19.5143ZM5.75122 21.5651C3.86601 21.5651 2.33325 23.0985 2.33325 24.9831C2.33325 25.3609 2.639 25.6667 3.01685 25.6667H8.4856C8.86344 25.6667 9.16919 25.3609 9.16919 24.9831C9.16919 23.0985 7.63644 21.5651 5.75122 21.5651ZM24.2994 4.38412C24.2994 3.25327 23.3795 2.33334 22.2486 2.33334C21.1178 2.33334 20.1978 3.25327 20.1978 4.38412C20.1978 5.51496 21.1178 6.4349 22.2486 6.4349C23.3795 6.4349 24.2994 5.51496 24.2994 4.38412ZM19.5142 10.5365H24.983C25.3608 10.5365 25.6666 10.2307 25.6666 9.85287C25.6666 7.96829 24.1338 6.4349 22.2486 6.4349C20.3634 6.4349 18.8306 7.96829 18.8306 9.85287C18.8306 10.2307 19.1364 10.5365 19.5142 10.5365ZM24.2994 19.5143C24.2994 18.3835 23.3795 17.4635 22.2486 17.4635C21.1178 17.4635 20.1978 18.3835 20.1978 19.5143C20.1978 20.6452 21.1178 21.5651 22.2486 21.5651C23.3795 21.5651 24.2994 20.6452 24.2994 19.5143ZM22.2486 21.5651C20.3634 21.5651 18.8306 23.0985 18.8306 24.9831C18.8306 25.3609 19.1364 25.6667 19.5142 25.6667H24.983C25.3608 25.6667 25.6666 25.3609 25.6666 24.9831C25.6666 23.0985 24.1338 21.5651 22.2486 21.5651ZM20.1523 14C20.1523 12.1154 18.6195 10.582 16.7343 10.582H11.2655C9.38033 10.582 7.84758 12.1154 7.84758 14C7.84758 15.8846 9.38033 17.418 11.2655 17.418H11.7876C12.0493 17.418 12.2829 17.5622 12.3991 17.7958L13.3884 19.7745C13.5046 20.0061 13.7409 20.1523 13.9999 20.1523C14.259 20.1523 14.4953 20.0061 14.6114 19.7745L15.6008 17.7951C15.7169 17.5622 15.9506 17.418 16.2123 17.418H16.7343C18.6195 17.418 20.1523 15.8846 20.1523 14Z" fill="url(#paint0_linear_9316_6098)"/>
<path d="M18.5248 4.79621C15.697 3.40231 12.303 3.40231 9.4752 4.79621C9.13609 4.96309 8.99723 5.37298 9.16412 5.71213C9.33101 6.04992 9.74358 6.18946 10.0787 6.02321C12.53 4.81489 15.47 4.81489 17.9213 6.02321C18.2554 6.18796 18.6673 6.05411 18.8359 5.71213C19.0028 5.37298 18.864 4.96309 18.5248 4.79621ZM24.1498 12.536C24.095 12.1602 23.7372 11.8985 23.3754 11.9559C23.0016 12.01 22.7425 12.3565 22.7959 12.7297C22.856 13.1489 22.8867 13.5761 22.8867 14C22.8867 14.4893 22.8467 14.976 22.7692 15.4473C22.7078 15.8192 22.9588 16.1717 23.3313 16.233C23.6926 16.2953 24.0553 16.0522 24.1177 15.6703C24.2085 15.1262 24.2539 14.5641 24.2539 14C24.2539 13.5113 24.2192 13.0187 24.1498 12.536ZM16.8479 22.4208C15.0214 23.0389 12.9786 23.0389 11.1521 22.4208C10.797 22.3006 10.4058 22.4922 10.2856 22.8493C10.1641 23.2065 10.3564 23.595 10.7142 23.7158C11.769 24.073 12.8745 24.2539 14 24.2539C15.1255 24.2539 16.231 24.073 17.2858 23.7158C17.6436 23.595 17.8359 23.2065 17.7144 22.8493C17.5942 22.4922 17.207 22.2999 16.8479 22.4208ZM5.11328 14C5.11328 13.5761 5.144 13.1489 5.20406 12.7296C5.25747 12.3565 4.99844 12.01 4.6246 11.9559C4.2561 11.8985 3.90364 12.1602 3.85023 12.536C3.78082 13.0187 3.74609 13.5113 3.74609 14C3.74609 14.5641 3.79148 15.1262 3.88227 15.6703C3.94465 16.0521 4.30728 16.2953 4.66867 16.233C5.04118 16.1716 5.2922 15.8192 5.23077 15.4473C5.15334 14.976 5.11328 14.4893 5.11328 14ZM11.9492 14C11.9492 13.6225 11.6432 13.3164 11.2656 13.3164C10.8881 13.3164 10.582 13.6225 10.582 14C10.582 14.3775 10.8881 14.6836 11.2656 14.6836C11.6432 14.6836 11.9492 14.3775 11.9492 14ZM14.6836 14C14.6836 13.6225 14.3775 13.3164 14 13.3164C13.6225 13.3164 13.3164 13.6225 13.3164 14C13.3164 14.3775 13.6225 14.6836 14 14.6836C14.3775 14.6836 14.6836 14.3775 14.6836 14ZM17.418 14C17.418 13.6225 17.1119 13.3164 16.7344 13.3164C16.3568 13.3164 16.0508 13.6225 16.0508 14C16.0508 14.3775 16.3568 14.6836 16.7344 14.6836C17.1119 14.6836 17.418 14.3775 17.418 14Z" fill="url(#paint1_linear_9316_6098)"/>
<defs>
<linearGradient id="paint0_linear_9316_6098" x1="13.9999" y1="25.6667" x2="13.9999" y2="2.33334" gradientUnits="userSpaceOnUse">
<stop stop-color="#A93AFF"/>
<stop offset="1" stop-color="#FF81FF"/>
</linearGradient>
<linearGradient id="paint1_linear_9316_6098" x1="14" y1="24.2539" x2="14" y2="3.75081" gradientUnits="userSpaceOnUse">
<stop stop-color="#FFBEF9"/>
<stop offset="1" stop-color="#FFF1FF"/>
</linearGradient>
</defs>
</svg>
