<svg width="28" height="28" viewBox="0 0 28 28" fill="none" xmlns="http://www.w3.org/2000/svg">
<path d="M23.3333 9.625H17.7917V23.3333C17.7947 24.0588 17.5837 24.769 17.185 25.375H23.3333C23.8739 25.3719 24.3914 25.1559 24.7736 24.7736C25.1559 24.3914 25.3719 23.8739 25.375 23.3333V11.6667C25.3719 11.1261 25.1559 10.6086 24.7736 10.2264C24.3914 9.84415 23.8739 9.62806 23.3333 9.625ZM22.1667 21.875H19.8333C19.6013 21.875 19.3787 21.7828 19.2146 21.6187C19.0505 21.4546 18.9583 21.2321 18.9583 21C18.9583 20.7679 19.0505 20.5454 19.2146 20.3813C19.3787 20.2172 19.6013 20.125 19.8333 20.125H22.1667C22.3987 20.125 22.6213 20.2172 22.7854 20.3813C22.9495 20.5454 23.0417 20.7679 23.0417 21C23.0417 21.2321 22.9495 21.4546 22.7854 21.6187C22.6213 21.7828 22.3987 21.875 22.1667 21.875ZM22.1667 18.375H19.8333C19.6013 18.375 19.3787 18.2828 19.2146 18.1187C19.0505 17.9546 18.9583 17.7321 18.9583 17.5C18.9583 17.2679 19.0505 17.0454 19.2146 16.8813C19.3787 16.7172 19.6013 16.625 19.8333 16.625H22.1667C22.3987 16.625 22.6213 16.7172 22.7854 16.8813C22.9495 17.0454 23.0417 17.2679 23.0417 17.5C23.0417 17.7321 22.9495 17.9546 22.7854 18.1187C22.6213 18.2828 22.3987 18.375 22.1667 18.375ZM22.1667 14.875H19.8333C19.6013 14.875 19.3787 14.7828 19.2146 14.6187C19.0505 14.4546 18.9583 14.2321 18.9583 14C18.9583 13.7679 19.0505 13.5454 19.2146 13.3813C19.3787 13.2172 19.6013 13.125 19.8333 13.125H22.1667C22.3987 13.125 22.6213 13.2172 22.7854 13.3813C22.9495 13.5454 23.0417 13.7679 23.0417 14C23.0417 14.2321 22.9495 14.4546 22.7854 14.6187C22.6213 14.7828 22.3987 14.875 22.1667 14.875ZM10.7917 18.6667V25.375H7.875V18.6667C7.875 18.5893 7.90573 18.5151 7.96043 18.4604C8.01512 18.4057 8.08931 18.375 8.16667 18.375H10.5C10.5774 18.375 10.6515 18.4057 10.7062 18.4604C10.7609 18.5151 10.7917 18.5893 10.7917 18.6667ZM14.5833 5.915L5.25 3.115C4.94593 3.02434 4.62492 3.0058 4.31244 3.06085C3.99996 3.11589 3.70461 3.24301 3.44983 3.43212C3.19504 3.62122 2.98784 3.86711 2.84467 4.15026C2.70149 4.43341 2.62628 4.74604 2.625 5.06333V23.3333C2.62806 23.8739 2.84415 24.3914 3.22637 24.7736C3.6086 25.1559 4.12613 25.3719 4.66667 25.375H6.125V18.6667C6.12806 18.1261 6.34415 17.6086 6.72637 17.2264C7.1086 16.8441 7.62613 16.6281 8.16667 16.625H10.5C11.0405 16.6281 11.5581 16.8441 11.9403 17.2264C12.3225 17.6086 12.5386 18.1261 12.5417 18.6667V25.375H14C14.5405 25.3719 15.0581 25.1559 15.4403 24.7736C15.8225 24.3914 16.0386 23.8739 16.0417 23.3333V7.86333C16.0437 7.42413 15.9024 6.99626 15.6392 6.64464C15.376 6.29302 15.0053 6.03685 14.5833 5.915ZM11.6667 14.875H7C6.76794 14.875 6.54538 14.7828 6.38128 14.6187C6.21719 14.4546 6.125 14.2321 6.125 14C6.125 13.7679 6.21719 13.5454 6.38128 13.3813C6.54538 13.2172 6.76794 13.125 7 13.125H11.6667C11.8987 13.125 12.1213 13.2172 12.2854 13.3813C12.4495 13.5454 12.5417 13.7679 12.5417 14C12.5417 14.2321 12.4495 14.4546 12.2854 14.6187C12.1213 14.7828 11.8987 14.875 11.6667 14.875ZM11.6667 11.375H7C6.76794 11.375 6.54538 11.2828 6.38128 11.1187C6.21719 10.9546 6.125 10.7321 6.125 10.5C6.125 10.2679 6.21719 10.0454 6.38128 9.88128C6.54538 9.71718 6.76794 9.625 7 9.625H11.6667C11.8987 9.625 12.1213 9.71718 12.2854 9.88128C12.4495 10.0454 12.5417 10.2679 12.5417 10.5C12.5417 10.7321 12.4495 10.9546 12.2854 11.1187C12.1213 11.2828 11.8987 11.375 11.6667 11.375Z" fill="url(#paint0_linear_8938_4109)"/>
<defs>
<linearGradient id="paint0_linear_8938_4109" x1="3.325" y1="24.8733" x2="21.3733" y2="6.825" gradientUnits="userSpaceOnUse">
<stop stop-color="#6D03A8"/>
<stop offset="1" stop-color="#FD60C4"/>
</linearGradient>
</defs>
</svg>
