<svg width="40" height="40" viewBox="0 0 40 40" fill="none" xmlns="http://www.w3.org/2000/svg">
<path fill-rule="evenodd" clip-rule="evenodd" d="M28.3498 14.4567C25.6065 14.4567 23.3665 12.2333 23.3665 9.49V6.08667L32.1698 14.4567H28.3498ZM22.5298 22.275C22.2865 22.5183 21.9665 22.64 21.6481 22.64C21.3265 22.64 21.0065 22.5183 20.7631 22.2733L18.9898 20.4917V27.5317C18.9898 28.2217 18.4298 28.7817 17.7398 28.7817C17.0498 28.7817 16.4898 28.2217 16.4898 27.5317V20.49L14.7165 22.2733C14.2298 22.7617 13.4381 22.7617 12.9481 22.275C12.4598 21.7883 12.4581 20.9983 12.9448 20.5083L16.8531 16.5833C17.0798 16.355 17.3931 16.2133 17.7398 16.2133C18.0865 16.2133 18.3998 16.355 18.6265 16.5833L22.5331 20.5083C23.0215 20.9983 23.0181 21.7883 22.5298 22.275ZM34.5081 14.75C34.5081 14.6833 34.5081 14.6333 34.4915 14.5667C34.4415 14.2667 34.3915 13.9667 34.3415 13.6833C34.3081 13.5 34.2248 13.35 34.0915 13.2167L24.6415 4.21667C24.5248 4.1 24.3581 4.01667 24.1915 4C23.9081 3.96667 23.6081 3.93333 23.3081 3.9C23.2581 3.88333 23.1915 3.88333 23.1415 3.88333C22.1748 3.8 21.1081 3.75 19.9915 3.75C9.05814 3.75 5.1748 8 5.1748 20C5.1748 31.9833 9.05814 36.25 19.9915 36.25C30.9415 36.25 34.8248 31.9833 34.8248 20C34.8248 18 34.7248 16.2667 34.5081 14.75Z" fill="#4284F3"/>
</svg>
