<svg width="20" height="20" viewBox="0 0 20 20" fill="none" xmlns="http://www.w3.org/2000/svg">
<path fill-rule="evenodd" clip-rule="evenodd" d="M14.1749 7.22833C12.8032 7.22833 11.6832 6.11667 11.6832 4.745V3.04333L16.0849 7.22833H14.1749ZM11.5316 13.5767H7.0324C6.6874 13.5767 6.4074 13.2967 6.4074 12.9517C6.4074 12.6067 6.6874 12.3267 7.0324 12.3267H11.5316C11.8774 12.3267 12.1566 12.6067 12.1566 12.9517C12.1566 13.2967 11.8774 13.5767 11.5316 13.5767ZM7.03074 8.98417H9.8274C10.1724 8.98417 10.4524 9.26417 10.4524 9.60917C10.4524 9.955 10.1724 10.2342 9.8274 10.2342H7.03074C6.68574 10.2342 6.40574 9.955 6.40574 9.60917C6.40574 9.26417 6.68574 8.98417 7.03074 8.98417ZM17.2541 7.375C17.2541 7.34167 17.2541 7.31667 17.2457 7.28333C17.2207 7.13333 17.1957 6.98333 17.1707 6.84167C17.1541 6.75 17.1124 6.675 17.0457 6.60833L12.3207 2.10833C12.2624 2.05 12.1791 2.00833 12.0957 2C11.9541 1.98333 11.8041 1.96667 11.6541 1.95C11.6291 1.94167 11.5957 1.94167 11.5707 1.94167C11.0874 1.9 10.5541 1.875 9.99574 1.875C4.52907 1.875 2.5874 4 2.5874 10C2.5874 15.9917 4.52907 18.125 9.99574 18.125C15.4707 18.125 17.4124 15.9917 17.4124 10C17.4124 9 17.3624 8.13333 17.2541 7.375Z" fill="black"/>
</svg>
