<svg width="20" height="20" viewBox="0 0 20 20" fill="none" xmlns="http://www.w3.org/2000/svg">
<path fill-rule="evenodd" clip-rule="evenodd" d="M14.1749 7.22833C12.8032 7.22833 11.6832 6.11667 11.6832 4.745V3.04333L16.0849 7.22833H14.1749ZM11.4424 11.5192H10.0266V12.9358C10.0266 13.2808 9.74657 13.5608 9.40157 13.5608C9.05657 13.5608 8.77657 13.2808 8.77657 12.9358V11.5192H7.3599C7.01407 11.5192 6.7349 11.24 6.7349 10.8942C6.7349 10.5492 7.01407 10.2692 7.3599 10.2692H8.77657V8.8525C8.77657 8.5075 9.05657 8.2275 9.40157 8.2275C9.74657 8.2275 10.0266 8.5075 10.0266 8.8525V10.2692H11.4424C11.7874 10.2692 12.0674 10.5492 12.0674 10.8942C12.0674 11.24 11.7874 11.5192 11.4424 11.5192ZM17.2541 7.375C17.2541 7.34167 17.2541 7.31667 17.2457 7.28333C17.2207 7.13333 17.1957 6.98333 17.1707 6.84167C17.1541 6.75 17.1124 6.675 17.0457 6.60833L12.3207 2.10833C12.2624 2.05 12.1791 2.00833 12.0957 2C11.9541 1.98333 11.8041 1.96667 11.6541 1.95C11.6291 1.94167 11.5957 1.94167 11.5707 1.94167C11.0874 1.9 10.5541 1.875 9.99574 1.875C4.52907 1.875 2.5874 4 2.5874 10C2.5874 15.9917 4.52907 18.125 9.99574 18.125C15.4707 18.125 17.4124 15.9917 17.4124 10C17.4124 9 17.3624 8.13333 17.2541 7.375Z" fill="#1F1F1F"/>
</svg>
