<svg width="40" height="41" viewBox="0 0 40 41" fill="none" xmlns="http://www.w3.org/2000/svg">
<g clip-path="url(#clip0_8450_96725)">
<path d="M26.4181 0.5H5.68807C5.11092 0.5 4.64307 0.967857 4.64307 1.87571V39.7857C4.64307 40.0321 5.11092 40.5 5.68807 40.5H34.3123C34.8895 40.5 35.3573 40.0321 35.3573 39.7857V9.77C35.3573 9.27286 35.2909 9.11286 35.1738 8.995L26.8624 0.683571C26.7445 0.566429 26.5845 0.5 26.4181 0.5Z" fill="#E9E9E0"/>
<path d="M26.7861 0.607849V9.07142H35.2497L26.7861 0.607849Z" fill="#D9D7CA"/>
<path d="M13.9389 24.3029C13.6903 24.3029 13.4517 24.2222 13.2482 24.07C12.5046 23.5122 12.4046 22.8914 12.4517 22.4686C12.5817 21.3057 14.0196 20.0886 16.7267 18.8486C17.801 16.4943 18.8232 13.5936 19.4324 11.17C18.7196 9.61858 18.0267 7.60572 18.5317 6.42501C18.7089 6.01144 18.9296 5.6943 19.3417 5.55715C19.5046 5.50287 19.916 5.4343 20.0674 5.4343C20.4274 5.4343 20.7439 5.89787 20.9682 6.18358C21.1789 6.45215 21.6567 7.02144 20.7017 11.0422C21.6646 13.0307 23.0289 15.0564 24.336 16.4436C25.2724 16.2743 26.0782 16.1879 26.7346 16.1879C27.8532 16.1879 28.531 16.4486 28.8074 16.9857C29.036 17.43 28.9424 17.9493 28.5289 18.5286C28.131 19.085 27.5824 19.3793 26.9432 19.3793C26.0746 19.3793 25.0632 18.8307 23.9353 17.7472C21.9089 18.1707 19.5424 18.9264 17.6296 19.7629C17.0324 21.03 16.4603 22.0507 15.9274 22.7993C15.1953 23.8243 14.5639 24.3029 13.9389 24.3029ZM15.8403 20.6414C14.3139 21.4993 13.6917 22.2043 13.6467 22.6014C13.6396 22.6672 13.6203 22.84 13.9546 23.0957C14.061 23.0622 14.6824 22.7786 15.8403 20.6414ZM25.581 17.4686C26.1632 17.9164 26.3053 18.1429 26.686 18.1429C26.8532 18.1429 27.3296 18.1357 27.5503 17.8279C27.6567 17.6786 27.6982 17.5829 27.7146 17.5314C27.6267 17.485 27.5103 17.3907 26.8753 17.3907C26.5146 17.3914 26.061 17.4072 25.581 17.4686ZM20.2453 12.7672C19.7346 14.5343 19.0603 16.4422 18.3353 18.17C19.8282 17.5907 21.451 17.085 22.9753 16.7272C22.011 15.6072 21.0474 14.2086 20.2453 12.7672ZM19.8117 6.72287C19.7417 6.74644 18.8617 7.97787 19.8803 9.02001C20.5582 7.5093 19.8424 6.71287 19.8117 6.72287Z" fill="#CC4B4C"/>
<path d="M34.3123 40.5H5.68807C5.11092 40.5 4.64307 40.0321 4.64307 39.455V28.3571H35.3573V39.455C35.3573 40.0321 34.8895 40.5 34.3123 40.5Z" fill="#CC4B4C"/>
<path d="M12.4182 38.3571H11.2461V31.16H13.3161C13.6218 31.16 13.9247 31.2086 14.224 31.3064C14.5232 31.4043 14.7918 31.5507 15.0297 31.7457C15.2675 31.9407 15.4597 32.1771 15.6061 32.4536C15.7525 32.73 15.8261 33.0407 15.8261 33.3864C15.8261 33.7514 15.764 34.0814 15.6404 34.3779C15.5168 34.6743 15.344 34.9236 15.1225 35.125C14.9011 35.3264 14.634 35.4829 14.3218 35.5936C14.0097 35.7043 13.664 35.7593 13.2868 35.7593H12.4175L12.4182 38.3571ZM12.4182 32.0486V34.9H13.4925C13.6354 34.9 13.7768 34.8757 13.9175 34.8264C14.0575 34.7779 14.1861 34.6979 14.3032 34.5871C14.4204 34.4764 14.5147 34.3221 14.5861 34.1236C14.6575 33.925 14.6932 33.6793 14.6932 33.3864C14.6932 33.2693 14.6768 33.1336 14.6447 32.9814C14.6118 32.8286 14.5454 32.6821 14.4447 32.5421C14.3432 32.4021 14.2018 32.285 14.0197 32.1907C13.8375 32.0964 13.5961 32.0493 13.2968 32.0493L12.4182 32.0486Z" fill="white"/>
<path d="M23.0138 34.5586C23.0138 35.1507 22.9503 35.6571 22.8231 36.0771C22.696 36.4971 22.5353 36.8486 22.3396 37.1321C22.1438 37.4157 21.9246 37.6386 21.6803 37.8014C21.436 37.9643 21.2003 38.0857 20.9724 38.1679C20.7446 38.2493 20.536 38.3014 20.3474 38.3243C20.1588 38.3457 20.0188 38.3571 19.9274 38.3571H17.2031V31.16H19.371C19.9767 31.16 20.5088 31.2564 20.9674 31.4479C21.426 31.6393 21.8074 31.8957 22.1103 32.2143C22.4131 32.5329 22.6388 32.8964 22.7888 33.3029C22.9388 33.71 23.0138 34.1286 23.0138 34.5586ZM19.5374 37.4979C20.3317 37.4979 20.9046 37.2443 21.256 36.7364C21.6074 36.2286 21.7831 35.4929 21.7831 34.5293C21.7831 34.23 21.7474 33.9336 21.676 33.6407C21.6038 33.3479 21.466 33.0829 21.261 32.845C21.056 32.6071 20.7774 32.415 20.426 32.2686C20.0746 32.1221 19.6188 32.0486 19.0588 32.0486H18.3753V37.4979H19.5374Z" fill="white"/>
<path d="M25.9048 32.0486V34.3143H28.9127V35.115H25.9048V38.3571H24.7134V31.16H29.2148V32.0486H25.9048Z" fill="white"/>
</g>
<defs>
<clipPath id="clip0_8450_96725">
<rect width="40" height="40" fill="white" transform="translate(0 0.5)"/>
</clipPath>
</defs>
</svg>
