<svg width="28" height="28" viewBox="0 0 28 28" fill="none" xmlns="http://www.w3.org/2000/svg">
<path d="M19.0931 20.9906V21.9881C19.0925 22.2497 18.988 22.5004 18.8026 22.685C18.6171 22.8696 18.366 22.973 18.1044 22.9724H10.3956C10.134 22.973 9.88287 22.8696 9.69745 22.685C9.51204 22.5004 9.40752 22.2497 9.40688 21.9881V20.9906C9.40703 20.4939 9.56345 20.0099 9.85398 19.6071C10.1445 19.2043 10.5544 18.9031 11.0256 18.7462L11.6775 18.5274C12.0141 18.8675 12.4147 19.1375 12.8563 19.3217C13.2978 19.506 13.7716 19.6008 14.25 19.6008C14.7285 19.6008 15.2022 19.5059 15.6438 19.3217C16.0853 19.1374 16.486 18.8674 16.8225 18.5274L17.4744 18.7462C17.9456 18.9031 18.3555 19.2043 18.646 19.6071C18.9366 20.0099 19.093 20.4939 19.0931 20.9906ZM14.25 10.4599C14.7899 10.4599 15.3178 10.2998 15.7667 9.99985C16.2157 9.69988 16.5656 9.27351 16.7722 8.77467C16.9788 8.27582 17.0329 7.72691 16.9275 7.19734C16.8222 6.66778 16.5622 6.18134 16.1804 5.79954C15.7986 5.41774 15.3122 5.15773 14.7826 5.0524C14.253 4.94706 13.7041 5.00112 13.2053 5.20775C12.7064 5.41438 12.2801 5.76429 11.9801 6.21323C11.6801 6.66218 11.52 7.19 11.52 7.72994C11.5209 8.4537 11.8089 9.14755 12.3206 9.65932C12.8324 10.1711 13.5262 10.459 14.25 10.4599ZM10.8944 14.6949C11.158 14.0195 11.6193 13.4393 12.218 13.0303C12.8167 12.6212 13.5249 12.4024 14.25 12.4024C14.9751 12.4024 15.6833 12.6212 16.282 13.0303C16.8807 13.4393 17.342 14.0195 17.6056 14.6949H18.0781C18.1762 13.9083 18.5315 13.1762 19.0888 12.6124C19.07 12.1332 18.9053 11.6712 18.6168 11.2881C18.3283 10.905 17.9297 10.6191 17.4744 10.4687L16.8181 10.2499C16.4843 10.5933 16.0851 10.8662 15.644 11.0526C15.2029 11.2389 14.7289 11.335 14.25 11.335C13.7711 11.335 13.2971 11.2389 12.856 11.0526C12.4149 10.8662 12.0157 10.5933 11.6819 10.2499L11.0256 10.4687C10.5703 10.6191 10.1717 10.905 9.88321 11.2881C9.59472 11.6712 9.43006 12.1332 9.41126 12.6124C9.96848 13.1762 10.3238 13.9083 10.4219 14.6949H10.8944ZM14.25 13.2774C13.7094 13.277 13.1809 13.4369 12.7313 13.737C12.2816 14.037 11.9311 14.4637 11.724 14.9631C11.517 15.4624 11.4627 16.0119 11.568 16.5421C11.6734 17.0723 11.9336 17.5593 12.3159 17.9416C12.6981 18.3238 13.1851 18.5841 13.7153 18.6894C14.2455 18.7948 14.7951 18.7405 15.2944 18.5334C15.7937 18.3264 16.2204 17.9758 16.5205 17.5262C16.8205 17.0765 16.9804 16.548 16.98 16.0074C16.9791 15.2837 16.6912 14.5898 16.1794 14.0781C15.6676 13.5663 14.9738 13.2784 14.25 13.2774ZM6.84313 17.8712C7.38351 17.8716 7.91187 17.7118 8.36142 17.4119C8.81097 17.1121 9.1615 16.6857 9.36869 16.1866C9.57588 15.6875 9.63043 15.1382 9.52543 14.6081C9.42043 14.078 9.16061 13.591 8.77881 13.2086C8.39701 12.8262 7.91039 12.5656 7.38049 12.4597C6.85058 12.3539 6.30118 12.4076 5.80178 12.614C5.30237 12.8203 4.87538 13.1702 4.5748 13.6193C4.27423 14.0683 4.11356 14.5964 4.11313 15.1368C4.11389 15.861 4.40162 16.5554 4.9133 17.0679C5.42499 17.5804 6.11892 17.8693 6.84313 17.8712ZM21.6569 17.8712C22.1973 17.8716 22.7256 17.7118 23.1752 17.4119C23.6247 17.1121 23.9752 16.6857 24.1824 16.1866C24.3896 15.6875 24.4442 15.1382 24.3392 14.6081C24.2342 14.078 23.9744 13.591 23.5926 13.2086C23.2108 12.8262 22.7241 12.5656 22.1942 12.4597C21.6643 12.3539 21.1149 12.4076 20.6155 12.614C20.1161 12.8203 19.6891 13.1702 19.3886 13.6193C19.088 14.0683 18.9273 14.5964 18.9269 15.1368C18.9276 15.861 19.2154 16.5554 19.7271 17.0679C20.2387 17.5804 20.9327 17.8693 21.6569 17.8712ZM24.8813 17.8756L24.2294 17.6568C23.8954 18.0015 23.4956 18.2755 23.0537 18.4626C22.6118 18.6498 22.1368 18.7462 21.6569 18.7462C21.177 18.7462 20.7019 18.6498 20.26 18.4626C19.8181 18.2755 19.4183 18.0015 19.0843 17.6568C18.7342 17.7584 18.3921 17.8856 18.0606 18.0374C18.6292 18.2937 19.1117 18.7087 19.4501 19.2326C19.7885 19.7564 19.9684 20.3669 19.9682 20.9906C19.9593 21.0801 19.9825 22.0374 19.9638 22.1018H25.5113C25.6411 22.1019 25.7698 22.0765 25.8898 22.0268C26.0098 21.9772 26.1189 21.9044 26.2107 21.8125C26.3025 21.7207 26.3754 21.6116 26.425 21.4916C26.4747 21.3716 26.5001 21.2429 26.5 21.1131V20.1199C26.5011 19.623 26.3452 19.1384 26.0545 18.7354C25.7638 18.3323 25.3531 18.0314 24.8813 17.8756ZM10.4394 18.0374C10.1069 17.888 9.76493 17.7608 9.41563 17.6568C9.07908 17.9968 8.67844 18.2668 8.23688 18.4511C7.79532 18.6353 7.32161 18.7302 6.84315 18.7302C6.36469 18.7302 5.89097 18.6354 5.44941 18.4511C5.00784 18.2669 4.60719 17.9969 4.27063 17.6568L3.61876 17.8756C3.14686 18.0314 2.73625 18.3323 2.44555 18.7354C2.15485 19.1384 1.99891 19.623 2.00001 20.1199V21.1131C1.99987 21.2429 2.02535 21.3716 2.075 21.4916C2.12464 21.6116 2.19746 21.7207 2.2893 21.8125C2.38115 21.9044 2.4902 21.9772 2.61022 22.0268C2.73024 22.0765 2.85887 22.1019 2.98876 22.1018H8.53626C8.52275 22.0896 8.53981 21.0396 8.53188 20.9906C8.53163 20.3669 8.71151 19.7564 9.04989 19.2326C9.38827 18.7087 9.87076 18.2937 10.4394 18.0374Z" fill="url(#paint0_linear_8938_4017)"/>
<defs>
<linearGradient id="paint0_linear_8938_4017" x1="2.00001" y1="13.9862" x2="26.5" y2="13.9862" gradientUnits="userSpaceOnUse">
<stop stop-color="#00C0FF"/>
<stop offset="1" stop-color="#5558FF"/>
</linearGradient>
</defs>
</svg>
