<svg width="20" height="20" viewBox="0 0 20 20" fill="none" xmlns="http://www.w3.org/2000/svg">
<path d="M10.0047 6.70884H12.7553C13.5723 6.71209 14.0671 7.20687 14.0704 8.02066C14.0736 9.22832 14.0769 10.4392 14.0736 11.6469C14.0736 12.4151 13.5528 12.9392 12.7813 12.9522C12.6511 12.9587 12.5177 12.9555 12.3875 12.9457C12.1889 12.9262 12.1238 12.9945 12.1271 13.1996C12.1368 14.1664 12.1075 15.1332 12.1401 16.0967C12.1694 16.9918 11.5346 17.5387 10.7339 17.5029C10.2 17.4801 9.66291 17.4996 9.12906 17.4964C8.3934 17.4931 7.87258 16.9723 7.86932 16.2334C7.86607 15.2341 7.86607 14.2315 7.86607 13.2321C7.86607 12.9522 7.86932 12.9522 7.57636 12.9555C7.39733 12.962 7.21504 12.9555 7.03601 12.9424C6.37847 12.8643 5.93251 12.3858 5.92926 11.7218C5.91949 10.6931 5.926 9.66451 5.926 8.63588C5.926 8.40151 5.91624 8.16389 5.926 7.92626C5.9553 7.21664 6.44357 6.72511 7.15319 6.71535C8.10369 6.69907 9.0542 6.70884 10.0047 6.70884Z" fill="url(#paint0_linear_6544_104073)"/>
<path d="M5.48657 7.21339C5.10897 7.78304 5.20337 8.39826 5.19686 9.00046C5.19035 9.99979 5.19361 10.9991 5.20012 11.9984C5.20663 12.9392 5.76326 13.6781 6.67144 13.9353C6.83094 13.9808 6.87977 14.0427 6.87326 14.2022C6.86024 14.5212 6.87326 14.8402 6.86675 15.1592C6.85699 15.7386 6.42731 16.1748 5.85115 16.1878C5.33032 16.1976 4.8095 16.2008 4.28868 16.1911C3.73205 16.1813 3.29911 15.7191 3.2926 15.1397C3.28935 14.3063 3.28609 13.473 3.29586 12.6397C3.29911 12.4379 3.24052 12.3695 3.0387 12.3826C2.71319 12.3988 2.38442 12.4151 2.10122 12.197C1.83104 11.9887 1.67154 11.7218 1.67154 11.38C1.66503 10.3155 1.66503 9.25436 1.67154 8.19318C1.67479 7.64632 2.09796 7.19385 2.63832 7.18409C3.5465 7.16781 4.45794 7.18083 5.36613 7.18083C5.40519 7.1906 5.44751 7.20037 5.48657 7.21339Z" fill="url(#paint1_linear_6544_104073)"/>
<path d="M14.6596 7.17761H15.3594C15.9844 7.17761 16.6094 7.17761 17.2344 7.18087C17.8984 7.18412 18.3281 7.61706 18.3314 8.28111V11.3019C18.3314 11.9431 17.9049 12.3728 17.2669 12.3891H17.2246C16.707 12.3956 16.707 12.3956 16.7038 12.9034C16.7038 13.6326 16.7038 14.3617 16.7005 15.0909C16.6973 15.7745 16.2774 16.1911 15.5938 16.1944C15.1218 16.1976 14.6498 16.1976 14.1778 16.1944C13.6147 16.2009 13.1492 15.7549 13.1329 15.1918C13.1231 14.8435 13.1329 14.4984 13.1296 14.1501C13.1296 14.0395 13.1687 13.9939 13.2761 13.9678C14.2885 13.7172 14.8679 12.9815 14.8744 11.9366C14.8776 10.7062 14.8907 9.47574 14.8679 8.24855C14.8581 7.90025 14.7344 7.55195 14.6596 7.17761Z" fill="url(#paint2_linear_6544_104073)"/>
<path d="M7.86609 3.80529C7.86609 2.62692 8.81985 1.67317 9.99495 1.66666C11.1668 1.66666 12.1368 2.63018 12.1336 3.79878C12.1336 4.97714 11.1798 5.93415 10.0015 5.93741C8.8231 5.94066 7.86609 4.98365 7.86609 3.80529Z" fill="url(#paint3_linear_6544_104073)"/>
<path d="M13.1296 4.75251C13.1361 3.75969 13.9434 2.96218 14.933 2.96543H14.9428C15.903 2.97194 16.707 3.79224 16.7005 4.76553C16.694 5.73882 15.8867 6.54284 14.9167 6.53958C13.9304 6.53958 13.1296 5.73882 13.1296 4.75251Z" fill="url(#paint4_linear_6544_104073)"/>
<path d="M5.07641 2.97202C6.03016 2.959 6.85371 3.76627 6.86674 4.72329C6.88301 5.70634 6.08225 6.53315 5.10245 6.54291C4.12265 6.55268 3.30235 5.76168 3.29584 4.79164C3.27957 3.80208 4.06731 2.98829 5.05687 2.97202H5.07641Z" fill="url(#paint5_linear_6544_104073)"/>
<defs>
<linearGradient id="paint0_linear_6544_104073" x1="9.99897" y1="1.22604" x2="9.99897" y2="17.7684" gradientUnits="userSpaceOnUse">
<stop stop-color="#FDAE3E"/>
<stop offset="1" stop-color="#FF0749"/>
</linearGradient>
<linearGradient id="paint1_linear_6544_104073" x1="4.2683" y1="1.22604" x2="4.2683" y2="17.7684" gradientUnits="userSpaceOnUse">
<stop stop-color="#FDAE3E"/>
<stop offset="1" stop-color="#FF0749"/>
</linearGradient>
<linearGradient id="paint2_linear_6544_104073" x1="15.7289" y1="1.22607" x2="15.7289" y2="17.7684" gradientUnits="userSpaceOnUse">
<stop stop-color="#FDAE3E"/>
<stop offset="1" stop-color="#FF0749"/>
</linearGradient>
<linearGradient id="paint3_linear_6544_104073" x1="9.99951" y1="1.22607" x2="9.99951" y2="17.7684" gradientUnits="userSpaceOnUse">
<stop stop-color="#FDAE3E"/>
<stop offset="1" stop-color="#FF0749"/>
</linearGradient>
<linearGradient id="paint4_linear_6544_104073" x1="14.9176" y1="1.22605" x2="14.9176" y2="17.7684" gradientUnits="userSpaceOnUse">
<stop stop-color="#FDAE3E"/>
<stop offset="1" stop-color="#FF0749"/>
</linearGradient>
<linearGradient id="paint5_linear_6544_104073" x1="5.07946" y1="1.22612" x2="5.07946" y2="17.7684" gradientUnits="userSpaceOnUse">
<stop stop-color="#FDAE3E"/>
<stop offset="1" stop-color="#FF0749"/>
</linearGradient>
</defs>
</svg>
