<svg width="24" height="24" viewBox="0 0 24 24" fill="none" xmlns="http://www.w3.org/2000/svg">
<path d="M6.58182 6.29091C6.58182 6.8985 6.34046 7.4812 5.91083 7.91083C5.4812 8.34046 4.8985 8.58182 4.29091 8.58182C3.68332 8.58182 3.10062 8.34046 2.67099 7.91083C2.24136 7.4812 2 6.8985 2 6.29091C2 5.68332 2.24136 5.10062 2.67099 4.67099C3.10062 4.24136 3.68332 4 4.29091 4C4.8985 4 5.4812 4.24136 5.91083 4.67099C6.34046 5.10062 6.58182 5.68332 6.58182 6.29091ZM6.58182 12.4C6.58182 13.0076 6.34046 13.5903 5.91083 14.0199C5.4812 14.4495 4.8985 14.6909 4.29091 14.6909C3.68332 14.6909 3.10062 14.4495 2.67099 14.0199C2.24136 13.5903 2 13.0076 2 12.4C2 11.7924 2.24136 11.2097 2.67099 10.7801C3.10062 10.3505 3.68332 10.1091 4.29091 10.1091C4.8985 10.1091 5.4812 10.3505 5.91083 10.7801C6.34046 11.2097 6.58182 11.7924 6.58182 12.4ZM6.58182 18.5091C6.58182 19.1167 6.34046 19.6994 5.91083 20.129C5.4812 20.5586 4.8985 20.8 4.29091 20.8C3.68332 20.8 3.10062 20.5586 2.67099 20.129C2.24136 19.6994 2 19.1167 2 18.5091C2 17.9015 2.24136 17.3188 2.67099 16.8892C3.10062 16.4595 3.68332 16.2182 4.29091 16.2182C4.8985 16.2182 5.4812 16.4595 5.91083 16.8892C6.34046 17.3188 6.58182 17.9015 6.58182 18.5091Z" fill="#4284F3"/>
<path fill-rule="evenodd" clip-rule="evenodd" d="M8.10938 6.29088C8.10938 5.88583 8.27028 5.49736 8.5567 5.21094C8.84312 4.92452 9.23159 4.76361 9.63665 4.76361H20.3276C20.7326 4.76361 21.1211 4.92452 21.4075 5.21094C21.6939 5.49736 21.8548 5.88583 21.8548 6.29088C21.8548 6.69594 21.6939 7.08441 21.4075 7.37083C21.1211 7.65725 20.7326 7.81816 20.3276 7.81816H9.63665C9.23159 7.81816 8.84312 7.65725 8.5567 7.37083C8.27028 7.08441 8.10938 6.69594 8.10938 6.29088ZM8.10938 12.4C8.10938 11.9949 8.27028 11.6064 8.5567 11.32C8.84312 11.0336 9.23159 10.8727 9.63665 10.8727H20.3276C20.7326 10.8727 21.1211 11.0336 21.4075 11.32C21.6939 11.6064 21.8548 11.9949 21.8548 12.4C21.8548 12.805 21.6939 13.1935 21.4075 13.4799C21.1211 13.7663 20.7326 13.9272 20.3276 13.9272H9.63665C9.23159 13.9272 8.84312 13.7663 8.5567 13.4799C8.27028 13.1935 8.10938 12.805 8.10938 12.4ZM8.10938 18.5091C8.10938 18.104 8.27028 17.7155 8.5567 17.4291C8.84312 17.1427 9.23159 16.9818 9.63665 16.9818H20.3276C20.7326 16.9818 21.1211 17.1427 21.4075 17.4291C21.6939 17.7155 21.8548 18.104 21.8548 18.5091C21.8548 18.9141 21.6939 19.3026 21.4075 19.589C21.1211 19.8754 20.7326 20.0363 20.3276 20.0363H9.63665C9.23159 20.0363 8.84312 19.8754 8.5567 19.589C8.27028 19.3026 8.10938 18.9141 8.10938 18.5091Z" fill="#4284F3"/>
</svg>
