<svg width="20" height="20" viewBox="0 0 20 20" fill="none" xmlns="http://www.w3.org/2000/svg">
<path d="M15 18.125H5C3.27688 18.125 1.875 16.7231 1.875 15V5C1.875 3.27688 3.27688 1.875 5 1.875H15C16.7231 1.875 18.125 3.27688 18.125 5V15C18.125 16.7231 16.7231 18.125 15 18.125Z" fill="url(#paint0_linear_6544_103700)"/>
<path d="M15.6981 11.0644C14.9688 10.3344 13.7812 10.3344 13.0519 11.0644L11.6894 12.4269C11.4469 12.6694 11.0525 12.6694 10.8106 12.4269L8.19812 9.81438C7.46875 9.08438 6.28125 9.08438 5.55188 9.81438L1.875 13.4913V15C1.875 16.7231 3.27688 18.125 5 18.125H15C16.7231 18.125 18.125 16.7231 18.125 15V13.4913L15.6981 11.0644Z" fill="url(#paint1_linear_6544_103700)"/>
<path d="M12.8125 8.75C13.848 8.75 14.6875 7.91053 14.6875 6.875C14.6875 5.83947 13.848 5 12.8125 5C11.777 5 10.9375 5.83947 10.9375 6.875C10.9375 7.91053 11.777 8.75 12.8125 8.75Z" fill="url(#paint2_linear_6544_103700)"/>
<defs>
<linearGradient id="paint0_linear_6544_103700" x1="10" y1="2.05813" x2="10" y2="12" gradientUnits="userSpaceOnUse">
<stop stop-color="#4793EB"/>
<stop offset="0.635" stop-color="#2367EC"/>
<stop offset="1" stop-color="#294CCD"/>
</linearGradient>
<linearGradient id="paint1_linear_6544_103700" x1="10" y1="9.17625" x2="10" y2="17.9656" gradientUnits="userSpaceOnUse">
<stop stop-color="#4AFF9E"/>
<stop offset="1" stop-color="#35B97D"/>
</linearGradient>
<linearGradient id="paint2_linear_6544_103700" x1="11.4869" y1="5.54938" x2="14.1381" y2="8.20062" gradientUnits="userSpaceOnUse">
<stop stop-color="#FED200"/>
<stop offset="0.272" stop-color="#FDCE01"/>
<stop offset="0.528" stop-color="#FBC205"/>
<stop offset="0.776" stop-color="#F8B00C"/>
<stop offset="1" stop-color="#F59815"/>
</linearGradient>
</defs>
</svg>
