<svg width="28" height="28" viewBox="0 0 28 28" fill="none" xmlns="http://www.w3.org/2000/svg">
<path d="M21 25.375H7C4.58763 25.375 2.625 23.4124 2.625 21V7C2.625 4.58763 4.58763 2.625 7 2.625H21C23.4124 2.625 25.375 4.58763 25.375 7V21C25.375 23.4124 23.4124 25.375 21 25.375Z" fill="url(#paint0_linear_8938_4069)"/>
<path d="M21.9774 15.4901C20.9563 14.4681 19.2937 14.4681 18.2726 15.4901L16.3651 17.3976C16.0256 17.7371 15.4735 17.7371 15.1349 17.3976L11.4774 13.7401C10.4562 12.7181 8.79375 12.7181 7.77263 13.7401L2.625 18.8877V21C2.625 23.4124 4.58763 25.375 7 25.375H21C23.4124 25.375 25.375 23.4124 25.375 21V18.8877L21.9774 15.4901Z" fill="url(#paint1_linear_8938_4069)"/>
<path d="M17.9375 12.25C19.3872 12.25 20.5625 11.0747 20.5625 9.625C20.5625 8.17525 19.3872 7 17.9375 7C16.4878 7 15.3125 8.17525 15.3125 9.625C15.3125 11.0747 16.4878 12.25 17.9375 12.25Z" fill="url(#paint2_linear_8938_4069)"/>
<defs>
<linearGradient id="paint0_linear_8938_4069" x1="14" y1="2.88138" x2="14" y2="16.8" gradientUnits="userSpaceOnUse">
<stop stop-color="#4793EB"/>
<stop offset="0.635" stop-color="#2367EC"/>
<stop offset="1" stop-color="#294CCD"/>
</linearGradient>
<linearGradient id="paint1_linear_8938_4069" x1="14" y1="12.8467" x2="14" y2="25.1519" gradientUnits="userSpaceOnUse">
<stop stop-color="#4AFF9E"/>
<stop offset="1" stop-color="#35B97D"/>
</linearGradient>
<linearGradient id="paint2_linear_8938_4069" x1="16.0816" y1="7.76913" x2="19.7934" y2="11.4809" gradientUnits="userSpaceOnUse">
<stop stop-color="#FED200"/>
<stop offset="0.272" stop-color="#FDCE01"/>
<stop offset="0.528" stop-color="#FBC205"/>
<stop offset="0.776" stop-color="#F8B00C"/>
<stop offset="1" stop-color="#F59815"/>
</linearGradient>
</defs>
</svg>
