<svg width="28" height="28" viewBox="0 0 28 28" fill="none" xmlns="http://www.w3.org/2000/svg">
<path d="M15.3213 4.38413H4.38379V12.5873H15.3213V4.38413ZM23.6156 10.6276H16.7796C16.4018 10.6276 16.096 10.9334 16.096 11.3112V12.6784C16.096 13.0556 15.789 13.362 15.4124 13.362H11.3109C10.933 13.362 10.6273 13.6677 10.6273 14.0456V20.8815C10.6273 22.0124 11.5472 22.9323 12.6781 22.9323H18.8304V24.9831C18.8304 25.2594 18.9973 25.5091 19.2523 25.6146C19.5009 25.7191 19.7986 25.6651 19.9973 25.4664L22.5314 22.9323H23.6156C24.7464 22.9323 25.6663 22.0124 25.6663 20.8815V12.6784C25.6663 11.5476 24.7465 10.6276 23.6156 10.6276Z" fill="url(#paint0_linear_8938_4120)"/>
<path d="M15.3213 2.33333H4.38379C3.24898 2.33333 2.33301 3.24935 2.33301 4.38412V12.5872C2.33301 13.722 3.24898 14.638 4.38379 14.638H5.46382L8.00684 17.1673C8.12984 17.304 8.30757 17.3724 8.48531 17.3724C8.56734 17.3724 8.66304 17.3587 8.74507 17.3177C9.00484 17.2084 9.1689 16.9623 9.1689 16.6888V14.638H15.3212C16.4561 14.638 17.372 13.722 17.372 12.5872V4.38412C17.3721 3.24935 16.4561 2.33333 15.3213 2.33333ZM7.11816 7.80208C8.25298 7.80208 9.16895 8.7181 9.16895 9.85287C9.16895 10.9876 8.25298 11.9036 7.11816 11.9036C5.98335 11.9036 5.06738 10.9876 5.06738 9.85287C5.06738 6.36531 8.04735 5.25825 8.18462 5.13607C8.51274 4.97201 8.92285 5.10868 9.10059 5.45048C9.26465 5.7786 9.12788 6.1888 8.78609 6.36658C8.64937 6.45591 7.77159 6.71945 7.0498 7.80213L7.11816 7.80208ZM12.5869 7.80208C13.7217 7.80208 14.6377 8.7181 14.6377 9.85287C14.6377 10.9876 13.7217 11.9036 12.5869 11.9036C11.4521 11.9036 10.5361 10.9876 10.5361 9.85287C10.5361 6.36531 13.5161 5.25825 13.6534 5.13607C13.9815 4.97201 14.3916 5.10868 14.5694 5.45048C14.7334 5.7786 14.5967 6.1888 14.2549 6.36658C14.1182 6.45591 13.2404 6.71945 12.5186 7.80213L12.5869 7.80208Z" fill="url(#paint1_linear_8938_4120)"/>
<defs>
<linearGradient id="paint0_linear_8938_4120" x1="15.0251" y1="25.6668" x2="15.0251" y2="4.38413" gradientUnits="userSpaceOnUse">
<stop stop-color="#FFBEF9"/>
<stop offset="1" stop-color="#FFF1FF"/>
</linearGradient>
<linearGradient id="paint1_linear_8938_4120" x1="9.85254" y1="17.3724" x2="9.85254" y2="2.33333" gradientUnits="userSpaceOnUse">
<stop stop-color="#A93AFF"/>
<stop offset="1" stop-color="#FF81FF"/>
</linearGradient>
</defs>
</svg>
