<svg width="28" height="28" viewBox="0 0 28 28" fill="none" xmlns="http://www.w3.org/2000/svg">
<path fill-rule="evenodd" clip-rule="evenodd" d="M14.5544 2.29094C14.3799 1.7535 13.6195 1.7535 13.4449 2.29094L13.2619 2.85417C13.1838 3.09453 12.9598 3.25725 12.7071 3.25725H12.1149C11.5498 3.25725 11.3148 3.98035 11.772 4.3125L12.2511 4.66061C12.4556 4.80915 12.5411 5.07245 12.4631 5.3128L12.28 5.87603C12.1054 6.41347 12.7205 6.86037 13.1776 6.52822L13.6568 6.18013C13.8613 6.03159 14.138 6.03159 14.3426 6.18013L14.8217 6.52822C15.2788 6.86037 15.894 6.41347 15.7193 5.87603L15.5363 5.3128C15.4582 5.07245 15.5438 4.80915 15.7483 4.66061L16.2273 4.3125C16.6845 3.98035 16.4496 3.25725 15.8844 3.25725H15.2922C15.0395 3.25725 14.8155 3.09453 14.7375 2.85417L14.5544 2.29094ZM12.833 9.33349C11.5443 9.33349 10.4997 10.3782 10.4997 11.6668V23.3335C10.4997 24.6222 11.5443 25.6668 12.833 25.6668H15.1663C16.455 25.6668 17.4997 24.6222 17.4997 23.3335V11.6668C17.4997 10.3782 16.455 9.33349 15.1663 9.33349H12.833ZM20.9997 16.3335C19.711 16.3335 18.6663 17.3782 18.6663 18.6668V23.3335C18.6663 24.6222 19.711 25.6668 20.9997 25.6668H23.333C24.6217 25.6668 25.6663 24.6222 25.6663 23.3335V18.6668C25.6663 17.3782 24.6217 16.3335 23.333 16.3335H20.9997ZM2.33301 16.3335C2.33301 15.0449 3.37768 14.0001 4.66634 14.0001H6.99967C8.28834 14.0001 9.33301 15.0449 9.33301 16.3335V23.3335C9.33301 24.6222 8.28834 25.6668 6.99967 25.6668H4.66634C3.37768 25.6668 2.33301 24.6222 2.33301 23.3335V16.3335Z" fill="url(#paint0_linear_8938_4130)"/>
<defs>
<linearGradient id="paint0_linear_8938_4130" x1="13.9997" y1="1.88767" x2="13.9997" y2="25.6667" gradientUnits="userSpaceOnUse">
<stop stop-color="#FD6700"/>
<stop offset="1" stop-color="#FFCE00"/>
</linearGradient>
</defs>
</svg>
