<svg width="20" height="20" viewBox="0 0 20 20" fill="none" xmlns="http://www.w3.org/2000/svg">
<path d="M4.7624 2.8125L6.77907 5.83333H2.5249C2.6749 4.475 3.55407 3.33333 4.7624 2.8125Z" fill="url(#paint0_linear_6544_103707)"/>
<path d="M9.97087 2.5L12.1959 5.83333H8.7792L6.5542 2.5H9.97087Z" fill="url(#paint1_linear_6544_103707)"/>
<path d="M17.4751 5.83333H14.1959L11.9709 2.5H13.7501C15.6751 2.5 17.2709 3.9625 17.4751 5.83333Z" fill="url(#paint2_linear_6544_103707)"/>
<path d="M2.5 7.5V13.75C2.5 15.8167 4.18333 17.5 6.25 17.5H13.75C15.8167 17.5 17.5 15.8167 17.5 13.75V7.5H2.5Z" fill="url(#paint3_linear_6544_103707)"/>
<path d="M12.2876 12.4458L8.53758 14.5292C8.47091 14.5667 8.40429 14.5833 8.33341 14.5833C8.25841 14.5833 8.18758 14.5625 8.12091 14.525C7.99591 14.45 7.91675 14.3125 7.91675 14.1667V9.99999C7.91675 9.85416 7.99591 9.71666 8.12091 9.64166C8.25008 9.56666 8.40841 9.56249 8.53758 9.63749L12.2876 11.7208C12.4167 11.7917 12.5001 11.9333 12.5001 12.0833C12.5001 12.2333 12.4167 12.375 12.2876 12.4458Z" fill="white"/>
<defs>
<linearGradient id="paint0_linear_6544_103707" x1="-2.5851" y1="11.8025" x2="11.4149" y2="-0.960835" gradientUnits="userSpaceOnUse">
<stop stop-color="#FEA14B"/>
<stop offset="1" stop-color="#EC44A1"/>
</linearGradient>
<linearGradient id="paint1_linear_6544_103707" x1="-0.957884" y1="13.5867" x2="13.0421" y2="0.823749" gradientUnits="userSpaceOnUse">
<stop stop-color="#FEA14B"/>
<stop offset="1" stop-color="#EC44A1"/>
</linearGradient>
<linearGradient id="paint2_linear_6544_103707" x1="1.46928" y1="16.2496" x2="15.4693" y2="3.48625" gradientUnits="userSpaceOnUse">
<stop stop-color="#FEA14B"/>
<stop offset="1" stop-color="#EC44A1"/>
</linearGradient>
<linearGradient id="paint3_linear_6544_103707" x1="2.9525" y1="17.8762" x2="16.9525" y2="5.11333" gradientUnits="userSpaceOnUse">
<stop stop-color="#FEA14B"/>
<stop offset="1" stop-color="#EC44A1"/>
</linearGradient>
</defs>
</svg>
