<svg width="28" height="28" viewBox="0 0 28 28" fill="none" xmlns="http://www.w3.org/2000/svg">
<path fill-rule="evenodd" clip-rule="evenodd" d="M25.2653 23.3093L19.2326 17.2766C21.9538 13.6089 21.6528 8.40298 18.3265 5.07808C14.6681 1.41823 8.73624 1.41823 5.07789 5.07808C1.41805 8.73642 1.41805 14.6683 5.07789 18.3266C8.4028 21.6529 13.6087 21.954 17.2764 19.2328L23.3091 25.2655C23.5689 25.5231 23.9201 25.6673 24.286 25.6665C24.6518 25.6658 25.0025 25.5201 25.2612 25.2614C25.5199 25.0027 25.6656 24.652 25.6663 24.2862C25.6671 23.9203 25.5229 23.5691 25.2653 23.3093ZM16.3702 16.3704C15.447 17.2937 14.2707 17.9224 12.9901 18.1772C11.7095 18.4319 10.3821 18.3012 9.17584 17.8015C7.96955 17.3018 6.93851 16.4557 6.21311 15.3701C5.48771 14.2844 5.10053 13.0081 5.10053 11.7024C5.10053 10.3967 5.48771 9.12034 6.21311 8.03471C6.93851 6.94907 7.96955 6.10293 9.17584 5.60327C10.3821 5.10361 11.7095 4.97287 12.9901 5.2276C14.2707 5.48233 15.447 6.11108 16.3702 7.03434C17.6079 8.27256 18.3032 9.95164 18.3032 11.7024C18.3032 13.4531 17.6079 15.1322 16.3702 16.3704Z" fill="url(#paint0_linear_8938_4049)"/>
<defs>
<linearGradient id="paint0_linear_8938_4049" x1="2.33314" y1="14.0011" x2="25.6687" y2="14.0011" gradientUnits="userSpaceOnUse">
<stop stop-color="#0056E9"/>
<stop offset="0.033" stop-color="#005DE8"/>
<stop offset="0.191" stop-color="#007BE2"/>
<stop offset="0.359" stop-color="#0092DE"/>
<stop offset="0.539" stop-color="#00A2DA"/>
<stop offset="0.739" stop-color="#00ACD9"/>
<stop offset="1" stop-color="#00AFD8"/>
</linearGradient>
</defs>
</svg>
