<svg width="20" height="20" viewBox="0 0 20 20" fill="none" xmlns="http://www.w3.org/2000/svg">
<path fill-rule="evenodd" clip-rule="evenodd" d="M9.99987 12.5C8.62153 12.5 7.49987 11.3783 7.49987 10C7.49987 8.62167 8.62153 7.5 9.99987 7.5C11.3782 7.5 12.4999 8.62167 12.4999 10C12.4999 11.3783 11.3782 12.5 9.99987 12.5ZM16.2615 10.7617C15.989 10.6025 15.8257 10.3183 15.8257 10C15.8257 9.68167 15.989 9.3975 16.2624 9.23917C17.444 8.55167 17.8499 7.025 17.1682 5.83417C16.8357 5.25583 16.2999 4.8425 15.6582 4.67C15.0199 4.50083 14.3532 4.58917 13.7815 4.92167C13.5115 5.08 13.189 5.08 12.9174 4.9225C12.6424 4.765 12.4782 4.47917 12.4782 4.16C12.4782 2.78583 11.3665 1.66667 9.99987 1.66667C8.63237 1.66667 7.5207 2.78583 7.5207 4.16C7.5207 4.48 7.35653 4.765 7.08153 4.92333C6.81153 5.07833 6.48903 5.08 6.21903 4.92167C5.6457 4.58917 4.97987 4.49917 4.33987 4.67083C3.6982 4.84333 3.1632 5.25667 2.83153 5.835C2.14987 7.02583 2.55653 8.5525 3.7382 9.23833C4.0107 9.39667 4.1732 9.68167 4.1732 10C4.1732 10.3183 4.0107 10.6033 3.7382 10.7608C2.55653 11.4483 2.14987 12.9758 2.83153 14.1658C3.1632 14.7433 3.6982 15.1567 4.33903 15.3292C4.9782 15.5 5.6457 15.4117 6.21903 15.0792C6.4882 14.9208 6.8107 14.9208 7.08153 15.0767C7.35653 15.235 7.5207 15.52 7.5207 15.84C7.5207 17.2142 8.63237 18.3333 9.99987 18.3333C11.3665 18.3333 12.4782 17.2142 12.4782 15.84C12.4782 15.5208 12.6424 15.235 12.9174 15.0775C13.1882 14.9208 13.5107 14.9208 13.7815 15.0792C14.354 15.4117 15.0207 15.4983 15.6582 15.33C16.2999 15.1575 16.8357 14.7442 17.1682 14.1658C17.8499 12.9758 17.444 11.4492 16.2615 10.7617Z" fill="black"/>
</svg>
