<svg width="24" height="24" viewBox="0 0 24 24" fill="none" xmlns="http://www.w3.org/2000/svg">
<path d="M21.0754 5.59914C22.0693 5.59914 22.875 4.79344 22.875 3.79957C22.875 2.80569 22.0693 2 21.0754 2C20.0816 2 19.2759 2.80569 19.2759 3.79957C19.2759 4.79344 20.0816 5.59914 21.0754 5.59914Z" fill="#636363"/>
<path d="M21.0754 22.875C22.0693 22.875 22.875 22.0693 22.875 21.0754C22.875 20.0816 22.0693 19.2759 21.0754 19.2759C20.0816 19.2759 19.2759 20.0816 19.2759 21.0754C19.2759 22.0693 20.0816 22.875 21.0754 22.875Z" fill="#636363"/>
<path d="M3.79957 5.59914C4.79344 5.59914 5.59914 4.79344 5.59914 3.79957C5.59914 2.80569 4.79344 2 3.79957 2C2.80569 2 2 2.80569 2 3.79957C2 4.79344 2.80569 5.59914 3.79957 5.59914Z" fill="#636363"/>
<path d="M12.4377 5.95902C13.2328 5.95902 13.8774 5.31447 13.8774 4.51937C13.8774 3.72427 13.2328 3.07971 12.4377 3.07971C11.6426 3.07971 10.998 3.72427 10.998 4.51937C10.998 5.31447 11.6426 5.95902 12.4377 5.95902Z" fill="#636363"/>
<path d="M3.79957 22.875C4.79344 22.875 5.59914 22.0693 5.59914 21.0754C5.59914 20.0816 4.79344 19.2759 3.79957 19.2759C2.80569 19.2759 2 20.0816 2 21.0754C2 22.0693 2.80569 22.875 3.79957 22.875Z" fill="#636363"/>
<path d="M12.4377 21.7953C13.2328 21.7953 13.8774 21.1507 13.8774 20.3556C13.8774 19.5605 13.2328 18.916 12.4377 18.916C11.6426 18.916 10.998 19.5605 10.998 20.3556C10.998 21.1507 11.6426 21.7953 12.4377 21.7953Z" fill="#636363"/>
<path d="M4.51925 13.8772C5.31434 13.8772 5.9589 13.2326 5.9589 12.4375C5.9589 11.6424 5.31434 10.9979 4.51925 10.9979C3.72415 10.9979 3.07959 11.6424 3.07959 12.4375C3.07959 13.2326 3.72415 13.8772 4.51925 13.8772Z" fill="#636363"/>
<path d="M20.3557 13.8772C21.1508 13.8772 21.7953 13.2326 21.7953 12.4375C21.7953 11.6424 21.1508 10.9979 20.3557 10.9979C19.5606 10.9979 18.916 11.6424 18.916 12.4375C18.916 13.2326 19.5606 13.8772 20.3557 13.8772Z" fill="#636363"/>
<path d="M17.0026 8.38144L19.5695 5.81448C19.3765 5.66981 19.2053 5.49859 19.0606 5.30554L16.4937 7.8725C16.6731 8.03209 16.843 8.20199 17.0026 8.38144Z" fill="#636363"/>
<path d="M16.4937 17.0025L19.0606 19.5694C19.2053 19.3764 19.3765 19.2052 19.5695 19.0605L17.0026 16.4935C16.843 16.673 16.6731 16.8429 16.4937 17.0025Z" fill="#636363"/>
<path d="M8.38154 7.87248L5.8146 5.30554C5.66993 5.49859 5.49871 5.66981 5.30566 5.81448L7.8726 8.38142C8.03219 8.20196 8.20209 8.03207 8.38154 7.87248Z" fill="#636363"/>
<path d="M7.8726 16.4935L5.30566 19.0605C5.49871 19.2051 5.66993 19.3764 5.8146 19.5694L8.38154 17.0025C8.20209 16.8429 8.03219 16.673 7.8726 16.4935Z" fill="#636363"/>
<path d="M11.3574 13.9614L13.8972 12.4375L11.3574 10.9137V13.9614Z" fill="#636363"/>
<path d="M12.4373 7.03882C9.46044 7.03882 7.03857 9.46068 7.03857 12.4375C7.03857 15.4144 9.46044 17.8362 12.4373 17.8362C15.4143 17.8362 17.836 15.4144 17.836 12.4375C17.836 9.46068 15.4143 7.03882 12.4373 7.03882ZM14.782 12.7461L11.1829 14.9056C11.1259 14.9399 11.0618 14.9569 10.9976 14.9569C10.9365 14.9569 10.8753 14.9415 10.8203 14.9102C10.7075 14.8464 10.6377 14.7267 10.6377 14.597V10.278C10.6377 10.1483 10.7075 10.0287 10.8203 9.96488C10.9331 9.90073 11.0714 9.90249 11.1829 9.96944L14.782 12.1289C14.8902 12.194 14.9567 12.3112 14.9567 12.4375C14.9567 12.5639 14.8902 12.6811 14.782 12.7461Z" fill="#636363"/>
</svg>
