<svg width="24" height="24" viewBox="0 0 24 24" fill="none" xmlns="http://www.w3.org/2000/svg">
<path fill-rule="evenodd" clip-rule="evenodd" d="M9.04685 14.8903C9.04685 13.4689 7.8904 12.3123 6.46881 12.3123C5.04723 12.3123 3.89062 13.4689 3.89062 14.8903C3.89062 16.3119 5.04723 17.4685 6.46881 17.4685C7.8904 17.4685 9.04685 16.3119 9.04685 14.8903Z" fill="#636363"/>
<path fill-rule="evenodd" clip-rule="evenodd" d="M6.46878 17.4685C4.00075 17.4685 2 19.4693 2 21.9373C2 22.2696 2.26937 22.539 2.60173 22.539H10.336C10.6683 22.539 10.9377 22.2696 10.9377 21.9373C10.9377 19.4693 8.93696 17.4685 6.46878 17.4685Z" fill="#636363"/>
<path fill-rule="evenodd" clip-rule="evenodd" d="M16.7813 12.3123C15.3597 12.3123 14.2031 13.4689 14.2031 14.8903C14.2031 16.3119 15.3597 17.4685 16.7813 17.4685C18.2029 17.4685 19.3593 16.3119 19.3593 14.8903C19.3593 13.4689 18.2029 12.3123 16.7813 12.3123Z" fill="#636363"/>
<path fill-rule="evenodd" clip-rule="evenodd" d="M16.7814 17.4685C14.3134 17.4685 12.3125 19.4693 12.3125 21.9373C12.3125 22.2696 12.582 22.539 12.9142 22.539H20.6485C20.9808 22.539 21.2502 22.2696 21.2502 21.9373C21.2502 19.4693 19.2495 17.4685 16.7814 17.4685Z" fill="#636363"/>
<path fill-rule="evenodd" clip-rule="evenodd" d="M16.7813 10.9377C17.8238 10.9377 18.6721 10.0895 18.6721 9.04697V3.89075C18.6721 2.83725 17.8173 2 16.7813 2H6.46903C5.41475 2 4.57812 2.85543 4.57812 3.89075V9.04697C4.57812 10.0895 5.42634 10.9377 6.46903 10.9377H9.4866L11.087 14.1383C11.1888 14.3422 11.3973 14.471 11.6251 14.471C11.8531 14.471 12.0613 14.3422 12.1634 14.1383L13.7636 10.9377H16.7813ZM12.9141 4.57803C13.2463 4.57803 13.5158 4.84771 13.5158 5.17976C13.5158 5.51197 13.2463 5.78149 12.9141 5.78149C12.5821 5.78149 12.3124 5.51197 12.3124 5.17976C12.3124 4.84771 12.5821 4.57803 12.9141 4.57803ZM10.3361 4.57803C10.6683 4.57803 10.9378 4.84771 10.9378 5.17976C10.9378 5.51197 10.6683 5.78149 10.3361 5.78149C10.0039 5.78149 9.73435 5.51197 9.73435 5.17976C9.73435 4.84771 10.0039 4.57803 10.3361 4.57803ZM11.6251 8.68186C10.6797 8.68186 9.77681 8.2304 9.21003 7.47432C9.01071 7.2084 9.06477 6.83123 9.33069 6.6319C9.59661 6.43258 9.97378 6.48649 10.173 6.75241C10.5138 7.20699 11.0566 7.4784 11.6251 7.4784C12.1936 7.4784 12.7364 7.20699 13.0772 6.75241C13.2766 6.48649 13.6537 6.43242 13.9197 6.6319C14.1856 6.83123 14.2395 7.2084 14.0402 7.47432C13.4734 8.2304 12.5705 8.68186 11.6251 8.68186Z" fill="#636363"/>
</svg>
