<svg width="24" height="24" viewBox="0 0 24 24" fill="none" xmlns="http://www.w3.org/2000/svg">
<path d="M12 2C6.48625 2 2 6.48625 2 12C2 17.5138 6.48625 22 12 22C17.5138 22 22 17.5138 22 12C22 6.48625 17.5138 2 12 2ZM12.635 5.24875L15.2062 3.86625C16.63 4.43 17.8725 5.35375 18.8175 6.52875L18.205 9.35625L16.2438 10.3175L12.635 7.68875V5.24875ZM8.815 3.85875L11.3862 5.24625V7.68875L7.78 10.3175L5.80875 9.355L5.19625 6.51C6.14375 5.3375 7.38875 4.41875 8.815 3.85875ZM4.7875 16.9425C3.97125 15.755 3.44 14.3588 3.29375 12.85L5.41 10.5513L7.34 11.495L8.79375 15.6238L7.565 17.0962L4.7875 16.9425ZM14.2288 20.4513C13.515 20.64 12.7712 20.75 12 20.75C11.0675 20.75 10.17 20.6 9.32625 20.3288L8.54 17.8813L9.79375 16.375H14.2113L15.4425 17.8325L14.2288 20.4513ZM16.4175 17.0538L15.2088 15.6225L16.6825 11.495L18.6038 10.5538L20.7075 12.8512C20.5812 14.1525 20.1625 15.3663 19.5262 16.44L16.4175 17.0538Z" fill="#636363"/>
</svg>
