<svg width="16" height="16" viewBox="0 0 16 16" fill="none" xmlns="http://www.w3.org/2000/svg">
<path d="M7.43061 4.682C7.68394 4.22667 7.81061 4 7.99994 4C8.18928 4 8.31594 4.22667 8.56928 4.682L8.63461 4.79933C8.70661 4.92867 8.74261 4.99267 8.79861 5.03533C8.85528 5.078 8.92528 5.094 9.06528 5.12533L9.19194 5.15467C9.68394 5.266 9.92994 5.32133 9.98861 5.50933C10.0473 5.698 9.87928 5.894 9.54394 6.286L9.45728 6.38733C9.36194 6.49867 9.31394 6.554 9.29261 6.62333C9.27128 6.69267 9.27861 6.76667 9.29261 6.91533L9.30594 7.05067C9.35661 7.574 9.38194 7.836 9.22928 7.952C9.07594 8.068 8.84528 7.962 8.38461 7.75L8.26594 7.69533C8.13461 7.63533 8.06928 7.60533 7.99994 7.60533C7.93061 7.60533 7.86528 7.63533 7.73394 7.69533L7.61528 7.75C7.15461 7.96267 6.92394 8.068 6.77061 7.952C6.61728 7.836 6.64328 7.574 6.69394 7.05067L6.70728 6.91533C6.72128 6.76667 6.72861 6.69267 6.70728 6.62333C6.68594 6.55467 6.63794 6.49867 6.54261 6.38733L6.45594 6.286C6.12061 5.894 5.95261 5.698 6.01128 5.50933C6.06994 5.32133 6.31594 5.266 6.80794 5.15467L6.93461 5.12533C7.07461 5.094 7.14461 5.07867 7.20128 5.03533C7.25728 4.99267 7.29328 4.92867 7.36528 4.79933L7.43061 4.682Z" stroke="#F1C40F" stroke-width="1.5"/>
<path d="M12.6666 5.99998C12.6666 6.61282 12.5459 7.21965 12.3114 7.78584C12.0768 8.35202 11.7331 8.86647 11.2998 9.29981C10.8664 9.73315 10.352 10.0769 9.78578 10.3114C9.21959 10.5459 8.61275 10.6666 7.99992 10.6666C7.38708 10.6666 6.78025 10.5459 6.21406 10.3114C5.64788 10.0769 5.13343 9.73315 4.70009 9.29981C4.26675 8.86647 3.923 8.35202 3.68848 7.78584C3.45396 7.21965 3.33325 6.61282 3.33325 5.99998C3.33325 4.7623 3.82492 3.57532 4.70009 2.70015C5.57526 1.82498 6.76224 1.33331 7.99992 1.33331C9.2376 1.33331 10.4246 1.82498 11.2998 2.70015C12.1749 3.57532 12.6666 4.7623 12.6666 5.99998Z" stroke="#F1C40F" stroke-width="1.5"/>
<path d="M4.90057 10L4.4759 11.5487C4.05724 13.0767 3.8479 13.8407 4.12724 14.2587C4.22524 14.4053 4.35657 14.5227 4.50924 14.6007C4.9439 14.822 5.61591 14.472 6.95924 13.772C7.40591 13.5387 7.6299 13.4227 7.86724 13.3973C7.95543 13.3879 8.04438 13.3879 8.13257 13.3973C8.36991 13.4227 8.59324 13.5393 9.04057 13.772C10.3839 14.472 11.0559 14.822 11.4906 14.6007C11.6432 14.5227 11.7746 14.4053 11.8726 14.2587C12.1526 13.8407 11.9426 13.0767 11.5239 11.5487L11.0992 10" stroke="#F1C40F" stroke-width="1.5" stroke-linecap="round"/>
</svg>
