<svg width="100" height="101" viewBox="0 0 100 101" fill="none" xmlns="http://www.w3.org/2000/svg">
<g clip-path="url(#clip0_6544_103413)">
<path d="M46.7969 33.4492H93.2227C96.9727 33.4492 100 36.4766 100 40.2266V72.1211C100 75.8711 96.9727 78.8984 93.2227 78.8984H91.5625V88.8789C91.5625 90.6953 90.0781 92.1797 88.2617 92.1797C87.5195 92.1797 86.8164 91.9258 86.2305 91.4766L72.3047 78.8984H46.7969C43.0469 78.8984 40.0195 75.8711 40.0195 72.1211V40.2266C40.0195 36.4766 43.0469 33.4492 46.7969 33.4492Z" fill="#FF628F"/>
<path d="M66.9336 8.80078H8.53516C3.82812 8.80078 0 12.6289 0 17.3359V57.4727C0 62.1797 3.82812 66.0078 8.53516 66.0078H10.625V78.5664C10.625 80.8711 12.4805 82.7266 14.7852 82.7266C15.7227 82.7266 16.6211 82.4141 17.3438 81.8477L34.8633 66.0078H66.9336C71.6406 66.0078 75.4688 62.1797 75.4688 57.4727V17.3359C75.4688 12.6289 71.6406 8.80078 66.9336 8.80078Z" fill="#FFD7E6"/>
<path d="M17.5391 42.8242C20.7967 42.8242 23.4375 40.1834 23.4375 36.9258C23.4375 33.6682 20.7967 31.0273 17.5391 31.0273C14.2814 31.0273 11.6406 33.6682 11.6406 36.9258C11.6406 40.1834 14.2814 42.8242 17.5391 42.8242Z" fill="#FF628F"/>
<path d="M37.7344 42.8242C40.992 42.8242 43.6328 40.1834 43.6328 36.9258C43.6328 33.6682 40.992 31.0273 37.7344 31.0273C34.4768 31.0273 31.8359 33.6682 31.8359 36.9258C31.8359 40.1834 34.4768 42.8242 37.7344 42.8242Z" fill="#FF628F"/>
<path d="M57.9297 42.8242C61.1873 42.8242 63.8281 40.1834 63.8281 36.9258C63.8281 33.6682 61.1873 31.0273 57.9297 31.0273C54.6721 31.0273 52.0312 33.6682 52.0312 36.9258C52.0312 40.1834 54.6721 42.8242 57.9297 42.8242Z" fill="#FF628F"/>
</g>
<defs>
<clipPath id="clip0_6544_103413">
<rect width="100" height="100" fill="white" transform="translate(0 0.5)"/>
</clipPath>
</defs>
</svg>
