<svg width="28" height="28" viewBox="0 0 28 28" fill="none" xmlns="http://www.w3.org/2000/svg">
<path d="M21.07 3.86212H20.1141C20.127 3.96517 20.127 4.06943 20.1141 4.17248V5.41393C20.1108 6.47873 19.6881 7.49936 18.9375 8.2546C18.1869 9.00985 17.1689 9.43886 16.1042 9.44866H11.1384C10.0693 9.44538 9.04494 9.01925 8.28899 8.2633C7.53304 7.50735 7.10691 6.483 7.10363 5.41393V4.17248C7.09065 4.06943 7.09065 3.96517 7.10363 3.86212H6.17254C5.59735 3.86538 5.04665 4.09532 4.63992 4.50204C4.2332 4.90877 4.00326 5.45947 4 6.03466V24.0357C4.00326 24.6109 4.2332 25.1616 4.63992 25.5683C5.04665 25.9751 5.59735 26.205 6.17254 26.2083H21.07C21.6452 26.205 22.1959 25.9751 22.6026 25.5683C23.0093 25.1616 23.2393 24.6109 23.2425 24.0357V6.03466C23.2393 5.45947 23.0093 4.90877 22.6026 4.50204C22.1959 4.09532 21.6452 3.86538 21.07 3.86212ZM13.0378 19.7279L10.5549 22.2108C10.3803 22.3852 10.1436 22.4831 9.8969 22.4831C9.65016 22.4831 9.41351 22.3852 9.23893 22.2108L7.99748 20.9693C7.83301 20.7928 7.74347 20.5594 7.74773 20.3182C7.75198 20.077 7.8497 19.8468 8.02029 19.6762C8.19089 19.5056 8.42103 19.4079 8.66225 19.4037C8.90346 19.3994 9.13691 19.4889 9.31342 19.6534L9.8969 20.2369L11.7218 18.4119C11.8071 18.3205 11.9099 18.2471 12.0241 18.1962C12.1383 18.1453 12.2616 18.118 12.3866 18.1157C12.5116 18.1135 12.6358 18.1365 12.7517 18.1834C12.8677 18.2302 12.973 18.2999 13.0614 18.3883C13.1498 18.4767 13.2195 18.582 13.2664 18.698C13.3132 18.8139 13.3362 18.9381 13.334 19.0631C13.3318 19.1881 13.3044 19.3114 13.2535 19.4256C13.2026 19.5399 13.1293 19.6426 13.0378 19.7279ZM13.0378 13.5206L10.5549 16.0035C10.3803 16.1779 10.1436 16.2758 9.8969 16.2758C9.65016 16.2758 9.41351 16.1779 9.23893 16.0035L7.99748 14.7621C7.83301 14.5856 7.74347 14.3521 7.74773 14.1109C7.75198 13.8697 7.8497 13.6395 8.02029 13.469C8.19089 13.2984 8.42103 13.2006 8.66225 13.1964C8.90346 13.1921 9.13691 13.2817 9.31342 13.4461L9.8969 14.0296L11.7218 12.2047C11.8983 12.0402 12.1318 11.9507 12.373 11.9549C12.6142 11.9592 12.8444 12.0569 13.015 12.2275C13.1856 12.3981 13.2833 12.6282 13.2875 12.8695C13.2918 13.1107 13.2022 13.3441 13.0378 13.5206ZM18.5871 21.2425H16.1042C15.8572 21.2425 15.6204 21.1444 15.4458 20.9697C15.2712 20.7951 15.1731 20.5583 15.1731 20.3114C15.1731 20.0644 15.2712 19.8276 15.4458 19.653C15.6204 19.4784 15.8572 19.3803 16.1042 19.3803H18.5871C18.834 19.3803 19.0708 19.4784 19.2455 19.653C19.4201 19.8276 19.5182 20.0644 19.5182 20.3114C19.5182 20.5583 19.4201 20.7951 19.2455 20.9697C19.0708 21.1444 18.834 21.2425 18.5871 21.2425ZM18.5871 15.0352H16.1042C15.8572 15.0352 15.6204 14.9371 15.4458 14.7625C15.2712 14.5879 15.1731 14.351 15.1731 14.1041C15.1731 13.8572 15.2712 13.6203 15.4458 13.4457C15.6204 13.2711 15.8572 13.173 16.1042 13.173H18.5871C18.834 13.173 19.0708 13.2711 19.2455 13.4457C19.4201 13.6203 19.5182 13.8572 19.5182 14.1041C19.5182 14.351 19.4201 14.5879 19.2455 14.7625C19.0708 14.9371 18.834 15.0352 18.5871 15.0352ZM18.2767 4.17248V5.41393C18.2734 5.98912 18.0435 6.53983 17.6368 6.94655C17.2301 7.35328 16.6794 7.58322 16.1042 7.58648H11.1384C10.5632 7.58322 10.0125 7.35328 9.60574 6.94655C9.19901 6.53983 8.96907 5.98912 8.96581 5.41393V4.17248C8.96907 3.59729 9.19901 3.04659 9.60574 2.63986C10.0125 2.23314 10.5632 2.0032 11.1384 1.99994H16.1042C16.6794 2.0032 17.2301 2.23314 17.6368 2.63986C18.0435 3.04659 18.2734 3.59729 18.2767 4.17248Z" fill="url(#paint0_linear_8938_4027)"/>
<defs>
<linearGradient id="paint0_linear_8938_4027" x1="3.86344" y1="24.793" x2="23.3791" y2="5.27738" gradientUnits="userSpaceOnUse">
<stop stop-color="#6D03A8"/>
<stop offset="1" stop-color="#FD60C4"/>
</linearGradient>
</defs>
</svg>
