<svg width="28" height="28" viewBox="0 0 28 28" fill="none" xmlns="http://www.w3.org/2000/svg">
<path d="M16.7343 9.65231H5.79683C5.03048 9.65231 4.42964 10.2531 4.42964 11.0195V19.2226C4.42964 19.989 5.03048 20.5898 5.79683 20.5898H16.7343C17.5007 20.5898 18.1015 19.989 18.1015 19.2226V11.0195C18.1015 10.2531 17.5007 9.65231 16.7343 9.65231ZM10.7823 8.76847C10.9158 8.902 11.0907 8.96876 11.2656 8.96876C11.4404 8.96876 11.6154 8.902 11.7489 8.76847L15.8504 4.66691C16.1175 4.39989 16.1175 3.96727 15.8504 3.70026C15.5834 3.43325 15.1508 3.43325 14.8838 3.70026L11.2656 7.31852L7.64732 3.70026C7.38031 3.43325 6.94769 3.43325 6.68067 3.70026C6.41366 3.96727 6.41366 4.39989 6.68067 4.66691L10.7823 8.76847ZM6.10258 21.3455C5.76479 21.1799 5.35491 21.3135 5.18533 21.6512L3.81815 24.3856C3.64994 24.7234 3.78611 25.134 4.1239 25.3029C4.46957 25.4734 4.87462 25.3293 5.04114 24.9971L6.40833 22.2627C6.57654 21.925 6.44037 21.5144 6.10258 21.3455ZM24.983 7.60153H20.1523C19.4003 7.60153 18.7851 8.21676 18.7851 8.96872V21.2734C18.7851 22.0254 19.4003 22.6406 20.1523 22.6406H21.7793L23.1337 24.0078L23.3105 22.6406H24.983C25.3659 22.6406 25.6666 22.3398 25.6666 21.957V8.28512C25.6666 7.90231 25.3659 7.60153 24.983 7.60153Z" fill="url(#paint0_linear_8938_4134)"/>
<path d="M2.33301 8.2851V21.957C2.33301 22.3397 2.63374 22.6406 3.0166 22.6406H20.152V7.6015H3.0166C2.63374 7.6015 2.33301 7.90228 2.33301 8.2851ZM5.11296 11.0195C5.11296 10.6366 5.41369 10.3359 5.79655 10.3359H16.734C17.1169 10.3359 17.4176 10.6366 17.4176 11.0195V19.2226C17.4176 19.6054 17.1169 19.9062 16.734 19.9062H5.79655C5.41369 19.9062 5.11296 19.6054 5.11296 19.2226V11.0195ZM22.2028 11.7031C22.5803 11.7031 22.8864 11.397 22.8864 11.0195C22.8864 10.6419 22.5803 10.3359 22.2028 10.3359C21.8253 10.3359 21.5192 10.6419 21.5192 11.0195C21.5192 11.397 21.8253 11.7031 22.2028 11.7031ZM22.8864 13.7538C22.8864 13.3763 22.5803 13.0703 22.2028 13.0703C21.8253 13.0703 21.5192 13.3763 21.5192 13.7538C21.5192 14.1314 21.8253 14.4374 22.2028 14.4374C22.5803 14.4374 22.8864 14.1314 22.8864 13.7538ZM24.1852 24.3905L23.3102 22.6406H21.779L22.9548 24.9921C23.1051 25.2927 23.4679 25.4792 23.8707 25.3066C24.2125 25.1289 24.3493 24.7186 24.1852 24.3905Z" fill="url(#paint1_linear_8938_4134)"/>
<defs>
<linearGradient id="paint0_linear_8938_4134" x1="14.7063" y1="25.375" x2="14.7063" y2="3.49997" gradientUnits="userSpaceOnUse">
<stop stop-color="#FD3A84"/>
<stop offset="1" stop-color="#FFA68D"/>
</linearGradient>
<linearGradient id="paint1_linear_8938_4134" x1="13.2937" y1="25.3728" x2="13.2937" y2="7.60155" gradientUnits="userSpaceOnUse">
<stop stop-color="#FFC2CC"/>
<stop offset="1" stop-color="#FFF2F4"/>
</linearGradient>
</defs>
</svg>
