<svg width="20" height="20" viewBox="0 0 20 20" fill="none" xmlns="http://www.w3.org/2000/svg">
<path d="M16.7545 8.50278V10.8696C16.7545 11.3076 17.1131 11.6766 17.5511 11.6685C17.9758 11.6604 18.3175 11.3138 18.3175 10.8872L18.3188 6.63681C18.3188 6.19293 17.9592 5.83334 17.5153 5.83334L13.264 5.83432C12.8325 5.83432 12.4826 6.18415 12.4826 6.61598C12.4826 7.04782 12.8325 7.39765 13.2643 7.39765H15.6497L11.6089 11.4371L8.28925 8.11748C7.98401 7.81224 7.48937 7.81224 7.18412 8.11748L1.89568 13.4056C1.59044 13.7108 1.59044 14.2055 1.89568 14.5107C2.04831 14.6634 2.24811 14.7395 2.44825 14.7395C2.64806 14.7395 2.84819 14.6634 3.00082 14.5107L7.73636 9.77518L11.056 13.0948C11.3612 13.4001 11.8559 13.4001 12.1611 13.0948L16.7545 8.50278Z" fill="url(#paint0_linear_6544_103715)"/>
<defs>
<linearGradient id="paint0_linear_6544_103715" x1="4.89998" y1="17.515" x2="17.2146" y2="5.20007" gradientUnits="userSpaceOnUse">
<stop stop-color="#06B27C"/>
<stop offset="1" stop-color="#A0D39F"/>
</linearGradient>
</defs>
</svg>
