<svg width="28" height="28" viewBox="0 0 28 28" fill="none" xmlns="http://www.w3.org/2000/svg">
<path d="M13.9997 2.33334C7.55566 2.33334 2.33301 7.556 2.33301 14C2.33301 20.444 7.55566 25.6667 13.9997 25.6667C20.4437 25.6667 25.6663 20.444 25.6663 14C25.6663 7.556 20.4437 2.33334 13.9997 2.33334ZM13.9997 4.8034C16.488 4.8034 18.5068 6.82228 18.5068 9.31056C18.5068 11.7988 16.488 13.8177 13.9997 13.8177C11.5114 13.8177 9.49251 11.7988 9.49251 9.31056C9.49251 6.82228 11.5114 4.80795 13.9997 4.8034ZM21.4053 19.4186C19.7373 21.7064 17.0394 23.1921 13.9997 23.1921C10.96 23.1921 8.26204 21.7064 6.59408 19.4186C6.33431 19.0632 6.26139 18.6074 6.39355 18.1927L6.8584 16.7481C7.35514 15.1895 9.0459 14.36 10.5863 14.916C11.4932 15.2442 12.6325 15.4902 13.9997 15.4902C15.3669 15.4902 16.5107 15.2442 17.4131 14.916C18.9489 14.36 20.6397 15.1895 21.141 16.7481L21.6012 18.1927C21.738 18.612 21.6605 19.0677 21.4053 19.4186Z" fill="url(#paint0_linear_8938_4064)"/>
<defs>
<linearGradient id="paint0_linear_8938_4064" x1="5.7502" y1="5.75049" x2="22.2492" y2="22.2495" gradientUnits="userSpaceOnUse">
<stop stop-color="#64B5F6"/>
<stop offset="1" stop-color="#1976D2"/>
</linearGradient>
</defs>
</svg>
