<svg width="28" height="28" viewBox="0 0 28 28" fill="none" xmlns="http://www.w3.org/2000/svg">
<path d="M17.4772 16.2376H10.222C6.50781 16.2376 3.5 19.2454 3.5 22.9596C3.5 24.4544 4.71224 25.6666 6.20703 25.6666H21.4922C22.987 25.6666 24.1992 24.4544 24.1992 22.9596C24.1992 19.2454 21.1914 16.2376 17.4772 16.2376Z" fill="url(#paint0_linear_8938_4055)"/>
<path d="M13.8493 14.319C17.159 14.319 19.8421 11.6359 19.8421 8.32618C19.8421 5.01643 17.159 2.33334 13.8493 2.33334C10.5395 2.33334 7.85645 5.01643 7.85645 8.32618C7.85645 11.6359 10.5395 14.319 13.8493 14.319Z" fill="url(#paint1_linear_8938_4055)"/>
<defs>
<linearGradient id="paint0_linear_8938_4055" x1="1.87191" y1="20.9523" x2="25.1474" y2="20.9523" gradientUnits="userSpaceOnUse">
<stop stop-color="#F69A17"/>
<stop offset="0.52" stop-color="#DF384A"/>
<stop offset="1" stop-color="#AC0E85"/>
</linearGradient>
<linearGradient id="paint1_linear_8938_4055" x1="1.87158" y1="8.32755" x2="25.147" y2="8.32755" gradientUnits="userSpaceOnUse">
<stop stop-color="#F69A17"/>
<stop offset="0.52" stop-color="#DF384A"/>
<stop offset="1" stop-color="#AC0E85"/>
</linearGradient>
</defs>
</svg>
