<svg width="20" height="20" viewBox="0 0 20 20" fill="none" xmlns="http://www.w3.org/2000/svg">
<path fill-rule="evenodd" clip-rule="evenodd" d="M14.7189 9.86038C13.9339 9.86038 13.1972 10.0254 12.5775 10.3051C14.7464 10.9578 16.2819 12.5214 16.3233 14.3504C17.4525 14.1998 18.6713 13.7551 18.6713 12.5429C18.6713 11.0869 16.8603 9.86038 14.7189 9.86038Z" fill="url(#paint0_linear_6544_104044)"/>
<path fill-rule="evenodd" clip-rule="evenodd" d="M14.6982 8.82754H14.712C16.1787 8.82754 17.3768 7.57954 17.3768 6.05896C17.3768 4.5312 16.1787 3.28317 14.712 3.28317C14.4228 3.28317 14.1474 3.33338 13.8857 3.41945C14.3609 4.15105 14.6363 5.03328 14.6363 5.98723C14.6432 6.95553 14.354 7.88796 13.81 8.66258C14.0923 8.77016 14.3884 8.82754 14.6982 8.82754Z" fill="url(#paint1_linear_6544_104044)"/>
<path fill-rule="evenodd" clip-rule="evenodd" d="M7.93653 10.2979C7.31682 10.0254 6.58006 9.86038 5.80198 9.86038C3.66054 9.86038 1.84961 11.0869 1.84961 12.5429C1.84961 13.7551 3.06148 14.1926 4.19073 14.3504C4.22516 12.5214 5.76066 10.9578 7.93653 10.2979Z" fill="url(#paint2_linear_6544_104044)"/>
<path fill-rule="evenodd" clip-rule="evenodd" d="M5.802 8.82754H5.82266C6.13251 8.82754 6.4286 8.77016 6.71091 8.66258C6.1876 7.91665 5.87774 6.99139 5.87774 5.98723C5.87774 5.03328 6.15317 4.15105 6.62828 3.41945C6.36662 3.33338 6.0912 3.28317 5.802 3.28317C4.33535 3.28317 3.14413 4.5312 3.14413 6.05896C3.14413 7.57954 4.33535 8.82754 5.802 8.82754Z" fill="url(#paint3_linear_6544_104044)"/>
<path fill-rule="evenodd" clip-rule="evenodd" d="M10.2567 11.0346C7.52933 11.0346 5.2247 12.581 5.2247 14.4114C5.2247 16.7784 9.0118 16.7784 10.2567 16.7784C12.4174 16.7784 15.2901 16.5345 15.2901 14.4265C15.2901 12.5874 12.9848 11.0346 10.2567 11.0346Z" fill="url(#paint4_linear_6544_104044)"/>
<path fill-rule="evenodd" clip-rule="evenodd" d="M10.2574 9.47746H10.2801C11.1718 9.4746 12.0091 9.10951 12.6371 8.45035C13.2657 7.7912 13.61 6.91687 13.6066 5.98945C13.6066 4.06505 12.1048 2.5 10.2574 2.5C8.41067 2.5 6.90891 4.06505 6.90891 5.98945C6.90891 7.91242 8.41067 9.47746 10.2574 9.47746Z" fill="url(#paint5_linear_6544_104044)"/>
<defs>
<linearGradient id="paint0_linear_6544_104044" x1="10.2605" y1="2.50033" x2="10.2605" y2="16.778" gradientUnits="userSpaceOnUse">
<stop stop-color="#67B270"/>
<stop offset="1" stop-color="#4CA2CC"/>
</linearGradient>
<linearGradient id="paint1_linear_6544_104044" x1="10.2605" y1="2.50034" x2="10.2605" y2="16.778" gradientUnits="userSpaceOnUse">
<stop stop-color="#67B270"/>
<stop offset="1" stop-color="#4CA2CC"/>
</linearGradient>
<linearGradient id="paint2_linear_6544_104044" x1="10.2605" y1="2.50033" x2="10.2605" y2="16.778" gradientUnits="userSpaceOnUse">
<stop stop-color="#67B270"/>
<stop offset="1" stop-color="#4CA2CC"/>
</linearGradient>
<linearGradient id="paint3_linear_6544_104044" x1="10.2605" y1="2.50034" x2="10.2605" y2="16.778" gradientUnits="userSpaceOnUse">
<stop stop-color="#67B270"/>
<stop offset="1" stop-color="#4CA2CC"/>
</linearGradient>
<linearGradient id="paint4_linear_6544_104044" x1="10.2605" y1="2.50037" x2="10.2605" y2="16.7781" gradientUnits="userSpaceOnUse">
<stop stop-color="#67B270"/>
<stop offset="1" stop-color="#4CA2CC"/>
</linearGradient>
<linearGradient id="paint5_linear_6544_104044" x1="10.2605" y1="2.50035" x2="10.2605" y2="16.7781" gradientUnits="userSpaceOnUse">
<stop stop-color="#67B270"/>
<stop offset="1" stop-color="#4CA2CC"/>
</linearGradient>
</defs>
</svg>
