<svg width="41" height="40" viewBox="0 0 41 40" fill="none" xmlns="http://www.w3.org/2000/svg">
<g clip-path="url(#clip0_6724_126191)">
<path d="M31.75 0H9.25C4.4175 0 0.5 3.9175 0.5 8.75V31.25C0.5 36.0825 4.4175 40 9.25 40H31.75C36.5825 40 40.5 36.0825 40.5 31.25V8.75C40.5 3.9175 36.5825 0 31.75 0Z" fill="#FF4B55"/>
<path d="M20.8568 11.4555L22.9009 17.5843L29.3614 17.6344C29.7227 17.6372 29.8724 18.0982 29.5819 18.3128L24.3846 22.1507L26.3334 28.3105C26.4424 28.6549 26.0502 28.9398 25.7563 28.7298L20.5002 24.973L15.2441 28.7298C14.9502 28.9399 14.558 28.655 14.667 28.3105L16.6157 22.1508L11.4185 18.3129C11.1278 18.0983 11.2777 17.6373 11.6389 17.6344L18.0995 17.5844L20.1435 11.4555C20.2578 11.1127 20.7425 11.1127 20.8568 11.4555Z" fill="#FFE15A"/>
</g>
<defs>
<clipPath id="clip0_6724_126191">
<rect width="40" height="40" fill="white" transform="translate(0.5)"/>
</clipPath>
</defs>
</svg>
